SplineFontDB: 3.0
FontName: Estedad-regular
FullName: Estedad regular
FamilyName: Estedad
Weight: Regular
Copyright: Copyright (c) 2017, Amin (www.instagram.com/aminabedi68---aminabedi68@gmail.com),\nwith Reserved Font Name Estedad.\n\nThis Font Software is licensed under the SIL Open Font License, Version 1.1.
Version: 0.6(Beta1)
ItalicAngle: 0
UnderlinePosition: -204
UnderlineWidth: 102
Ascent: 1638
Descent: 410
InvalidEm: 0
LayerCount: 2
Layer: 0 0 "Back" 1
Layer: 1 0 "Fore" 0
XUID: [1021 89 1101065813 28845]
StyleMap: 0x0000
FSType: 0
OS2Version: 0
OS2_WeightWidthSlopeOnly: 0
OS2_UseTypoMetrics: 1
CreationTime: 1496828874
ModificationTime: 1499698565
PfmFamily: 17
TTFWeight: 400
TTFWidth: 5
LineGap: 0
VLineGap: 184
OS2TypoAscent: 500
OS2TypoAOffset: 1
OS2TypoDescent: -500
OS2TypoDOffset: 1
OS2TypoLinegap: 0
OS2WinAscent: 0
OS2WinAOffset: 1
OS2WinDescent: 0
OS2WinDOffset: 1
HheadAscent: 0
HheadAOffset: 1
HheadDescent: 0
HheadDOffset: 1
OS2Vendor: 'PfEd'
Lookup: 1 0 0 "single substitution 0" { "single substitution 0 subtable"  } []
Lookup: 5 9 0 "'calt' Contextual Alternates in Arabic lookup 6" { "'calt' Contextual Alternates in Arabic lookup 6 subtable"  } ['calt' ('DFLT' <'dflt' > 'arab' <'KUR ' 'SND ' 'URD ' 'dflt' > ) ]
Lookup: 1 9 0 "'fina' Terminal Forms in Arabic lookup 1" { "'fina' Terminal Forms in Arabic lookup 1 subtable"  } ['fina' ('arab' <'KUR ' 'SND ' 'URD ' 'dflt' > ) ]
Lookup: 1 9 0 "'medi' Medial Forms in Arabic lookup 1" { "'medi' Medial Forms in Arabic lookup 1 subtable"  } ['medi' ('arab' <'KUR ' 'SND ' 'URD ' 'dflt' > ) ]
Lookup: 1 9 0 "'init' Initial Forms in Arabic lookup 1" { "'init' Initial Forms in Arabic lookup 1 subtable"  } ['init' ('arab' <'KUR ' 'SND ' 'URD ' 'dflt' > ) ]
Lookup: 4 9 1 "'rlig' Required Ligatures in Arabic lookup 1" { "'rlig' Required Ligatures in Arabic lookup 1 subtable"  } ['rlig' ('DFLT' <'dflt' > 'arab' <'dflt' > ) ]

StartChar: period
Encoding: 46 46 0
Width: 360
VWidth: 1600
Flags: HMW
LayerCount: 2
Fore
SplineSet
53 90 m 1
 180 217 l 1
 307 90 l 1
 180 -37 l 1
 53 90 l 1
EndSplineSet
Validated: 1
EndChar

StartChar: slash
Encoding: 47 47 1
Width: 631
VWidth: 1600
Flags: HMW
LayerCount: 2
Fore
SplineSet
416 1234 m 1
 541 1200 l 1
 214 -17 l 1
 90 17 l 1
 416 1234 l 1
EndSplineSet
Validated: 1
EndChar

StartChar: hyphen
Encoding: 45 45 2
Width: 696
VWidth: 1600
Flags: HMW
LayerCount: 2
Fore
SplineSet
606 302 m 1
 90 302 l 1
 90 431 l 1
 606 431 l 1
 606 302 l 1
EndSplineSet
Validated: 1
EndChar

StartChar: asterisk
Encoding: 42 42 3
Width: 786
VWidth: 1600
Flags: HMW
LayerCount: 2
Fore
SplineSet
358 948 m 1
 428 948 l 1
 428 730 l 1
 583 884 l 1
 632 835 l 1
 478 680 l 1
 696 680 l 1
 696 610 l 1
 478 610 l 1
 632 456 l 1
 583 406 l 1
 428 561 l 1
 428 342 l 1
 358 342 l 1
 358 561 l 1
 204 406 l 1
 154 456 l 1
 309 610 l 1
 90 610 l 1
 90 680 l 1
 309 680 l 1
 154 835 l 1
 204 884 l 1
 358 730 l 1
 358 948 l 1
EndSplineSet
Validated: 1
EndChar

StartChar: parenleft
Encoding: 40 40 4
Width: 440
VWidth: 1600
Flags: HMW
LayerCount: 2
Fore
SplineSet
234 1243 m 1
 350 1187 l 1
 263 1009 219 815 219 622 c 0
 219 429 263 235 350 57 c 1
 234 0 l 1
 138 196 90 409 90 622 c 0
 90 835 138 1047 234 1243 c 1
EndSplineSet
Validated: 1
EndChar

StartChar: percent
Encoding: 37 37 6
Width: 1210
VWidth: 1600
Flags: HMW
LayerCount: 2
Fore
SplineSet
328 1260 m 0
 459 1260 566 1153 566 1022 c 0
 566 891 459 784 328 784 c 0
 197 784 90 891 90 1022 c 0
 90 1153 197 1260 328 1260 c 0
804 1242 m 1
 923 1192 l 1
 406 -25 l 1
 287 25 l 1
 804 1242 l 1
328 1131 m 0
 267 1131 219 1083 219 1022 c 0
 219 961 267 913 328 913 c 0
 389 913 437 961 437 1022 c 0
 437 1083 389 1131 328 1131 c 0
882 433 m 0
 1013 433 1120 326 1120 195 c 0
 1120 64 1013 -43 882 -43 c 0
 751 -43 644 64 644 195 c 0
 644 326 751 433 882 433 c 0
882 304 m 0
 821 304 773 256 773 195 c 0
 773 134 821 86 882 86 c 0
 943 86 991 134 991 195 c 0
 991 256 943 304 882 304 c 0
EndSplineSet
Validated: 1
EndChar

StartChar: exclam
Encoding: 33 33 7
Width: 360
VWidth: 1600
Flags: HMW
LayerCount: 2
Fore
SplineSet
116 1217 m 1
 244 1217 l 1
 244 302 l 1
 116 302 l 1
 116 1217 l 1
EndSplineSet
Refer: 0 46 N 1 0 0 1 10 0 2
Validated: 1
EndChar

StartChar: uni0660
Encoding: 1632 1632 8
Width: 656
VWidth: 1600
Flags: HMW
LayerCount: 2
Fore
SplineSet
328 540 m 0
 459 540 566 433 566 302 c 0
 566 171 459 64 328 64 c 0
 197 64 90 171 90 302 c 0
 90 433 197 540 328 540 c 0
328 411 m 0
 267 411 219 363 219 302 c 0
 219 241 267 193 328 193 c 0
 389 193 437 241 437 302 c 0
 437 363 389 411 328 411 c 0
EndSplineSet
Validated: 1
EndChar

StartChar: uni0661
Encoding: 1633 1633 9
Width: 490
VWidth: 1600
Flags: HMW
LayerCount: 2
Fore
SplineSet
214 1234 m 1
 325 818 400 417 400 0 c 1
 271 0 l 1
 271 401 200 790 90 1200 c 1
 214 1234 l 1
EndSplineSet
Validated: 1
EndChar

StartChar: uni0662
Encoding: 1634 1634 10
Width: 914
VWidth: 1600
Flags: HMW
LayerCount: 2
Fore
SplineSet
215 1234 m 1
 258 1067 296 774 479 774 c 0
 695 774 695 990 695 1217 c 1
 824 1217 l 1
 824 922 779 645 479 645 c 0
 425 645 379 660 338 685 c 1
 377 458 401 231 401 0 c 1
 272 0 l 1
 272 399 190 818 90 1201 c 1
 215 1234 l 1
EndSplineSet
Validated: 1
EndChar

StartChar: uni0663
Encoding: 1635 1635 11
Width: 1182
VWidth: 1600
Flags: HMW
LayerCount: 2
Fore
SplineSet
835 645 m 0
 754 645 668 705 626 781 c 1
 586 701 508 647 428 647 c 0
 399 647 369 654 341 669 c 1
 379 447 400 226 400 0 c 1
 271 0 l 1
 271 399 189 824 90 1200 c 1
 214 1234 l 1
 255 1078 285 774 413 774 c 0
 562 774 562 1018 562 1217 c 1
 691 1217 l 1
 691 1022 692 774 835 774 c 0
 958 774 963 990 963 1217 c 1
 1092 1217 l 1
 1092 922 1042 645 835 645 c 0
EndSplineSet
Validated: 1
EndChar

StartChar: uni0664
Encoding: 1636 1636 12
Width: 815
VWidth: 1600
Flags: HMW
LayerCount: 2
Fore
SplineSet
622 1197 m 1
 622 1068 l 1
 444 1068 325 1027 325 917 c 0
 325 798 430 775 610 775 c 1
 610 646 l 1
 380 646 218 492 218 324 c 0
 218 187 328 129 499 129 c 2
 725 129 l 1
 725 0 l 1
 499 0 l 2
 269 0 90 111 90 326 c 0
 90 495 189 621 325 700 c 1
 240 742 196 836 196 917 c 0
 196 1110 374 1197 622 1197 c 1
EndSplineSet
Validated: 1
EndChar

StartChar: uni0665
Encoding: 1637 1637 13
Width: 999
VWidth: 1600
Flags: HMW
LayerCount: 2
Fore
SplineSet
425 1256 m 1
 732 949 909 660 909 382 c 0
 909 141 740 6 494 6 c 0
 245 6 90 154 90 395 c 0
 90 635 214 877 407 1088 c 1
 384 1113 359 1138 333 1164 c 1
 425 1256 l 1
492 990 m 1
 322 799 219 583 219 393 c 0
 219 221 308 135 494 135 c 0
 679 135 781 208 781 378 c 0
 781 561 681 759 492 990 c 1
EndSplineSet
Validated: 1
EndChar

StartChar: uni0666
Encoding: 1638 1638 14
Width: 917
VWidth: 1600
Flags: HMW
LayerCount: 2
Fore
SplineSet
721 1216 m 1
 721 756 744 422 827 13 c 1
 701 -13 l 1
 624 362 595 676 592 1076 c 1
 532 1072 466 1070 399 1070 c 0
 290 1070 179 1076 90 1088 c 1
 108 1215 l 1
 187 1204 294 1199 399 1199 c 0
 523 1199 620 1206 721 1216 c 1
EndSplineSet
Validated: 1
EndChar

StartChar: uni0667
Encoding: 1639 1639 15
Width: 1078
VWidth: 1600
Flags: HMW
LayerCount: 2
Fore
SplineSet
201 1218 m 1
 361 947 470 671 539 378 c 1
 608 671 717 947 877 1218 c 1
 988 1152 l 1
 775 789 657 426 603 9 c 1
 475 9 l 1
 421 426 303 789 90 1152 c 1
 201 1218 l 1
EndSplineSet
Validated: 1
EndChar

StartChar: uni0669
Encoding: 1641 1641 17
Width: 862
VWidth: 1600
Flags: HMW
LayerCount: 2
Fore
SplineSet
417 1217 m 0
 654 1217 673 985 673 749 c 2
 673 657 l 2
 673 449 679 226 772 65 c 1
 661 0 l 1
 556 182 544 400 544 594 c 1
 511 586 475 581 437 581 c 0
 217 581 90 725 90 881 c 0
 90 1060 241 1217 417 1217 c 0
417 1088 m 0
 324 1088 220 982 220 879 c 0
 220 797 273 710 437 710 c 0
 477 710 514 717 545 729 c 1
 545 896 544 1088 417 1088 c 0
EndSplineSet
Validated: 1
EndChar

StartChar: uni06F0
Encoding: 1776 1776 18
Width: 656
VWidth: 1600
Flags: HMW
LayerCount: 2
Fore
SplineSet
328 540 m 0
 459 540 566 433 566 302 c 0
 566 171 459 64 328 64 c 0
 197 64 90 171 90 302 c 0
 90 433 197 540 328 540 c 0
328 411 m 0
 267 411 219 363 219 302 c 0
 219 241 267 193 328 193 c 0
 389 193 437 241 437 302 c 0
 437 363 389 411 328 411 c 0
EndSplineSet
Validated: 1
EndChar

StartChar: uni06F4
Encoding: 1780 1780 22
Width: 977
VWidth: 1600
Flags: HMW
LayerCount: 2
Fore
SplineSet
330 724 m 1
 374 484 400 245 400 0 c 1
 271 0 l 1
 271 401 200 790 90 1200 c 1
 214 1234 l 1
 242 1134 271 1048 307 975 c 1
 348 1160 521 1244 723 1244 c 0
 771 1244 820 1239 870 1230 c 1
 870 1101 l 1
 817 1113 764 1120 715 1120 c 0
 554 1120 427 1050 427 885 c 0
 427 702 715 665 887 621 c 1
 854 496 l 1
 707 525 578 555 478 611 c 1
 413 643 360 680 330 724 c 1
EndSplineSet
Validated: 1
EndChar

StartChar: uni06F5
Encoding: 1781 1781 23
Width: 999
VWidth: 1600
Flags: HMW
LayerCount: 2
Fore
SplineSet
425 1249 m 1
 742 932 910 623 910 377 c 0
 910 188 814 0 639 0 c 0
 586 0 540 15 501 39 c 1
 462 15 415 0 362 0 c 0
 183 0 90 197 90 390 c 0
 90 609 210 866 407 1081 c 1
 384 1106 359 1132 333 1158 c 1
 425 1249 l 1
500 983 m 1
 317 787 219 548 219 381 c 0
 219 276 260 133 388 133 c 0
 425 133 464 151 500 196 c 1
 536 151 575 133 612 133 c 0
 740 133 781 276 781 381 c 0
 781 548 683 787 500 983 c 1
EndSplineSet
Validated: 1
EndChar

StartChar: uni06F6
Encoding: 1782 1782 24
Width: 917
VWidth: 1600
Flags: HMW
LayerCount: 2
Fore
SplineSet
471 1218 m 0
 505 1218 540 1212 573 1200 c 1
 528 1079 l 1
 509 1086 488 1090 468 1090 c 0
 342 1090 219 959 219 849 c 0
 219 751 312 709 416 709 c 0
 531 709 647 772 733 858 c 1
 827 770 l 1
 557 473 417 283 267 0 c 1
 155 63 l 1
 263 253 349 410 489 586 c 1
 464 582 440 581 416 581 c 0
 245 581 90 678 90 849 c 0
 90 1037 268 1218 471 1218 c 0
EndSplineSet
Validated: 1
EndChar

StartChar: uni0654
Encoding: 1620 1620 28
Width: 0
VWidth: 1600
Flags: HMW
AnchorPoint: "Anchor-5" 241 1350 mark 0
AnchorPoint: "Anchor-4" 241 1350 mark 0
AnchorPoint: "Anchor-1" 241 1350 mark 0
AnchorPoint: "Anchor-1" 212 1807 basemark 0
LayerCount: 2
Fore
SplineSet
376 1538 m 1
 406 1475 l 1
 65 1316 l 1
 36 1379 l 1
 175 1444 l 1
 94 1453 20 1493 20 1574 c 0
 20 1681 134 1779 251 1779 c 0
 268 1779 286 1777 304 1773 c 1
 287 1705 l 1
 276 1708 264 1709 253 1709 c 0
 175 1709 90 1639 90 1574 c 0
 90 1523 164 1512 222 1512 c 0
 273 1512 328 1521 376 1538 c 1
EndSplineSet
Validated: 1
EndChar

StartChar: uni0653
Encoding: 1619 1619 30
Width: 0
VWidth: 1600
Flags: HMW
AnchorPoint: "Anchor-5" 241 1320 mark 0
AnchorPoint: "Anchor-4" 241 1320 mark 0
AnchorPoint: "Anchor-1" 241 1320 mark 0
AnchorPoint: "Anchor-1" 234 1472 basemark 0
LayerCount: 2
Fore
SplineSet
399 1466 m 1
 461 1433 l 1
 434 1382 380 1324 306 1324 c 0
 275 1324 243 1337 216 1363 c 0
 200 1378 187 1382 174 1382 c 0
 143 1382 100 1343 82 1310 c 1
 20 1343 l 1
 47 1394 100 1452 174 1452 c 0
 205 1452 237 1439 264 1413 c 0
 280 1398 293 1394 306 1394 c 0
 337 1394 381 1433 399 1466 c 1
EndSplineSet
Validated: 1
EndChar

StartChar: uni0652
Encoding: 1618 1618 31
Width: 0
VWidth: 1600
Flags: HMW
AnchorPoint: "Anchor-5" 187 1243 mark 0
AnchorPoint: "Anchor-4" 187 1243 mark 0
AnchorPoint: "Anchor-1" 187 1243 mark 0
AnchorPoint: "Anchor-1" 188 1679 basemark 0
LayerCount: 2
Fore
SplineSet
187 1632 m 0
 279 1632 355 1557 355 1465 c 0
 355 1373 279 1298 187 1298 c 0
 95 1298 20 1373 20 1465 c 0
 20 1557 95 1632 187 1632 c 0
187 1563 m 0
 133 1563 90 1519 90 1465 c 0
 90 1411 133 1367 187 1367 c 0
 241 1367 285 1411 285 1465 c 0
 285 1519 241 1563 187 1563 c 0
EndSplineSet
Validated: 1
EndChar

StartChar: uni0651
Encoding: 1617 1617 32
Width: 0
VWidth: 1600
Flags: HMW
AnchorPoint: "Anchor-5" 345 1298 mark 0
AnchorPoint: "Anchor-4" 345 1298 mark 0
AnchorPoint: "Anchor-1" 345 1298 mark 0
AnchorPoint: "Anchor-1" 349 1661 basemark 0
LayerCount: 2
Fore
SplineSet
378 1569 m 1
 378 1449 378 1368 493 1368 c 0
 607 1368 607 1450 607 1569 c 1
 677 1569 l 1
 677 1414 653 1298 493 1298 c 0
 423 1298 375 1322 347 1365 c 1
 319 1322 271 1298 201 1298 c 0
 41 1298 17 1414 17 1569 c 1
 87 1569 l 1
 87 1450 87 1368 201 1368 c 0
 316 1368 316 1449 316 1569 c 1
 378 1569 l 1
EndSplineSet
Validated: 1
EndChar

StartChar: uni064E
Encoding: 1614 1614 33
Width: 0
VWidth: 1600
Flags: HMW
AnchorPoint: "Anchor-5" 240 1399 mark 0
AnchorPoint: "Anchor-4" 240 1399 mark 0
AnchorPoint: "Anchor-1" 240 1399 mark 0
AnchorPoint: "Anchor-1" 207 1558 basemark 0
LayerCount: 2
Fore
SplineSet
409 1599 m 1
 438 1536 l 1
 25 1343 l 1
 -4 1406 l 1
 409 1599 l 1
EndSplineSet
Validated: 1
EndChar

StartChar: uni064F
Encoding: 1615 1615 34
Width: 0
VWidth: 1600
Flags: HMW
AnchorPoint: "Anchor-5" 200 1358 mark 0
AnchorPoint: "Anchor-4" 200 1358 mark 0
AnchorPoint: "Anchor-1" 200 1358 mark 0
AnchorPoint: "Anchor-1" 204 1831 basemark 0
LayerCount: 2
Fore
SplineSet
29 1332 m 1
 -1 1395 l 1
 123 1453 l 1
 69 1483 38 1540 38 1599 c 0
 38 1700 121 1766 205 1766 c 0
 306 1766 373 1683 373 1598 c 0
 373 1524 330 1472 276 1447 c 2
 29 1332 l 1
205 1501 m 0
 255 1501 303 1540 303 1599 c 0
 303 1648 264 1697 205 1697 c 0
 155 1697 108 1658 108 1598 c 0
 108 1549 146 1501 205 1501 c 0
EndSplineSet
Validated: 1
EndChar

StartChar: uni064C
Encoding: 1612 1612 37
Width: 0
VWidth: 1600
Flags: HMW
AnchorPoint: "Anchor-5" 299 1317 mark 0
AnchorPoint: "Anchor-4" 299 1317 mark 0
AnchorPoint: "Anchor-1" 299 1317 mark 0
AnchorPoint: "Anchor-1" 334 1949 basemark 0
LayerCount: 2
Fore
SplineSet
336 1827 m 1
 210 1827 108 1725 108 1599 c 0
 108 1549 124 1503 151 1465 c 1
 86 1436 l 1
 56 1483 38 1539 38 1599 c 0
 38 1764 171 1897 336 1897 c 1
 336 1827 l 1
147 1331 m 1
 117 1394 l 1
 241 1452 l 1
 187 1482 156 1539 156 1598 c 0
 156 1699 239 1765 323 1765 c 0
 424 1765 491 1682 491 1597 c 0
 491 1523 448 1471 394 1446 c 2
 147 1331 l 1
323 1500 m 0
 373 1500 421 1538 421 1597 c 0
 421 1646 382 1696 323 1696 c 0
 273 1696 226 1657 226 1597 c 0
 226 1548 264 1500 323 1500 c 0
EndSplineSet
Validated: 1
EndChar

StartChar: top-three-dots
Encoding: 1114120 -1 47
Width: 575
VWidth: 1600
Flags: HMW
LayerCount: 2
Fore
SplineSet
1059 701 m 1
 942 584 l 1
 825 701 l 1
 942 818 l 1
 1059 701 l 1
EndSplineSet
Refer: 48 -1 N 1 0 0 1 -10 18 2
Validated: 513
EndChar

StartChar: two-dots
Encoding: 1114121 -1 48
Width: 540
VWidth: 1600
Flags: HMW
LayerCount: 2
Fore
SplineSet
721 471 m 5
 848 598 l 5
 951 495 l 5
 1054 598 l 5
 1181 471 l 5
 1054 344 l 5
 951 447 l 5
 848 344 l 5
 721 471 l 5
EndSplineSet
Validated: 513
EndChar

StartChar: GAF-bar
Encoding: 1114122 -1 49
Width: 938
VWidth: 1600
Flags: HMW
LayerCount: 2
Fore
SplineSet
86 1130 m 1
 575 1458 l 1
 575 1374 l 1
 86 1046 l 1
 86 1130 l 1
EndSplineSet
Validated: 513
EndChar

StartChar: dotless-final-BEH
Encoding: 1114123 -1 50
Width: 1974
VWidth: 1600
Flags: HMW
AnchorPoint: "Anchor-5" 968 710 basechar 0
AnchorPoint: "Anchor-3" 950 -436 basechar 0
LayerCount: 2
Fore
SplineSet
1729 141 m 1
 1582 6 1309 0 1017 0 c 2
 885 0 l 2
 671 0 474 2 324 56 c 0
 163 113 90 206 90 346 c 0
 90 415 107 463 124 528 c 1
 248 495 l 1
 235 446 218 393 218 345 c 0
 218 253 278 209 365 179 c 0
 496 135 713 129 951 129 c 0
 1189 129 1407 135 1538 179 c 0
 1625 209 1684 253 1684 345 c 0
 1684 393 1667 446 1654 495 c 1
 1779 528 l 1
 1809 437 1815 327 1832 230 c 0
 1847 142 1911 128 1984 128 c 2
 1998 128 l 1
 1998 -1 l 1
 1984 -1 l 2
 1864 -1 1774 36 1729 141 c 1
EndSplineSet
Validated: 513
EndChar

StartChar: dotless-initial-FEH
Encoding: 1114124 -1 51
Width: 757
VWidth: 1600
Flags: HMW
AnchorPoint: "Anchor-5" 370 1196 basechar 0
AnchorPoint: "Anchor-3" 359 -246 basechar 0
LayerCount: 2
Fore
SplineSet
-14 130 m 1
 168 130 l 2
 310 130 425 155 488 227 c 1
 448 219 409 215 373 215 c 0
 183 215 58 324 58 493 c 0
 58 671 199 860 370 860 c 0
 568 860 667 550 667 379 c 0
 667 216 588 101 421 36 c 0
 345 7 258 1 165 1 c 2
 -14 1 l 1
 -14 130 l 1
370 731 m 0
 280 731 186 609 186 496 c 0
 186 384 272 345 377 345 c 0
 428 345 485 354 538 369 c 1
 538 372 538 375 538 379 c 0
 538 515 456 731 370 731 c 0
EndSplineSet
Validated: 513
EndChar

StartChar: dotless-final-FEH
Encoding: 1114125 -1 52
Width: 1837
VWidth: 1600
Flags: HMW
AnchorPoint: "Anchor-5" 1498 1190 basechar 0
AnchorPoint: "Anchor-3" 871 -264 basechar 0
LayerCount: 2
Fore
SplineSet
1847 0 m 2
 1692 0 1587 6 1483 19 c 1
 1379 6 1273 0 1118 0 c 2
 951 0 l 2
 931 0 912 0 892 0 c 0
 679 0 474 2 324 56 c 0
 163 113 90 206 90 346 c 0
 90 415 107 463 124 528 c 1
 248 495 l 1
 235 446 218 393 218 345 c 0
 218 253 278 209 365 179 c 0
 496 135 713 129 951 129 c 2
 1118 129 l 2
 1159 129 1188 130 1224 131 c 1
 1189 173 1171 223 1171 286 c 0
 1171 457 1305 645 1483 645 c 0
 1661 645 1795 457 1795 286 c 0
 1795 223 1777 173 1742 131 c 1
 1778 130 1806 129 1847 129 c 2
 1861 129 l 9
 1861 0 l 1
 1847 0 l 2
1483 516 m 0
 1399 516 1300 398 1300 287 c 0
 1300 177 1388 154 1483 148 c 1
 1578 154 1666 177 1666 287 c 0
 1666 398 1567 516 1483 516 c 0
EndSplineSet
Validated: 513
EndChar

StartChar: dotless-medial-FEH
Encoding: 1114126 -1 53
Width: 729
VWidth: 1600
Flags: HMW
AnchorPoint: "Anchor-5" 369 1146 basechar 0
AnchorPoint: "Anchor-3" 376 -319 basechar 0
LayerCount: 2
Fore
SplineSet
729 0 m 2
 574 0 469 6 365 19 c 1
 261 6 155 0 0 0 c 0
 -6 0 -14 18 -14 43 c 2
 -14 86 l 2
 -14 109 -6 129 0 129 c 3
 41 129 69 130 105 131 c 1
 70 173 52 223 52 286 c 0
 52 457 187 645 365 645 c 0
 543 645 677 457 677 286 c 0
 677 223 659 173 624 131 c 1
 660 130 688 129 729 129 c 2
 743 129 l 1
 743 0 l 1
 729 0 l 2
365 516 m 0
 281 516 181 398 181 287 c 0
 181 177 270 154 365 148 c 1
 460 154 548 177 548 287 c 0
 548 398 449 516 365 516 c 0
EndSplineSet
Validated: 513
EndChar

StartChar: dotless-final-QAF
Encoding: 1114127 -1 54
Width: 1454
VWidth: 1600
Flags: HMW
AnchorPoint: "Anchor-5" 1085 1114 basechar 0
AnchorPoint: "Anchor-3" 681 -857 basechar 0
LayerCount: 2
Fore
SplineSet
686 -580 m 0
 393 -580 90 -412 90 -107 c 0
 90 102 247 326 582 489 c 1
 637 373 l 1
 330 224 219 41 219 -107 c 0
 219 -326 440 -451 686 -451 c 0
 913 -451 1242 -264 1262 0 c 1
 1095 0 l 2
 905 0 780 109 780 278 c 0
 780 456 921 645 1092 645 c 0
 1281 645 1387 362 1397 129 c 1
 1464 129 l 1
 1478 129 l 1
 1478 0 l 1
 1449 0 1420 0 1391 0 c 1
 1337 -400 944 -580 686 -580 c 0
1092 516 m 0
 1002 516 908 394 908 281 c 0
 908 169 994 130 1099 130 c 2
 1263 130 l 1
 1263 141 1263 152 1263 163 c 0
 1263 300 1178 516 1092 516 c 0
EndSplineSet
Validated: 513
EndChar

StartChar: dotless-initial-NOON
Encoding: 1114128 -1 55
Width: 1572
VWidth: 1600
Flags: HMW
AnchorPoint: "Anchor-5" 800 706 basechar 0
AnchorPoint: "Anchor-3" 686 -664 basechar 0
LayerCount: 2
Fore
SplineSet
1403 52 m 1
 1396 -48 1370 -143 1324 -222 c 0
 1198 -441 931 -580 686 -580 c 0
 356 -580 90 -396 90 -107 c 0
 90 110 260 344 623 508 c 1
 676 391 l 1
 340 239 219 47 219 -107 c 0
 219 -307 405 -451 686 -451 c 0
 879 -451 1115 -326 1212 -158 c 0
 1253 -86 1275 9 1275 113 c 0
 1275 213 1255 321 1211 424 c 1
 1196 457 l 1
 1315 508 l 1
 1329 475 l 2
 1361 399 1384 291 1417 224 c 0
 1448 161 1475 129 1582 129 c 2
 1596 129 l 1
 1596 0 l 1
 1582 0 l 2
 1509 0 1450 21 1403 52 c 1
EndSplineSet
Validated: 513
EndChar

StartChar: uniFEFB
Encoding: 65275 65275 58
Width: 878
VWidth: 1600
Flags: HMW
AnchorPoint: "Anchor-4" 127 1364 baselig 1
AnchorPoint: "Anchor-4" 722 1390 baselig 0
AnchorPoint: "Anchor-2" 330 -190 baselig 1
AnchorPoint: "Anchor-2" 677 -195 baselig 0
LayerCount: 2
Fore
SplineSet
238 1234 m 1
 338 861 409 500 422 129 c 1
 462 129 l 2
 575 129 605 156 628 207 c 0
 651 258 659 347 659 449 c 2
 659 1217 l 1
 788 1217 l 1
 788 449 l 2
 788 341 787 245 746 154 c 0
 705 63 606 0 462 0 c 2
 90 0 l 1
 90 129 l 1
 293 129 l 1
 280 485 212 834 114 1200 c 1
 238 1234 l 1
EndSplineSet
Validated: 1
Ligature2: "'rlig' Required Ligatures in Arabic lookup 1 subtable" uniFEDF uniFE8E
EndChar

StartChar: uniFEFC
Encoding: 65276 65276 59
Width: 1035
VWidth: 1600
Flags: HMW
AnchorPoint: "Anchor-4" 130 1364 baselig 1
AnchorPoint: "Anchor-4" 713 1369 baselig 0
AnchorPoint: "Anchor-2" 334 -176 baselig 1
AnchorPoint: "Anchor-2" 727 -175 baselig 0
LayerCount: 2
Fore
SplineSet
1045 0 m 2
 902 0 795 50 737 136 c 1
 691 55 596 0 462 0 c 2
 90 0 l 1
 90 129 l 1
 293 129 l 1
 280 485 212 832 114 1198 c 1
 238 1232 l 1
 338 859 409 500 422 129 c 1
 462 129 l 2
 575 129 605 156 628 207 c 0
 651 258 659 345 659 447 c 2
 659 1215 l 1
 788 1215 l 1
 788 519 l 1
 790 280 809 129 1045 129 c 2
 1059 129 l 1
 1059 0 l 1
 1045 0 l 2
EndSplineSet
Validated: 1
Ligature2: "'rlig' Required Ligatures in Arabic lookup 1 subtable" uniFEE0 uniFE8E
EndChar

StartChar: uni060C
Encoding: 1548 1548 66
Width: 523
VWidth: 1600
Flags: HMW
LayerCount: 2
Fore
SplineSet
273 487 m 1
 330 447 l 1
 169 216 l 1
 427 216 l 1
 431 201 433 186 433 171 c 3
 433 82 360 0 262 0 c 3
 163 0 90 82 90 173 c 3
 90 211 101 240 121 271 c 2
 273 487 l 1
EndSplineSet
Validated: 1
EndChar

StartChar: uni0615
Encoding: 1557 1557 68
Width: 0
VWidth: 1600
Flags: HMW
AnchorPoint: "Anchor-5" 142 1042 mark 0
AnchorPoint: "Anchor-4" 142 1042 mark 0
AnchorPoint: "Anchor-1" 142 1042 mark 0
AnchorPoint: "Anchor-1" 124 1675 basemark 0
LayerCount: 2
Fore
SplineSet
458 1312 m 0
 458 1186 296 1147 176 1147 c 2
 20 1147 l 1
 20 1217 l 1
 96 1217 l 1
 92 1584 l 1
 162 1585 l 1
 165 1296 l 1
 201 1349 255 1425 343 1425 c 0
 407 1425 458 1376 458 1312 c 0
340 1355 m 0
 275 1348 225 1267 201 1218 c 1
 268 1222 388 1244 388 1313 c 0
 388 1338 366 1355 340 1355 c 0
EndSplineSet
Validated: 1
EndChar

StartChar: less
Encoding: 60 60 72
Width: 619
VWidth: 1600
Flags: HMW
LayerCount: 2
Fore
SplineSet
438 876 m 1
 529 785 l 1
 272 528 l 1
 529 272 l 1
 438 180 l 1
 90 528 l 1
 438 876 l 1
EndSplineSet
Validated: 1
EndChar

StartChar: equal
Encoding: 61 61 73
Width: 696
VWidth: 1600
Flags: HMW
LayerCount: 2
Fore
SplineSet
90 560 m 1
 606 560 l 1
 606 431 l 1
 90 431 l 1
 90 560 l 1
90 302 m 1
 606 302 l 1
 606 174 l 1
 90 174 l 1
 90 302 l 1
EndSplineSet
Validated: 1
EndChar

StartChar: underscore
Encoding: 95 95 75
Width: 696
VWidth: 1600
Flags: HMW
LayerCount: 2
Fore
SplineSet
698 0 m 1
 -2 0 l 1
 -2 129 l 1
 698 129 l 1
 698 0 l 1
EndSplineSet
Validated: 1
EndChar

StartChar: braceleft
Encoding: 123 123 76
Width: 449
VWidth: 1600
Flags: HMW
LayerCount: 2
Fore
SplineSet
90 637 m 1
 135 678 193 721 193 806 c 3
 193 879 161 963 161 1046 c 3
 161 1171 234 1256 324 1272 c 1
 359 1148 l 1
 324 1138 292 1122 292 1044 c 3
 292 965 322 884 322 799 c 3
 322 736 306 670 268 637 c 1
 306 604 322 538 322 475 c 3
 322 390 292 309 292 230 c 3
 292 152 324 136 359 126 c 1
 324 2 l 1
 234 18 161 103 161 228 c 3
 161 311 193 395 193 468 c 3
 193 553 135 596 90 637 c 1
EndSplineSet
Validated: 1
EndChar

StartChar: uni061F
Encoding: 1567 1567 80
Width: 930
VWidth: 1600
Flags: HMW
LayerCount: 2
Fore
SplineSet
463 1217 m 0
 686 1217 840 1039 840 841 c 1
 711 841 l 1
 711 971 610 1088 464 1088 c 0
 339 1088 219 990 219 841 c 0
 219 755 264 673 342 628 c 0
 458 561 529 436 529 302 c 1
 401 302 l 1
 401 390 353 472 277 516 c 0
 158 585 90 711 90 842 c 0
 90 1068 275 1216 463 1217 c 0
EndSplineSet
Refer: 0 46 N 1 0 0 1 295 0 2
Validated: 1
EndChar

StartChar: uni0621
Encoding: 1569 1569 81
Width: 668
VWidth: 1600
Flags: HMW
AnchorPoint: "Anchor-5" 321 865 basechar 0
AnchorPoint: "Anchor-3" 337 -88 basechar 0
LayerCount: 2
Fore
SplineSet
362 645 m 3
 388 645 414 641 443 634 c 1
 409 510 l 1
 392 515 375 517 360 517 c 3
 275 517 219 450 219 365 c 3
 219 314 260 296 338 296 c 3
 403 296 479 315 514 336 c 1
 578 224 l 1
 186 0 l 1
 122 112 l 1
 241 180 l 1
 162 204 90 268 90 365 c 3
 90 517 201 645 362 645 c 3
EndSplineSet
Validated: 1
EndChar

StartChar: uni0627
Encoding: 1575 1575 82
Width: 309
VWidth: 1600
Flags: HMW
AnchorPoint: "Anchor-5" 155 1354 basechar 0
AnchorPoint: "Anchor-3" 160 -130 basechar 0
LayerCount: 2
Fore
SplineSet
90 1217 m 1
 219 1217 l 1
 219 0 l 1
 90 0 l 1
 90 1217 l 1
EndSplineSet
Validated: 1
PairPos2: "'kern' Horizontal Kerning lookup 6 subtable 3" uni063A dx=-293 dy=0 dh=-293 dv=0 dx=0 dy=0 dh=0 dv=0
PairPos2: "'kern' Horizontal Kerning lookup 6 subtable 3" uni0639 dx=-293 dy=0 dh=-293 dv=0 dx=0 dy=0 dh=0 dv=0
Substitution2: "'medi' Medial Forms in Arabic lookup 1 subtable" uniFE8E
Substitution2: "'fina' Terminal Forms in Arabic lookup 1 subtable" uniFE8E
EndChar

StartChar: uni062D
Encoding: 1581 1581 83
Width: 1258
VWidth: 1600
Flags: HMW
AnchorPoint: "Anchor-5" 435 934 basechar 0
AnchorPoint: "Anchor-3" 647 -1229 basechar 0
LayerCount: 2
Fore
SplineSet
437 644 m 0
 637 644 895 545 1062 512 c 1
 1067 392 l 1
 794 270 218 6 218 -391 c 0
 218 -628 437 -741 656 -741 c 0
 826 -741 965 -673 1069 -542 c 1
 1168 -625 l 1
 1030 -789 879 -870 656 -870 c 0
 411 -870 90 -737 90 -394 c 0
 90 17 568 293 848 434 c 1
 728 459 574 515 437 515 c 0
 352 515 271 457 271 373 c 0
 271 334 295 291 319 256 c 1
 212 185 l 1
 173 244 150 294 144 373 c 1
 146 533 281 644 437 644 c 0
EndSplineSet
Validated: 1
Substitution2: "'init' Initial Forms in Arabic lookup 1 subtable" uniFEA3
Substitution2: "'medi' Medial Forms in Arabic lookup 1 subtable" uniFEA4
Substitution2: "'fina' Terminal Forms in Arabic lookup 1 subtable" uniFEA2
EndChar

StartChar: uni062F
Encoding: 1583 1583 84
Width: 844
VWidth: 1600
Flags: HMW
AnchorPoint: "Anchor-5" 403 1036 basechar 0
AnchorPoint: "Anchor-3" 430 -277 basechar 0
LayerCount: 2
Fore
SplineSet
412 818 m 1
 565 663 754 456 754 234 c 0
 754 46 548 -26 323 -26 c 0
 245 -26 165 -17 90 -2 c 1
 90 137 l 1
 158 116 243 106 324 106 c 0
 480 106 625 145 625 231 c 0
 625 400 455 590 320 728 c 1
 412 818 l 1
EndSplineSet
Validated: 1
PairPos2: "'kern' Horizontal Kerning lookup 6 subtable 3" uni063A dx=-457 dy=0 dh=-457 dv=0 dx=0 dy=0 dh=0 dv=0
PairPos2: "'kern' Horizontal Kerning lookup 6 subtable 3" uni0639 dx=-457 dy=0 dh=-457 dv=0 dx=0 dy=0 dh=0 dv=0
Substitution2: "'fina' Terminal Forms in Arabic lookup 1 subtable" uniFEAA
EndChar

StartChar: uni0631
Encoding: 1585 1585 85
Width: 481
VWidth: 1600
Flags: HMW
AnchorPoint: "Anchor-3" 139 -682 basechar 0
AnchorPoint: "Anchor-5" 254 694 basechar 0
LayerCount: 2
Fore
SplineSet
318 475 m 1
 360 377 391 253 391 134 c 0
 391 -175 187 -391 -124 -512 c 1
 -170 -391 l 1
 68 -297 263 -137 263 130 c 0
 263 229 238 326 200 424 c 1
 318 475 l 1
EndSplineSet
Validated: 1
PairPos2: "'kern' Horizontal Kerning lookup 6 subtable 4" uniE004 dx=200 dy=0 dh=200 dv=0 dx=0 dy=0 dh=0 dv=0
PairPos2: "'kern' Horizontal Kerning lookup 6 subtable 4" uniE002 dx=200 dy=0 dh=200 dv=0 dx=0 dy=0 dh=0 dv=0
PairPos2: "'kern' Horizontal Kerning lookup 6 subtable 4" uniE000 dx=100 dy=0 dh=100 dv=0 dx=0 dy=0 dh=0 dv=0
PairPos2: "'kern' Horizontal Kerning lookup 6 subtable 1" uni062D dx=-281 dy=0 dh=-281 dv=0 dx=0 dy=0 dh=0 dv=0
PairPos2: "'kern' Horizontal Kerning lookup 6 subtable 1" uni063A dx=-280 dy=0 dh=-280 dv=0 dx=0 dy=0 dh=0 dv=0
PairPos2: "'kern' Horizontal Kerning lookup 6 subtable 1" uni0639 dx=-280 dy=0 dh=-280 dv=0 dx=0 dy=0 dh=0 dv=0
PairPos2: "'kern' Horizontal Kerning lookup 6 subtable 1" uni06CC dx=120 dy=0 dh=120 dv=0 dx=0 dy=0 dh=0 dv=0
PairPos2: "'kern' Horizontal Kerning lookup 6 subtable 1" uni0644 dx=120 dy=0 dh=120 dv=0 dx=0 dy=0 dh=0 dv=0
PairPos2: "'kern' Horizontal Kerning lookup 6 subtable 1" uni0649 dx=120 dy=0 dh=120 dv=0 dx=0 dy=0 dh=0 dv=0
Substitution2: "'fina' Terminal Forms in Arabic lookup 1 subtable" uniFEAE
EndChar

StartChar: uni0633
Encoding: 1587 1587 86
Width: 2500
VWidth: 1600
Flags: HMW
AnchorPoint: "Anchor-5" 1838 801 basechar 0
AnchorPoint: "Anchor-3" 681 -865 basechar 0
LayerCount: 2
Back
Refer: 126 65203 N 1 0 0 1 996 0 2
Refer: 126 65203 N 1 0 0 1 996 0 2
Fore
SplineSet
1897.87988281 247 m 1
 1916.80845791 171.494263079 1963.55469963 129 2079 129 c 3
 2204 129 2266 220 2266 323 c 0
 2266 387 2250 496 2227 550 c 1
 2347 597 l 1
 2374 525 2392 406 2392 331 c 0
 2392 155 2287 0 2080 0 c 3
 1959 0 1871 47 1821 115 c 1
 1771 47 1683 0 1562 0 c 0
 1509 0 1450 21 1403 52 c 1
 1396 -48 1370 -143 1324 -222 c 0
 1198 -441 931 -580 686 -580 c 0
 356 -580 90 -396 90 -107 c 0
 90 110 260 344 623 508 c 1
 676 391 l 1
 340 239 219 47 219 -107 c 0
 219 -307 405 -451 686 -451 c 0
 879 -451 1115 -326 1212 -158 c 0
 1253 -86 1275 9 1275 113 c 0
 1275 246 1224 392 1176 507 c 1
 1295 558 l 1
 1336 459 1369 318 1417 224 c 0
 1448 161 1495 129 1562 129 c 0
 1677.44530037 129 1724.54566095 171.494263079 1743.76074219 247 c 1
 1756.8359375 298.377929688 1757 365.040379235 1757 444 c 0
 1757 550 l 1
 1885 550 l 1
 1885 444 l 0
 1885 365.040379235 1885 298.377929688 1897.87988281 247 c 1
EndSplineSet
Substitution2: "'init' Initial Forms in Arabic lookup 1 subtable" uniFEB3
Substitution2: "'medi' Medial Forms in Arabic lookup 1 subtable" uniFEB4
Substitution2: "'fina' Terminal Forms in Arabic lookup 1 subtable" uniFEB2
EndChar

StartChar: uni0635
Encoding: 1589 1589 87
Width: 2327
VWidth: 1600
Flags: HMW
AnchorPoint: "Anchor-5" 1968 920 basechar 0
AnchorPoint: "Anchor-3" 679 -849 basechar 0
LayerCount: 2
Fore
SplineSet
1404 76 m 1
 1404 76 1403 64 1402 52 c 0
 1394 -48 1370 -142 1324 -222 c 0
 1198 -441 931 -580 686 -580 c 3
 356 -580 90 -396 90 -107 c 3
 90 110 260 344 623 508 c 1
 676 391 l 1
 340 239 219 47 219 -107 c 3
 219 -307 405 -451 686 -451 c 3
 879 -451 1115 -325 1212 -157 c 0
 1253 -85 1276 9 1276 113 c 3
 1276 213 1255 321 1211 424 c 1
 1329 475 l 1
 1364 393 1387 307 1398 224 c 1
 1423 209 1448 196 1473 184 c 1
 1568 386 1756 644 1973 644 c 3
 2128 644 2237 512 2237 378 c 3
 2237 142 2022 0 1698 0 c 3
 1591 0 1492 33 1404 76 c 1
1973 515 m 3
 1828 515 1658 279 1594 141 c 1
 1627 133 1665 129 1698 129 c 3
 1973 129 2108 237 2108 378 c 3
 2108 446 2057 515 1973 515 c 3
EndSplineSet
Validated: 1
Substitution2: "'init' Initial Forms in Arabic lookup 1 subtable" uniFEBB
Substitution2: "'medi' Medial Forms in Arabic lookup 1 subtable" uniFEBC
Substitution2: "'fina' Terminal Forms in Arabic lookup 1 subtable" uniFEBA
EndChar

StartChar: uni0637
Encoding: 1591 1591 88
Width: 1174
VWidth: 1600
Flags: HMW
AnchorPoint: "Anchor-5" 817 1043 basechar 0
AnchorPoint: "Anchor-3" 542 -237 basechar 0
LayerCount: 2
Fore
SplineSet
382 300 m 1
 469 445 627 645 820 645 c 0
 976 645 1084 514 1084 379 c 0
 1084 262 1010 155 910 91 c 0
 810 27 623 0 487 0 c 2
 90 0 l 1
 90 127 l 1
 253 127 l 1
 253 1217 l 1
 382 1217 l 1
 382 300 l 1
820 516 m 0
 753 516 665 458 588 368 c 0
 525 294 474 203 439 127 c 1
 609 127 735 131 841 199 c 0
 916 247 955 316 955 379 c 0
 955 447 904 516 820 516 c 0
EndSplineSet
Validated: 1
Substitution2: "'init' Initial Forms in Arabic lookup 1 subtable" uniFEC3
Substitution2: "'medi' Medial Forms in Arabic lookup 1 subtable" uniFEC4
Substitution2: "'fina' Terminal Forms in Arabic lookup 1 subtable" uniFEC2
EndChar

StartChar: uni0639
Encoding: 1593 1593 89
Width: 1224
VWidth: 1600
Flags: HMW
AnchorPoint: "Anchor-5" 572 1196 basechar 0
AnchorPoint: "Anchor-3" 716 -1065 basechar 0
LayerCount: 2
Fore
SplineSet
593.094726562 910.133789062 m 0
 646.482421875 910.133789062 694.158203125 905.094726562 745 889 c 1
 720 762 l 1
 678.796875 777 640.745117188 780.78125 597.172851562 780.78125 c 0
 423.588867188 780.78125 291 633.880859375 291 508 c 0
 291 471 303 451 328 431 c 0
 353 411 396 393 450 385 c 0
 476.01953125 381.145507812 504.411132812 379.250976562 534.248046875 379.250976562 c 0
 626.721679688 379.250976562 768.40625 414.45703125 836 435 c 1
 877 312 l 1
 812.796875 297 758.796875 279 701 259 c 1
 528 196 388 89 305 -40 c 0
 249.469726562 -126.306640625 218.110351562 -222.461914062 218.110351562 -326.068359375 c 0
 218.110351562 -377.318359375 225.783203125 -430.392578125 242 -485 c 0
 266 -565 325 -627 411 -672 c 0
 497 -717 606 -741 717 -741 c 0
 855.920898438 -741 975.428710938 -697.01953125 1076 -645 c 1
 1134 -760 l 1
 1013.96679688 -821.069335938 871.078125 -870 717 -870 c 0
 588 -870 459 -844 351 -787 c 0
 243 -730 153 -641 118 -522 c 0
 98.83203125 -457.0234375 89.796875 -392.57421875 89.796875 -329.78515625 c 0
 89.796875 -199.306640625 128.813476562 -75.9931640625 197 30 c 0
 254 119 330 196 421 259 c 1
 355 270 295 291 247 330 c 0
 196 371 162 436 162 508 c 0
 162 715.860351562 353.180664062 910.133789062 593.094726562 910.133789062 c 0
EndSplineSet
Validated: 1
Substitution2: "'init' Initial Forms in Arabic lookup 1 subtable" uniFECB
Substitution2: "'medi' Medial Forms in Arabic lookup 1 subtable" uniFECC
Substitution2: "'fina' Terminal Forms in Arabic lookup 1 subtable" uniFECA
EndChar

StartChar: uni0640
Encoding: 1600 1600 90
Width: 488
VWidth: 1600
Flags: HMW
AnchorPoint: "Anchor-5" 115 1035 basechar 0
AnchorPoint: "Anchor-3" 109 -643 basechar 0
LayerCount: 2
Fore
SplineSet
502 0 m 1
 -14 0 l 1
 -14 129 l 1
 502 129 l 1
 502 0 l 1
EndSplineSet
Validated: 1
EndChar

StartChar: uni0644
Encoding: 1604 1604 91
Width: 1484
VWidth: 1600
Flags: HMW
AnchorPoint: "Anchor-5" 612 782 basechar 0
AnchorPoint: "Anchor-3" 686 -810 basechar 0
LayerCount: 2
Fore
SplineSet
1266 1217 m 1
 1394 1217 l 1
 1394 25 l 2
 1394 -329 1003 -580 686 -580 c 0
 393 -580 90 -412 90 -107 c 0
 90 110 260 344 623 508 c 1
 676 391 l 1
 340 239 219 47 219 -107 c 0
 219 -326 440 -451 686 -451 c 0
 920 -451 1266 -253 1266 25 c 2
 1266 1217 l 1
EndSplineSet
Validated: 1
Substitution2: "'init' Initial Forms in Arabic lookup 1 subtable" uniFEDF
Substitution2: "'medi' Medial Forms in Arabic lookup 1 subtable" uniFEE0
Substitution2: "'fina' Terminal Forms in Arabic lookup 1 subtable" uniFEDE
EndChar

StartChar: uni0645
Encoding: 1605 1605 92
Width: 1076
Flags: HMW
AnchorPoint: "Anchor-5" 659 898 basechar 0
AnchorPoint: "Anchor-3" 664 -415 basechar 0
LayerCount: 2
Fore
SplineSet
668 618 m 0
 758 618 838 570 894 504 c 0
 950 438 986 350 986 258 c 0
 986 202 972 138 928 86 c 0
 884 34 812 0 720 0 c 0
 608 0 496 18 410 18 c 0
 339 18 288 5 258 -34 c 0
 236 -62 218 -110 218 -198 c 0
 220 -842 l 1
 90 -842 l 1
 90 -196 l 1
 90 -92 112 -12 156 46 c 0
 198 102 280 144 342 144 c 1
 356 246 l 2
 372 360 408 452 462 516 c 0
 516 580 592 618 668 618 c 0
668 490 m 0
 632 490 596 476 562 434 c 0
 528 392 498 324 484 228 c 2
 472 148 l 1
 556 144 644 130 720 130 c 0
 784 130 812 148 830 170 c 0
 848 192 856 224 856 258 c 0
 856 316 832 376 794 420 c 0
 756 464 710 490 668 490 c 0
EndSplineSet
Validated: 1
Substitution2: "'init' Initial Forms in Arabic lookup 1 subtable" uniFEE3
Substitution2: "'medi' Medial Forms in Arabic lookup 1 subtable" uniFEE4
Substitution2: "'fina' Terminal Forms in Arabic lookup 1 subtable" uniFEE2
EndChar

StartChar: uni0647
Encoding: 1607 1607 93
Width: 759
VWidth: 1600
Flags: HMW
AnchorPoint: "Anchor-5" 367 995 basechar 0
AnchorPoint: "Anchor-3" 377 -221 basechar 0
LayerCount: 2
Fore
SplineSet
277 758 m 1
 462 672 669 482 669 258 c 0
 669 93 551 0 379 0 c 0
 207 0 90 93 90 258 c 0
 90 388 166 529 266 618 c 1
 215 645 l 1
 277 758 l 1
379 543 m 1
 307 471 219 367 219 258 c 0
 219 177 273 129 379 129 c 0
 485 129 540 177 540 258 c 0
 540 367 451 471 379 543 c 1
EndSplineSet
Validated: 1
Substitution2: "'init' Initial Forms in Arabic lookup 1 subtable" uniFEEB
Substitution2: "'medi' Medial Forms in Arabic lookup 1 subtable" uniFEEC
Substitution2: "'fina' Terminal Forms in Arabic lookup 1 subtable" uniFEEA
EndChar

StartChar: uni0648
Encoding: 1608 1608 94
Width: 785
VWidth: 1600
Flags: HMW
AnchorPoint: "Anchor-5" 408 890 basechar 0
AnchorPoint: "Anchor-3" 378 -704 basechar 0
LayerCount: 2
Fore
SplineSet
403 645 m 0
 611 645 695 325 695 134 c 0
 695 -175 491 -391 180 -512 c 1
 134 -391 l 1
 338 -311 509 -182 555 20 c 1
 503 8 462 0 405 0 c 0
 215 0 90 109 90 278 c 0
 90 456 232 645 403 645 c 0
403 516 m 0
 313 516 219 394 219 281 c 0
 219 169 304 130 409 130 c 0
 459 130 514 139 566 153 c 1
 559 303 496 516 403 516 c 0
EndSplineSet
Validated: 1
PairPos2: "'kern' Horizontal Kerning lookup 6 subtable 3" uni063A dx=-299 dy=0 dh=-299 dv=0 dx=0 dy=0 dh=0 dv=0
PairPos2: "'kern' Horizontal Kerning lookup 6 subtable 3" uni0639 dx=-299 dy=0 dh=-299 dv=0 dx=0 dy=0 dh=0 dv=0
Substitution2: "'fina' Terminal Forms in Arabic lookup 1 subtable" uniFEEE
EndChar

StartChar: uni065A
Encoding: 1626 1626 96
Width: 0
VWidth: 1600
Flags: HMW
AnchorPoint: "Anchor-5" 242 1271 mark 0
AnchorPoint: "Anchor-4" 242 1271 mark 0
AnchorPoint: "Anchor-1" 242 1271 mark 0
AnchorPoint: "Anchor-1" 250 1637 basemark 0
LayerCount: 2
Fore
SplineSet
273 1309 m 1
 216 1309 l 1
 20 1589 l 1
 77 1629 l 1
 244 1390 l 1
 412 1629 l 1
 469 1589 l 1
 273 1309 l 1
EndSplineSet
Validated: 1
EndChar

StartChar: uni066A
Encoding: 1642 1642 97
Width: 1210
VWidth: 1600
Flags: HMW
LayerCount: 2
Fore
SplineSet
328 1260 m 0
 459 1260 566 1153 566 1022 c 0
 566 891 459 784 328 784 c 0
 197 784 90 891 90 1022 c 0
 90 1153 197 1260 328 1260 c 0
804 1242 m 1
 923 1192 l 1
 406 -25 l 1
 287 25 l 1
 804 1242 l 1
328 1131 m 0
 267 1131 219 1083 219 1022 c 0
 219 961 267 913 328 913 c 0
 389 913 437 961 437 1022 c 0
 437 1083 389 1131 328 1131 c 0
882 433 m 0
 1013 433 1120 326 1120 195 c 0
 1120 64 1013 -43 882 -43 c 0
 751 -43 644 64 644 195 c 0
 644 326 751 433 882 433 c 0
882 304 m 0
 821 304 773 256 773 195 c 0
 773 134 821 86 882 86 c 0
 943 86 991 134 991 195 c 0
 991 256 943 304 882 304 c 0
EndSplineSet
Validated: 1
EndChar

StartChar: uni066D
Encoding: 1645 1645 99
Width: 786
VWidth: 1600
Flags: HMW
LayerCount: 2
Fore
SplineSet
358 948 m 1
 428 948 l 1
 428 730 l 1
 583 884 l 1
 632 835 l 1
 478 680 l 1
 696 680 l 1
 696 610 l 1
 478 610 l 1
 632 456 l 1
 583 406 l 1
 428 561 l 1
 428 342 l 1
 358 342 l 1
 358 561 l 1
 204 406 l 1
 154 456 l 1
 309 610 l 1
 90 610 l 1
 90 680 l 1
 309 680 l 1
 154 835 l 1
 204 884 l 1
 358 730 l 1
 358 948 l 1
EndSplineSet
Validated: 1
EndChar

StartChar: uni066E
Encoding: 1646 1646 100
Width: 1903
VWidth: 1600
Flags: HMW
AnchorPoint: "Anchor-5" 956 742 basechar 0
AnchorPoint: "Anchor-3" 954 -416 basechar 0
LayerCount: 2
Fore
SplineSet
124 528 m 1
 248 495 l 1
 235 446 218 393 218 345 c 0
 218 253 278 209 365 179 c 0
 496 135 713 129 951 129 c 0
 1189 129 1407 135 1538 179 c 0
 1625 209 1684 253 1684 345 c 0
 1684 393 1667 446 1654 495 c 1
 1779 528 l 1
 1796 463 1813 415 1813 346 c 0
 1813 206 1740 113 1579 56 c 0
 1429 2 1231 0 1017 0 c 2
 885 0 l 2
 671 0 474 2 324 56 c 0
 163 113 90 206 90 346 c 0
 90 415 107 463 124 528 c 1
EndSplineSet
Validated: 1
Substitution2: "'fina' Terminal Forms in Arabic lookup 1 subtable" dotless-final-BEH
Substitution2: "'medi' Medial Forms in Arabic lookup 1 subtable" uniFBE9
Substitution2: "'init' Initial Forms in Arabic lookup 1 subtable" uniFBE8
EndChar

StartChar: uni066F
Encoding: 1647 1647 101
Width: 1488
VWidth: 1600
Flags: HMW
AnchorPoint: "Anchor-5" 1100 971 basechar 0
AnchorPoint: "Anchor-3" 682 -858 basechar 0
LayerCount: 2
Fore
SplineSet
637 373 m 1
 330 224 219 41 219 -107 c 0
 219 -326 440 -451 686 -451 c 0
 920 -451 1266 -253 1266 25 c 1
 1210 12 l 1
 1170 4 1131 0 1095 0 c 0
 905 0 780 109 780 278 c 0
 780 456 921 645 1092 645 c 0
 1290 645 1398 333 1398 95 c 0
 1398 -372 964 -580 686 -580 c 0
 393 -580 90 -412 90 -107 c 0
 90 102 247 326 582 489 c 1
 637 373 l 1
1092 516 m 0
 1002 516 908 394 908 281 c 0
 908 169 994 130 1099 130 c 0
 1150 130 1207 139 1260 154 c 1
 1260 157 1260 161 1260 164 c 0
 1260 301 1178 516 1092 516 c 0
EndSplineSet
Validated: 1
Substitution2: "'init' Initial Forms in Arabic lookup 1 subtable" dotless-initial-FEH
Substitution2: "'medi' Medial Forms in Arabic lookup 1 subtable" dotless-medial-FEH
Substitution2: "'fina' Terminal Forms in Arabic lookup 1 subtable" dotless-final-QAF
EndChar

StartChar: uni0670
Encoding: 1648 1648 102
Width: 0
VWidth: 1600
Flags: HMW
AnchorPoint: "Anchor-5" 52 1235 mark 0
AnchorPoint: "Anchor-4" 52 1235 mark 0
AnchorPoint: "Anchor-1" 52 1235 mark 0
AnchorPoint: "Anchor-1" 54 1751 basemark 0
LayerCount: 2
Fore
SplineSet
20 1686 m 1
 90 1686 l 1
 90 1298 l 1
 20 1298 l 1
 20 1686 l 1
EndSplineSet
Validated: 1
EndChar

StartChar: uni06A1
Encoding: 1697 1697 103
Width: 1937
VWidth: 1600
Flags: HMW
AnchorPoint: "Anchor-5" 1550 1184 basechar 0
AnchorPoint: "Anchor-3" 951 -300 basechar 0
LayerCount: 2
Fore
SplineSet
1601 62 m 0
 1453 5 1259 0 1067 0 c 2
 885 0 l 2
 671 0 474 2 324 56 c 0
 163 113 90 206 90 346 c 0
 90 415 107 463 124 528 c 1
 248 495 l 1
 235 446 218 393 218 345 c 0
 218 253 278 209 365 179 c 0
 496 135 713 129 951 129 c 2
 976 129 l 2
 1197 129 1419 130 1556 182 c 0
 1606 201 1642 225 1668 255 c 1
 1628 247 1589 243 1553 243 c 0
 1363 243 1238 352 1238 521 c 0
 1238 699 1380 888 1551 888 c 0
 1749 888 1847 578 1847 407 c 0
 1847 244 1768 127 1601 62 c 0
1551 759 m 0
 1461 759 1367 637 1367 524 c 0
 1367 412 1452 373 1557 373 c 0
 1608 373 1665 382 1718 397 c 1
 1718 400 1718 404 1718 407 c 0
 1718 544 1637 759 1551 759 c 0
EndSplineSet
Validated: 1
Substitution2: "'init' Initial Forms in Arabic lookup 1 subtable" dotless-initial-FEH
Substitution2: "'medi' Medial Forms in Arabic lookup 1 subtable" dotless-medial-FEH
Substitution2: "'fina' Terminal Forms in Arabic lookup 1 subtable" dotless-final-FEH
EndChar

StartChar: uni06A9
Encoding: 1705 1705 104
Width: 1627
VWidth: 1600
Flags: HMW
AnchorPoint: "Anchor-5" 673 1192 basechar 0
AnchorPoint: "Anchor-3" 808 -364 basechar 0
LayerCount: 2
Fore
SplineSet
815 0 m 1
 628 1 457 8 324 56 c 0
 163 113 90 206 90 346 c 0
 90 415 107 463 124 528 c 1
 248 495 l 1
 235 446 218 393 218 345 c 0
 218 253 278 209 365 179 c 0
 496 135 713 129 951 129 c 2
 1199 129 l 0
 1340 129 1408 186 1408 305 c 0
 1408 432 1199 525 1018 618 c 1
 822 714 l 1
 822 887 l 1
 1537 1348 l 1
 1537 1194 l 1
 935 805 l 1
 1073 734 l 2
 1288 624 1537 514 1537 305 c 0
 1537 99 1402 0 1199 0 c 0
 815 0 l 1
EndSplineSet
Validated: 1
Substitution2: "'init' Initial Forms in Arabic lookup 1 subtable" uniFB90
Substitution2: "'medi' Medial Forms in Arabic lookup 1 subtable" uniFB91
Substitution2: "'fina' Terminal Forms in Arabic lookup 1 subtable" uniFB8F
EndChar

StartChar: uni06BA
Encoding: 1722 1722 105
Width: 1496
VWidth: 1600
Flags: HMW
AnchorPoint: "Anchor-5" 786 745 basechar 0
AnchorPoint: "Anchor-3" 687 -831 basechar 0
LayerCount: 2
Fore
SplineSet
623 508 m 1
 676 391 l 1
 340 239 219 47 219 -107 c 0
 219 -307 405 -451 686 -451 c 0
 879 -451 1115 -326 1212 -158 c 0
 1253 -86 1275 9 1275 113 c 0
 1275 213 1255 321 1211 424 c 1
 1196 457 l 1
 1315 508 l 1
 1329 475 l 2
 1380 355 1406 230 1406 111 c 0
 1406 -11 1379 -127 1324 -222 c 0
 1198 -441 931 -580 686 -580 c 0
 356 -580 90 -396 90 -107 c 0
 90 110 260 344 623 508 c 1
EndSplineSet
Validated: 1
Substitution2: "'init' Initial Forms in Arabic lookup 1 subtable" uniFBE8
Substitution2: "'medi' Medial Forms in Arabic lookup 1 subtable" uniFBE9
Substitution2: "'fina' Terminal Forms in Arabic lookup 1 subtable" dotless-initial-NOON
EndChar

StartChar: uni06CC
Encoding: 1740 1740 106
Width: 1376
VWidth: 1600
Flags: HMW
AnchorPoint: "Anchor-5" 476 665 basechar 0
AnchorPoint: "Anchor-3" 689 -736 basechar 0
LayerCount: 2
Fore
SplineSet
425 310 m 1
 277 193 219 68 219 -39 c 0
 219 -239 405 -383 686 -383 c 0
 852 -383 973 -339 1049 -275 c 0
 1122 -213 1158 -136 1158 -48 c 0
 1158 15 1142 43 1118 63 c 0
 1095 82 1057 96 1007 105 c 0
 907 124 767 118 664 209 c 0
 623 246 605 298 605 350 c 0
 605 369 607 389 612 407 c 0
 629 474 671 537 725 592 c 0
 807 675 925 742 1051 745 c 0
 1120 745 1182 736 1241 702 c 1
 1198 581 l 1
 1152 607 1111 616 1056 616 c 0
 928 616 765 491 737 375 c 0
 734 362 732 353 732 344 c 0
 732 327 738 317 750 306 c 0
 800 261 913 254 1030 232 c 0
 1088 221 1149 205 1200 163 c 0
 1254 119 1286 46 1286 -46 c 0
 1286 -171 1231 -290 1131 -374 c 0
 1027 -461 875 -512 686 -512 c 0
 356 -512 90 -328 90 -39 c 0
 90 111 172 268 342 406 c 1
 425 310 l 1
EndSplineSet
Validated: 1
Substitution2: "'init' Initial Forms in Arabic lookup 1 subtable" uniFEF3
Substitution2: "'medi' Medial Forms in Arabic lookup 1 subtable" uniFEF4
Substitution2: "'fina' Terminal Forms in Arabic lookup 1 subtable" uniFBFD
EndChar

StartChar: uniFBE8
Encoding: 64488 64488 110
Width: 473
VWidth: 1600
Flags: HMW
AnchorPoint: "Anchor-5" 202 864 basechar 0
AnchorPoint: "Anchor-3" 202 -225 basechar 0
LayerCount: 2
Fore
SplineSet
0 0 m 2
 -14 0 l 1
 -14 129 l 1
 0 129 l 2
 68 129 160 142 208 194 c 0
 234 222 254 267 254 338 c 0
 254 401 239 487 198 600 c 1
 319 644 l 1
 364 522 384 421 384 338 c 0
 384 237 352 160 303 107 c 0
 213 9 81 0 0 0 c 2
EndSplineSet
Validated: 1
EndChar

StartChar: uniFBE9
Encoding: 64489 64489 111
Width: 558
VWidth: 1600
Flags: HMW
AnchorPoint: "Anchor-5" 297 722 basechar 0
AnchorPoint: "Anchor-3" 274 -211 basechar 0
LayerCount: 2
Fore
SplineSet
380.577148438 232 m 1
 402.204101562 165.889648438 450.436294716 129 558 129 c 2
 572 129 l 1
 572 0 l 1
 558 0 l 2
 437 0 349 47 299 115 c 1
 249 47 161 0 40 0 c 2
 -14 0 l 1
 -14 129 l 1
 40 129 l 2
 147.563705284 129 195.795898438 165.889648438 217.422851562 232 c 1
 234.801487059 285.124785315 235 357.118157373 235 444 c 2
 235 508 l 1
 363 508 l 1
 363 444 l 2
 363 357.118157373 363.198512941 285.124785315 380.577148438 232 c 1
EndSplineSet
EndChar

StartChar: uniFBFD
Encoding: 64509 64509 112
Width: 1339
VWidth: 1600
Flags: HMW
AnchorPoint: "Anchor-5" 928 628 basechar 0
AnchorPoint: "Anchor-3" 683 -858 basechar 0
LayerCount: 2
Fore
SplineSet
1363 0 m 1
 1266 0 l 1
 1299 -43 1319 -97 1319 -157 c 0
 1319 -437 964 -580 686 -580 c 0
 398 -580 90 -417 90 -107 c 0
 90 110 260 344 623 508 c 1
 676 391 l 1
 340 239 219 47 219 -107 c 0
 219 -317 424 -451 686 -451 c 0
 874 -451 1191 -365 1191 -157 c 0
 1191 -41 1051 0 942 0 c 1
 942 129 l 1
 1363 129 l 1
 1363 0 l 1
EndSplineSet
Validated: 1
EndChar

StartChar: uniFE71
Encoding: 65137 65137 113
Width: 856
VWidth: 1600
Flags: HMW
AnchorPoint: "Anchor-5" 370 1901 basechar 0
AnchorPoint: "Anchor-3" 430 -280 basechar 0
LayerCount: 2
Fore
SplineSet
-4 129 m 1
 861 129 l 1
 861 0 l 1
 -4 0 l 1
 -4 129 l 1
EndSplineSet
Refer: 33 1614 N 1 0 0 1 257 0 2
Refer: 33 1614 N 1 0 0 1 166 109 2
Validated: 1
Ligature2: "'liga' Standard Ligatures in Arabic lookup 5 subtable" uni0640 uni064B
EndChar

StartChar: uniFE77
Encoding: 65143 65143 114
Width: 856
VWidth: 1600
Flags: HMW
AnchorPoint: "Anchor-5" 370 1633 basechar 0
AnchorPoint: "Anchor-3" 426 -308 basechar 0
LayerCount: 2
Fore
SplineSet
-4 129 m 1
 861 129 l 1
 861 0 l 1
 -4 0 l 1
 -4 129 l 1
EndSplineSet
Refer: 33 1614 S 1 0 0 1 211 0 2
Validated: 1
Ligature2: "'liga' Standard Ligatures in Arabic lookup 5 subtable" uni0640 uni064E
EndChar

StartChar: uniFE79
Encoding: 65145 65145 115
Width: 856
VWidth: 1600
Flags: HMW
AnchorPoint: "Anchor-5" 424 1898 basechar 0
AnchorPoint: "Anchor-3" 405 -297 basechar 0
LayerCount: 2
Fore
SplineSet
-4 129 m 1
 861 129 l 1
 861 0 l 1
 -4 0 l 1
 -4 129 l 1
EndSplineSet
Refer: 34 1615 N 1 0 0 1 241 0 2
Validated: 1
Ligature2: "'liga' Standard Ligatures in Arabic lookup 5 subtable" uni0640 uni064F
EndChar

StartChar: uniFE7B
Encoding: 65147 65147 116
Width: 856
VWidth: 1600
Flags: HMW
AnchorPoint: "Anchor-5" 398 1336 basechar 0
AnchorPoint: "Anchor-3" 386 -714 basechar 0
LayerCount: 2
Fore
SplineSet
-4 129 m 1
 861 129 l 1
 861 0 l 1
 -4 0 l 1
 -4 129 l 1
EndSplineSet
Refer: 33 1614 N 1 0 0 1 212 -1877 2
Validated: 1
Ligature2: "'liga' Standard Ligatures in Arabic lookup 5 subtable" uni0640 uni0650
EndChar

StartChar: uniFE7D
Encoding: 65149 65149 117
Width: 856
VWidth: 1600
Flags: HMW
AnchorPoint: "Anchor-5" 426 1678 basechar 0
AnchorPoint: "Anchor-3" 405 -294 basechar 0
LayerCount: 2
Fore
SplineSet
-4 129 m 1
 861 129 l 1
 861 0 l 1
 -4 0 l 1
 -4 129 l 1
EndSplineSet
Refer: 32 1617 N 1 0 0 1 82 0 2
Validated: 1
Ligature2: "'liga' Standard Ligatures in Arabic lookup 5 subtable" uni0640 uni0651
EndChar

StartChar: uniFE7F
Encoding: 65151 65151 118
Width: 856
VWidth: 1600
Flags: HMW
AnchorPoint: "Anchor-5" 427 1770 basechar 0
AnchorPoint: "Anchor-3" 424 -272 basechar 0
LayerCount: 2
Fore
SplineSet
-4 129 m 1
 861 129 l 1
 861 0 l 1
 -4 0 l 1
 -4 129 l 1
EndSplineSet
Refer: 31 1618 N 1 0 0 1 241 0 2
Validated: 1
Ligature2: "'liga' Standard Ligatures in Arabic lookup 5 subtable" uni0640 uni0652
EndChar

StartChar: uniFE8E
Encoding: 65166 65166 119
Width: 405
VWidth: 1600
Flags: HMW
AnchorPoint: "Anchor-5" 154 1389 basechar 0
AnchorPoint: "Anchor-3" 318 -201 basechar 0
LayerCount: 2
Fore
SplineSet
415 129 m 2
 429 129 l 1
 429 0 l 1
 415 0 l 2
 271 0 172 63 131 154 c 0
 91 243 90 347 90 449 c 2
 90 1219 l 1
 219 1219 l 1
 219 449 l 2
 219 347 225 258 248 207 c 0
 271 156 302 129 415 129 c 2
EndSplineSet
Validated: 1
PairPos2: "'kern' Horizontal Kerning lookup 6 subtable 3" uni063A dx=-293 dy=0 dh=-293 dv=0 dx=0 dy=0 dh=0 dv=0
PairPos2: "'kern' Horizontal Kerning lookup 6 subtable 3" uni0639 dx=-293 dy=0 dh=-293 dv=0 dx=0 dy=0 dh=0 dv=0
PairPos2: "'kern' Horizontal Kerning lookup 6 subtable 2" uni0622 dx=277 dy=0 dh=277 dv=0 dx=0 dy=0 dh=0 dv=0
EndChar

StartChar: uniFEA2
Encoding: 65186 65186 120
Width: 1169
VWidth: 1600
Flags: HMW
AnchorPoint: "Anchor-5" 436 892 basechar 0
AnchorPoint: "Anchor-3" 658 -1147 basechar 0
LayerCount: 2
Fore
SplineSet
1179 0 m 0
 1006 0 856 104 769 242 c 1
 643 169 523 84 402 -28 c 1
 289 -142 218 -262 218 -391 c 0
 218 -628 437 -741 656 -741 c 0
 826 -741 965 -673 1069 -542 c 1
 1168 -625 l 1
 1030 -789 879 -870 656 -870 c 0
 411 -870 90 -737 90 -394 c 0
 90 -222 184 -65 310 63 c 0
 464 219 670 344 848 434 c 1
 728 459 574 515 437 515 c 0
 352 515 271 457 271 373 c 0
 271 334 295 291 319 256 c 1
 212 185 l 1
 173 244 150 294 144 373 c 1
 146 533 281 644 437 644 c 0
 637 644 895 545 1062 512 c 1
 1067 392 l 1
 1003 363 942 335 882 304 c 1
 949 203 1063 129 1179 129 c 3
 1185 129 1193 109 1193 86 c 6
 1193 43 l 6
 1193 18 1185 0 1179 0 c 0
EndSplineSet
Validated: 1
EndChar

StartChar: uniFEA3
Encoding: 65187 65187 121
Width: 1130
VWidth: 1600
Flags: HMW
AnchorPoint: "Anchor-5" 341 895 basechar 0
AnchorPoint: "Anchor-3" 296 -291 basechar 0
LayerCount: 2
Fore
SplineSet
-14 129 m 1
 47 129 107 129 168 129 c 0
 334 129 437 155 527 205 c 0
 609 249 681 313 779 392 c 1
 629 429 454 515 335 515 c 0
 263 515 201 470 180 371 c 1
 55 404 l 1
 95 552 172 644 335 644 c 0
 534 644 752 500 928 500 c 0
 954 500 977 503 999 510 c 1
 1040 388 l 1
 882 337 793 221 651 129 c 0
 541 57 399 0 168 0 c 0
 107 0 47 0 -14 0 c 1
 -14 129 l 1
EndSplineSet
Validated: 1
EndChar

StartChar: uniFEA4
Encoding: 65188 65188 122
Width: 1158
VWidth: 1600
Flags: HMW
AnchorPoint: "Anchor-5" 337 895 basechar 0
AnchorPoint: "Anchor-3" 536 -213 basechar 0
LayerCount: 2
Fore
SplineSet
55 404 m 1
 95 552 172 644 335 644 c 0
 534 644 752 500 928 500 c 0
 954 500 977 503 999 510 c 1
 1040 388 l 1
 973 367 919 333 867 295 c 1
 935 199 1045 129 1158 129 c 2
 1172 129 l 25
 1172 0 l 25
 1158 0 l 2
 997 0 855 91 766 215 c 1
 693 156 614 95 503 54 c 0
 416 21 308 0 168 0 c 0
 107 0 47 0 -14 0 c 1
 -14 129 l 17
 47 129 107 129 168 129 c 0
 501 129 586 237 779 392 c 1
 629 429 454 515 335 515 c 0
 263 515 201 469 180 370 c 1
 55 404 l 1
EndSplineSet
Validated: 1
EndChar

StartChar: uniFEAA
Encoding: 65194 65194 123
Width: 1026
VWidth: 1600
Flags: HMW
AnchorPoint: "Anchor-5" 452 967 basechar 0
AnchorPoint: "Anchor-3" 450 -218 basechar 0
LayerCount: 2
Fore
SplineSet
729 132 m 1
 668 20 502 -26 323 -26 c 0
 245 -26 165 -17 90 -2 c 1
 90 137 l 1
 158 116 243 106 324 106 c 0
 480 106 631 151 631 237 c 0
 631 321 468 586 359 745 c 1
 474 824 l 1
 784 323 l 2
 854 211 925 129 1026 129 c 2
 1040 129 l 1
 1040 0 l 1
 1026 0 l 2
 899 0 800 49 729 132 c 1
EndSplineSet
Validated: 1
PairPos2: "'kern' Horizontal Kerning lookup 6 subtable 3" uni063A dx=-457 dy=0 dh=-457 dv=0 dx=0 dy=0 dh=0 dv=0
PairPos2: "'kern' Horizontal Kerning lookup 6 subtable 3" uni0639 dx=-457 dy=0 dh=-457 dv=0 dx=0 dy=0 dh=0 dv=0
EndChar

StartChar: uniFEAE
Encoding: 65198 65198 124
Width: 607
VWidth: 1600
Flags: HMW
AnchorPoint: "Anchor-5" 262 754 basechar 0
AnchorPoint: "Anchor-3" 139 -682 basechar 0
LayerCount: 2
Fore
SplineSet
389 80 m 1
 367 -200 168 -398 -124 -512 c 1
 -170 -391 l 1
 68 -297 263 -137 263 130 c 0
 263 229 238 326 200 424 c 1
 318 475 l 17
 387 320 409 129 617 129 c 2
 631 129 l 1
 631 0 l 1
 617 0 l 2
 522 0 446 33 389 80 c 1
EndSplineSet
Validated: 1
PairPos2: "'kern' Horizontal Kerning lookup 6 subtable 4" uniE004 dx=200 dy=0 dh=200 dv=0 dx=0 dy=0 dh=0 dv=0
PairPos2: "'kern' Horizontal Kerning lookup 6 subtable 4" uniE002 dx=200 dy=0 dh=200 dv=0 dx=0 dy=0 dh=0 dv=0
PairPos2: "'kern' Horizontal Kerning lookup 6 subtable 4" uniE000 dx=100 dy=0 dh=100 dv=0 dx=0 dy=0 dh=0 dv=0
PairPos2: "'kern' Horizontal Kerning lookup 6 subtable 1" uni063A dx=-280 dy=0 dh=-280 dv=0 dx=0 dy=0 dh=0 dv=0
PairPos2: "'kern' Horizontal Kerning lookup 6 subtable 1" uni0639 dx=-280 dy=0 dh=-280 dv=0 dx=0 dy=0 dh=0 dv=0
PairPos2: "'kern' Horizontal Kerning lookup 6 subtable 1" uni06CC dx=120 dy=0 dh=120 dv=0 dx=0 dy=0 dh=0 dv=0
PairPos2: "'kern' Horizontal Kerning lookup 6 subtable 1" uni0644 dx=120 dy=0 dh=120 dv=0 dx=0 dy=0 dh=0 dv=0
PairPos2: "'kern' Horizontal Kerning lookup 6 subtable 1" uni0649 dx=120 dy=0 dh=120 dv=0 dx=0 dy=0 dh=0 dv=0
EndChar

StartChar: uniFEB2
Encoding: 65202 65202 125
Width: 2668
VWidth: 1600
Flags: HMW
AnchorPoint: "Anchor-5" 1833 749 basechar 0
AnchorPoint: "Anchor-3" 688 -857 basechar 0
LayerCount: 2
Fore
SplineSet
2410.23730469 277 m 5
 2424.69921875 182.841796875 2468.05204477 129 2598 129 c 2
 2682 129 l 1
 2682 0 l 1
 2598 0 l 2
 2477 0 2389 47 2339 115 c 1
 2289 47 2201 0 2080 0 c 0
 1959 0 1871 47 1821 115 c 1
 1771 47 1683 0 1562 0 c 0
 1509 0 1450 21 1403 52 c 1
 1396 -48 1370 -143 1324 -222 c 0
 1198 -441 931 -580 686 -580 c 0
 356 -580 90 -396 90 -107 c 0
 90 110 260 344 623 508 c 1
 676 391 l 1
 340 239 219 47 219 -107 c 0
 219 -307 405 -451 686 -451 c 0
 879 -451 1115 -326 1212 -158 c 0
 1253 -86 1275 9 1275 113 c 0
 1275 246 1224 392 1176 507 c 1
 1295 558 l 1
 1336 459 1369 318 1417 224 c 0
 1448 161 1495 129 1562 129 c 0
 1691.94795523 129 1735.30078125 182.841796875 1749.76269531 277 c 1
 1756.89099095 323.411258516 1757 379.617790049 1757 444 c 0
 1757 508 l 1
 1885 508 l 1
 1885 444 l 0
 1885 379.617790049 1885.109375 323.411132812 1892.23730469 277 c 1
 1906.69907616 182.841442453 1950.05204477 129 2080 129 c 0
 2209.94795523 129 2253.30078125 182.841796875 2267.76269531 277 c 1
 2274.89099095 323.411258516 2275 379.617790049 2275 444 c 0
 2275 508 l 1
 2403 508 l 1
 2403 444 l 0
 2403 379.617790049 2403.10900905 323.411258516 2410.23730469 277 c 5
EndSplineSet
EndChar

StartChar: uniFEB3
Encoding: 65203 65203 126
Width: 1495
VWidth: 1600
Flags: HMW
AnchorPoint: "Anchor-5" 834 772 basechar 0
AnchorPoint: "Anchor-3" 823 -312 basechar 0
LayerCount: 2
Fore
SplineSet
892.75 306 m 1
 902.952148438 194.350585938 940.897918426 129 1082 129 c 3
 1207 129 1270 220 1270 323 c 0
 1270 387 1254 496 1231 550 c 1
 1351 597 l 1
 1378 525 1396 406 1396 331 c 0
 1396 155 1291 0 1084 0 c 3
 963 0 875 47 825 115 c 1
 775 47 687 0 566 0 c 0
 445 0 357 47 307 115 c 1
 257 47 169 0 48 0 c 2
 -6 0 l 1
 -6 129 l 1
 48 129 l 2
 190.754443074 129 229.004882812 193.9765625 239.251953125 306 c 1
 242.930223533 346.213816448 243 392.490290719 243 444 c 0
 243 508 l 1
 371 508 l 1
 371 444 l 0
 371 392.490290719 371.069335938 346.213867188 374.748046875 306 c 1
 384.995162804 193.976610747 423.245556926 129 566 129 c 0
 708.754443074 129 747.004882812 193.9765625 757.251953125 306 c 1
 760.930223533 346.213816448 761 392.490290719 761 444 c 0
 761 508 l 1
 889 508 l 1
 889 444 l 0
 889 392.571894923 889.070274471 346.273826232 892.75 306 c 1
EndSplineSet
EndChar

StartChar: uniFEB4
Encoding: 65204 65204 127
Width: 1654
VWidth: 1600
Flags: HMW
AnchorPoint: "Anchor-5" 840 752 basechar 0
AnchorPoint: "Anchor-3" 836 -217 basechar 0
LayerCount: 2
Fore
SplineSet
1420.11230469 256 m 1
 1437.87890625 174.87890625 1484.04456447 129 1604 129 c 2
 1668 129 l 1
 1668 0 l 1
 1604 0 l 2
 1483 0 1395 47 1345 115 c 1
 1295 47 1207 0 1086 0 c 0
 965 0 877 47 827 115 c 1
 777 47 689 0 568 0 c 0
 447 0 359 47 309 115 c 1
 259 47 171 0 50 0 c 2
 -14 0 l 1
 -14 129 l 1
 50 129 l 2
 169.955435527 129 216.121516263 174.87939158 233.887695312 256 c 1
 244.854492188 306.073242188 245 369.573762514 245 444 c 0
 245 508 l 1
 373 508 l 1
 373 444 l 0
 373 369.573762514 373.145507812 306.073242188 384.112304688 256 c 1
 401.878483737 174.87939158 448.044564473 129 568 129 c 0
 687.955435527 129 734.12109375 174.87890625 751.887695312 256 c 1
 762.854325711 306.073096678 763 369.573762514 763 444 c 0
 763 508 l 1
 891 508 l 1
 891 444 l 0
 891 369.57421875 891.145507812 306.073242188 902.112304688 256 c 1
 919.878483737 174.87939158 966.044564473 129 1086 129 c 0
 1205.95543553 129 1252.12109375 174.87890625 1269.88769531 256 c 1
 1280.85432571 306.073096678 1281 369.573762514 1281 444 c 0
 1281 508 l 1
 1409 508 l 1
 1409 444 l 0
 1409 369.573762514 1409.14567429 306.073096678 1420.11230469 256 c 1
EndSplineSet
EndChar

StartChar: uniFEBA
Encoding: 65210 65210 128
Width: 2434
VWidth: 1600
Flags: HMW
AnchorPoint: "Anchor-5" 1975 893 basechar 0
AnchorPoint: "Anchor-3" 684 -857 basechar 0
LayerCount: 2
Fore
SplineSet
1973 515 m 0
 1828 515 1658 279 1594 141 c 1
 1627 133 1665 129 1698 129 c 0
 1973 129 2108 237 2108 378 c 0
 2108 446 2057 515 1973 515 c 0
1404 76 m 1
 1404 76 1403 64 1402 52 c 0
 1394 -48 1370 -142 1324 -222 c 0
 1198 -441 931 -580 686 -580 c 0
 356 -580 90 -396 90 -107 c 0
 90 110 260 344 623 508 c 1
 676 391 l 1
 340 239 219 47 219 -107 c 0
 219 -307 405 -451 686 -451 c 0
 879 -451 1115 -325 1212 -157 c 0
 1253 -85 1276 9 1276 113 c 0
 1276 213 1255 321 1211 424 c 1
 1329 475 l 1
 1364 393 1387 307 1398 224 c 1
 1423 209 1448 196 1473 184 c 1
 1568 386 1756 644 1973 644 c 0
 2128 644 2237 512 2237 378 c 0
 2237 249 2277 129 2444 129 c 2
 2458 129 l 1
 2458 0 l 1
 2444 0 l 2
 2303 0 2211 62 2160 164 c 1
 2070 59 1907 0 1698 0 c 0
 1591 0 1492 33 1404 76 c 1
EndSplineSet
Validated: 1
EndChar

StartChar: uniFEBB
Encoding: 65211 65211 129
Width: 1223
VWidth: 1600
Flags: HMW
AnchorPoint: "Anchor-5" 868 874 basechar 0
AnchorPoint: "Anchor-3" 598 -302 basechar 0
LayerCount: 2
Fore
SplineSet
0 129 m 3
 190 129 193 259 193 449 c 1
 321 455 l 1
 323 423 324 393 324 364 c 0
 324 285 317 220 317 185 c 0
 317 159 320 145 351 142 c 1
 390 238 455 353 539 451 c 0
 628 555 738 645 869 645 c 0
 1025 645 1133 514 1133 379 c 0
 1133 262 1069 155 969 91 c 4
 849 14 670 -1 473 -1 c 0
 388 -1 284 7 221 79 c 1
 169 32 96 0 0 0 c 0
 -6 0 -14 18 -14 43 c 2
 -14 86 l 2
 -14 109 -6 129 0 129 c 3
1004 379 m 0
 1004 447 953 516 869 516 c 0
 802 516 714 458 637 368 c 0
 574 294 523 203 488 127 c 1
 658 127 793 131 899 199 c 4
 974 247 1004 316 1004 379 c 0
EndSplineSet
Validated: 1
EndChar

StartChar: uniFEBC
Encoding: 65212 65212 130
Width: 1196
VWidth: 1600
Flags: HMW
AnchorPoint: "Anchor-5" 874 900 basechar 0
AnchorPoint: "Anchor-3" 566 -251 basechar 0
LayerCount: 2
Fore
SplineSet
0 129 m 0
 190 129 193 259 193 449 c 1
 321 455 l 1
 323 423 324 393 324 364 c 0
 324 285 317 220 317 185 c 0
 317 159 320 145 351 142 c 1
 390 238 455 353 539 451 c 0
 628 555 738 645 869 645 c 0
 1025 645 1133 514 1133 379 c 0
 1133 283 1090 193 1019 129 c 1
 1210 129 l 1
 1210 0 l 1
 473 0 l 2
 388 0 284 7 221 79 c 1
 169 32 96 0 0 0 c 0
 -6 0 -14 18 -14 43 c 2
 -14 86 l 2
 -14 109 -6 129 0 129 c 0
1004 379 m 0
 1004 447 953 516 869 516 c 0
 802 516 714 458 637 368 c 0
 574 294 523 203 488 127 c 1
 658 127 793 131 899 199 c 0
 974 247 1004 316 1004 379 c 0
EndSplineSet
Validated: 1
EndChar

StartChar: uniFEC2
Encoding: 65218 65218 131
Width: 1095
VWidth: 1600
Flags: HMW
AnchorPoint: "Anchor-5" 781 1031 basechar 0
AnchorPoint: "Anchor-3" 562 -217 basechar 0
LayerCount: 2
Fore
SplineSet
779 516 m 0
 712 516 624 458 547 368 c 0
 484 294 433 203 398 127 c 1
 568 127 694 131 800 199 c 0
 875 247 914 316 914 379 c 0
 914 447 863 516 779 516 c 0
341 300 m 1
 428 445 586 645 779 645 c 0
 935 645 1043 514 1043 379 c 0
 1043 283 993 193 920 129 c 1
 1119 129 l 1
 1119 0 l 1
 49 0 l 1
 49 127 l 1
 212 127 l 1
 212 1217 l 1
 341 1217 l 1
 341 300 l 1
EndSplineSet
Validated: 1
EndChar

StartChar: uniFEC3
Encoding: 65219 65219 132
Width: 1107
VWidth: 1600
Flags: HMW
AnchorPoint: "Anchor-5" 757 963 basechar 0
AnchorPoint: "Anchor-3" 516 -243 basechar 0
LayerCount: 2
Fore
SplineSet
315 300 m 1
 402 445 560 645 753 645 c 0
 909 645 1017 514 1017 379 c 0
 1017 262 943 155 843 91 c 0
 743 27 556 -0 420 0 c 2
 -14 0 l 1
 -14 127 l 1
 186 127 l 1
 186 1217 l 1
 315 1217 l 1
 315 300 l 1
753 516 m 0
 686 516 598 458 521 368 c 0
 458 294 407 203 372 127 c 1
 542 127 668 131 774 199 c 0
 849 247 888 316 888 379 c 0
 888 447 837 516 753 516 c 0
EndSplineSet
Validated: 1
EndChar

StartChar: uniFEC4
Encoding: 65220 65220 133
Width: 1080
VWidth: 1600
Flags: HMW
AnchorPoint: "Anchor-5" 745 1055 basechar 0
AnchorPoint: "Anchor-3" 510 -211 basechar 0
LayerCount: 2
Fore
SplineSet
754 516 m 0
 687 516 599 458 522 368 c 0
 459 294 408 203 373 127 c 1
 543 127 669 131 775 199 c 0
 850 247 889 316 889 379 c 0
 889 447 838 516 754 516 c 0
316 300 m 1
 403 445 561 645 754 645 c 0
 910 645 1018 514 1018 379 c 0
 1018 283 968 193 895 129 c 1
 1094 129 l 1
 1094 0 l 1
 -14 0 l 1
 -14 127 l 1
 187 127 l 1
 187 1217 l 1
 316 1217 l 1
 316 300 l 1
EndSplineSet
Validated: 1
EndChar

StartChar: uniFECA
Encoding: 65226 65226 134
Width: 952
Flags: HMW
AnchorPoint: "Anchor-5" 506 879 basechar 0
AnchorPoint: "Anchor-3" 585 -1087 basechar 0
LayerCount: 2
Fore
SplineSet
504.907226562 515 m 0
 429.907226562 515 358.907226562 502 313.907226562 481 c 0
 268.907226562 460 255.907226562 442 255.907226562 412 c 0
 255.907226562 344 292.907226562 277 369.907226562 222 c 0
 380.907226562 214 393.907226562 206 406.907226562 199 c 1
 532.907226562 314 662.907226562 396 733.907226562 438 c 1
 723.907226562 448 708.907226562 460 687.907226562 471 c 0
 638.907226562 497 567.907226562 515 504.907226562 515 c 0
976 129 m 1
 976 0 l 1
 708.907226562 0 l 0
 606.907226562 0 513.907226562 16 433.907226562 45 c 1
 395.907226562 6 359.907226562 -36 328.907226562 -79 c 0
 259.8515625 -177.014648438 218.36328125 -295.981445312 218.36328125 -412.563476562 c 0
 218.36328125 -452.986328125 223.3515625 -493.123046875 233.907226562 -532 c 0
 251.907226562 -601 296.907226562 -651 358.907226562 -687 c 0
 420.907226562 -723 502.907226562 -742 584.907226562 -742 c 0
 730.907226562 -742 849.991210938 -686.248046875 932.907226562 -569 c 1
 1031.90722656 -652 l 1
 924.907226562 -795 775.685546875 -871 584.907226562 -871 c 0
 482.907226562 -871 380.907226562 -848 294.907226562 -798 c 0
 208.907226562 -748 137.907226562 -670 109.907226562 -565 c 0
 96.3525390625 -513.909179688 90 -462.20703125 90 -410.8671875 c 0
 90 -265.251953125 141.1015625 -122.553710938 223.907226562 -5 c 0
 250.907226562 33 280.907226562 70 312.907226562 105 c 1
 306.907226562 109 300.907226562 113 294.907226562 117 c 0
 191.907226562 190 126.907226562 297 126.907226562 412 c 0
 126.907226562 498 187.907226562 563 258.907226562 597 c 0
 329.907226562 631 415.907226562 644 504.907226562 644 c 0
 590.907226562 644 677.907226562 623 747.907226562 586 c 0
 817.907226562 549 882.907226562 496 882.907226562 412 c 0
 882.907226562 390 867.907226562 365 848.907226562 355 c 2
 848.907226562 355 698.907226562 274 545.907226562 147 c 1
 594.907226562 136 648.907226562 129 708.907226562 129 c 0
 976 129 l 1
EndSplineSet
Validated: 1
EndChar

StartChar: uniFECB
Encoding: 65227 65227 135
Width: 762
VWidth: 1600
Flags: HMW
AnchorPoint: "Anchor-5" 439 893 basechar 0
AnchorPoint: "Anchor-3" 377 -252 basechar 0
LayerCount: 2
Fore
SplineSet
-14 129 m 1
 26 129 105 129 145 129 c 5
 111 169 92 218 92 279 c 4
 92 466 229 645 445 645 c 4
 499 645 564 634 622 612 c 5
 589 488 l 5
 537 507 498 516 445 516 c 4
 307 516 221 397 221 279 c 4
 221 139 443 126 591 126 c 5
 672 127 l 5
 672 0 l 5
 457 0 201 0 -14 0 c 1
 -14 129 l 1
EndSplineSet
Validated: 1
EndChar

StartChar: uniFECC
Encoding: 65228 65228 136
Width: 950
VWidth: 1600
Flags: HMW
AnchorPoint: "Anchor-5" 479 873 basechar 0
AnchorPoint: "Anchor-3" 467 -236 basechar 0
LayerCount: 2
Fore
SplineSet
475 627 m 0
 647 627 853 568 853 394 c 0
 853 273 773 189 675 137 c 1
 723 132 770 129 815 129 c 2
 964 129 l 1
 964 1 l 1
 774 1 l 2
 647 1 585 13 475 46 c 1
 365 13 303 1 176 1 c 2
 -14 1 l 1
 -14 129 l 1
 135 129 l 2
 180 129 227 132 275 137 c 1
 177 189 97 273 97 394 c 0
 97 568 303 627 475 627 c 0
475 185 m 1
 571 224 724 282 724 394 c 0
 724 453 618 498 475 498 c 0
 332 498 226 453 226 394 c 0
 226 282 379 224 475 185 c 1
EndSplineSet
Validated: 1
EndChar

StartChar: uniFEDB
Encoding: 65243 65243 137
Width: 798
VWidth: 1600
Flags: HMW
AnchorPoint: "Anchor-5" 272 1446 basechar 0
AnchorPoint: "Anchor-3" 357 -242 basechar 0
LayerCount: 2
Fore
SplineSet
708 1194 m 1
 106 805 l 1
 244 734 l 2
 459 624 708 514 708 305 c 0
 708 99 573 0 370 0 c 0
 259 0 97 0 -14 0 c 1
 -14 129 l 1
 97 129 259 129 370 129 c 0
 511 129 579 186 579 305 c 0
 579 432 370 525 189 618 c 1
 -7 714 l 1
 -7 887 l 1
 708 1348 l 1
 708 1194 l 1
EndSplineSet
Validated: 1
Substitution2: "single substitution 0 subtable" uniE006
EndChar

StartChar: uniFEDC
Encoding: 65244 65244 138
Width: 909
VWidth: 1600
Flags: HMW
AnchorPoint: "Anchor-5" 270 1446 basechar 0
AnchorPoint: "Anchor-3" 325 -202 basechar 0
LayerCount: 2
Fore
SplineSet
920 64 m 1
 920 0 l 1
 909 0 l 2
 846 0 773 11 718 67 c 0
 695 90 677 111 663 131 c 1
 607 43 503 0 370 0 c 0
 259 0 97 0 -14 0 c 1
 -14 129 l 1
 97 129 259 129 370 129 c 0
 511 129 579 186 579 305 c 0
 579 432 370 525 189 618 c 2
 -7 714 l 1
 -7 887 l 1
 708 1348 l 1
 708 1194 l 1
 106 805 l 1
 244 734 l 2
 345 682 453 631 540 569 c 1
 791 390 701 268 810 156 c 0
 827 138 858 129 909 129 c 2
 920 129 l 1
 920 64 l 1
EndSplineSet
Validated: 1
Substitution2: "single substitution 0 subtable" uniE007
EndChar

StartChar: uniFEDE
Encoding: 65246 65246 139
Width: 1642
VWidth: 1600
Flags: HMW
AnchorPoint: "Anchor-5" 709 885 basechar 0
AnchorPoint: "Anchor-3" 682 -815 basechar 0
LayerCount: 2
Fore
SplineSet
1652 0 m 2
 1541 0 1457 28 1395 79 c 1
 1394 25 l 1
 1394 -329 1003 -580 686 -580 c 0
 393 -580 90 -412 90 -107 c 0
 90 110 260 344 623 508 c 1
 676 391 l 1
 340 239 219 47 219 -107 c 0
 219 -326 440 -451 686 -451 c 0
 920 -451 1266 -253 1266 25 c 2
 1266 1217 l 1
 1394 1217 l 1
 1394 577 l 2
 1394 311 1395 129 1652 129 c 2
 1666 129 l 1
 1666 0 l 1
 1652 0 l 2
EndSplineSet
Validated: 1
EndChar

StartChar: uniFEDF
Encoding: 65247 65247 140
Width: 415
VWidth: 1600
Flags: HMW
AnchorPoint: "Anchor-5" 262 1380 basechar 0
AnchorPoint: "Anchor-3" 197 -168 basechar 0
LayerCount: 2
Fore
SplineSet
0 129 m 2
 113 129 144 156 167 207 c 0
 190 258 196 347 196 449 c 2
 196 1219 l 1
 325 1219 l 1
 325 449 l 2
 325 347 324 243 284 154 c 0
 243 63 144 0 0 0 c 2
 -14 0 l 1
 -14 129 l 1
 0 129 l 2
EndSplineSet
Validated: 1
EndChar

StartChar: uniFEE0
Encoding: 65248 65248 141
Width: 644
VWidth: 1600
Flags: HMW
AnchorPoint: "Anchor-5" 323 1420 basechar 0
AnchorPoint: "Anchor-3" 322 -205 basechar 0
LayerCount: 2
Fore
SplineSet
644 0 m 2
 556 0 483 17 425 51 c 0
 378 79 346 119 322 163 c 1
 298 119 266 79 219 51 c 0
 161 17 88 0 0 0 c 2
 -14 0 l 1
 -14 129 l 1
 0 129 l 2
 126 129 188 163 222 245 c 0
 254 320 258 442 258 577 c 2
 257 1217 l 1
 386 1217 l 1
 386 577 l 2
 386 571 l 0
 386 307 387 129 644 129 c 2
 658 129 l 1
 658 0 l 1
 644 0 l 2
EndSplineSet
Validated: 1
EndChar

StartChar: uniFEE2
Encoding: 65250 65250 142
Width: 1072
Flags: HMW
AnchorPoint: "Anchor-5" 552 871 basechar 0
AnchorPoint: "Anchor-3" 582 -763 basechar 0
LayerCount: 2
Fore
SplineSet
1086 0 m 1
 1072 0 l 1
 1034 0 986 8 940 40 c 0
 930 48 920 56 910 66 c 1
 866 24 800 0 720 0 c 0
 608 0 496 18 410 18 c 0
 339 18 288 5 258 -34 c 0
 236 -62 218 -110 218 -198 c 0
 220 -842 l 1
 90 -842 l 1
 90 -196 l 1
 90 -92 112 -12 156 46 c 0
 198 102 280 144 342 144 c 1
 356 246 l 2
 372 360 408 452 462 516 c 0
 516 580 592 618 668 618 c 0
 758 618 838 570 894 504 c 0
 968 416 988 330 988 200 c 0
 988 143 1026 130 1072 130 c 2
 1086 130 l 1
 1086 0 l 1
668 490 m 0
 632 490 596 476 562 434 c 0
 528 392 498 324 484 228 c 2
 472 148 l 1
 556 144 644 130 720 130 c 0
 784 130 812 148 830 170 c 0
 848 192 856 224 856 258 c 0
 856 316 832 376 794 420 c 0
 756 464 710 490 668 490 c 0
EndSplineSet
Validated: 1
EndChar

StartChar: uniFEE3
Encoding: 65251 65251 143
Width: 942
VWidth: 1600
Flags: HMW
AnchorPoint: "Anchor-5" 477 931 basechar 0
AnchorPoint: "Anchor-3" 570 -266 basechar 0
LayerCount: 2
Fore
SplineSet
0 129 m 2
 99 129 142 184 179 283 c 0
 211 370 241 452 282 519 c 0
 323 586 388 645 474 645 c 0
 655 645 852 455 852 267 c 0
 852 101 739 0 575 0 c 0
 434 0 324 55 251 138 c 1
 201 50 112 0 0 0 c 2
 -14 0 l 1
 -14 129 l 1
 0 129 l 2
474 516 m 0
 441 516 422 501 392 452 c 0
 366 409 340 342 312 269 c 1
 362 181 434 129 575 129 c 0
 678 129 723 179 723 267 c 0
 723 389 575 516 474 516 c 0
EndSplineSet
Validated: 1
EndChar

StartChar: uniFEE4
Encoding: 65252 65252 144
Width: 985
VWidth: 1600
Flags: HMW
AnchorPoint: "Anchor-5" 473 918 basechar 0
AnchorPoint: "Anchor-3" 538 -274 basechar 0
LayerCount: 2
Fore
SplineSet
985 0 m 2
 895 0 835 23 785 82 c 1
 736 30 663 0 575 0 c 0
 434 0 324 55 251 138 c 1
 201 50 112 0 0 0 c 2
 -14 0 l 9
 -14 129 l 17
 0 129 l 2
 99 129 142 184 179 283 c 0
 211 370 241 452 282 519 c 0
 323 586 388 645 474 645 c 0
 655 645 852 455 852 267 c 0
 853 208 866 183 887 162 c 0
 908 141 940 129 985 129 c 2
 999 129 l 9
 999 0 l 17
 985 0 l 2
575 129 m 0
 678 129 723 179 723 267 c 0
 723 389 575 516 474 516 c 0
 441 516 422 501 392 452 c 0
 366 409 340 342 312 269 c 1
 362 181 434 129 575 129 c 0
EndSplineSet
Validated: 1
EndChar

StartChar: uniFEEA
Encoding: 65258 65258 145
Width: 999
VWidth: 1600
Flags: HMW
AnchorPoint: "Anchor-5" 447 907 basechar 0
AnchorPoint: "Anchor-3" 436 -253 basechar 0
LayerCount: 2
Fore
SplineSet
441 628 m 0
 335 628 219 502 219 394 c 0
 219 274 315 218 432 218 c 0
 527 218 614 260 643 326 c 1
 610 409 580 505 545 560 c 0
 514 609 490 628 441 628 c 0
989 0 m 2
 845 0 760 90 703 190 c 1
 634 122 530 89 432 89 c 0
 249 89 90 204 90 394 c 0
 90 578 258 757 441 757 c 0
 537 757 610 698 654 629 c 0
 698 560 725 479 753 401 c 0
 781 323 810 250 847 202 c 0
 884 154 921 129 989 129 c 2
 1013 129 l 1
 1013 0 l 1
 989 0 l 2
EndSplineSet
Validated: 1
EndChar

StartChar: uniFEEB
Encoding: 65259 65259 146
Width: 1204
VWidth: 1600
Flags: HMW
AnchorPoint: "Anchor-5" 509 1059 basechar 0
AnchorPoint: "Anchor-3" 530 -257 basechar 0
LayerCount: 2
Fore
SplineSet
298 849 m 1
 337 777 362 730 448 700 c 0
 505 680 579 669 656 659 c 0
 733 649 814 639 889 612 c 0
 1000 572 1115 473 1115 316 c 0
 1115 200 1051 126 976 76 c 0
 902 26 808 -1 709 -1 c 0
 659 -1 608 6 557 21 c 1
 512 9 454 0 401 -0 c 2
 -14 0 l 1
 -14 129 l 1
 90 129 l 1
 51 176 25 229 25 302 c 0
 25 455 172 613 263 667 c 1
 231 701 208 745 185 789 c 1
 298 849 l 1
396 575 m 0
 344 575 272 534 193 414 c 0
 165 371 154 334 154 302 c 0
 154 253 174 220 211 190 c 0
 254 155 323 130 404 130 c 0
 492 130 560 154 584 180 c 0
 599 196 607 215 607 249 c 0
 607 281 598 327 574 386 c 0
 521 517 459 575 396 575 c 0
647 530 m 1
 664 501 680 469 694 435 c 0
 722 367 736 306 736 251 c 0
 736 204 726 164 705 129 c 1
 781 129 853 150 904 184 c 0
 953 216 986 254 986 316 c 0
 986 407 921 464 845 491 c 0
 790 510 721 520 647 530 c 1
EndSplineSet
Validated: 1
EndChar

StartChar: uniFEEC
Encoding: 65260 65260 147
Width: 837
VWidth: 1600
Flags: HMW
AnchorPoint: "Anchor-5" 451 956 basechar 0
AnchorPoint: "Anchor-3" 454 -759 basechar 0
LayerCount: 2
Fore
SplineSet
837 129 m 2
 851 129 l 1
 851 0 l 1
 837 0 l 2
 716 0 647 -61 647 -160 c 0
 647 -204 665 -246 665 -293 c 0
 665 -412 580 -515 455 -515 c 0
 257 -515 127 -308 110 0 c 1
 -14 0 l 1
 -14 129 l 1
 111 129 l 1
 132 423 253 644 455 644 c 0
 595 644 702 531 702 368 c 0
 702 158 460 3 241 3 c 1
 251 -149 297 -386 455 -386 c 0
 499 -386 537 -354 537 -294 c 0
 537 -249 518 -223 518 -161 c 0
 518 19 656 129 837 129 c 2
455 515 m 0
 302 515 256 264 243 131 c 1
 361 131 573 217 573 369 c 0
 573 474 507 515 455 515 c 0
EndSplineSet
Validated: 1
EndChar

StartChar: zero
Encoding: 48 48 149
Width: 1066
VWidth: 1691
Flags: W
LayerCount: 2
Fore
SplineSet
868 409 m 0
 874.666666667 469.666666667 878 529.333333333 878 588 c 0
 878 651.333333333 874.333333333 713 867 773 c 0
 859.666666667 833 845.333333333 886.666666667 824 934 c 0
 803.333333333 980.666666667 773.666666667 1018 735 1046 c 0
 695.666666667 1074 644 1087.66666667 580 1087 c 0
 519.333333333 1087 470 1073 432 1045 c 0
 394.666666667 1016.33333333 365.666666667 978 345 930 c 0
 324.333333333 881.333333333 309.666666667 826.333333333 301 765 c 0
 292.333333333 703 288 640 288 576 c 0
 288 500.666666667 292.666666667 432.666666667 302 372 c 0
 311.333333333 311.333333333 327.333333333 259.666666667 350 217 c 0
 372 175 401.666666667 142 439 118 c 0
 477 94.6666666667 525 83.3333333333 583 84 c 0
 648.333333333 84 700.666666667 99 740 129 c 0
 778 159.666666667 807 198.666666667 827 246 c 0
 847.666666667 294 861.333333333 348.333333333 868 409 c 0
364 1140 m 0
 418.666666667 1175.33333333 491.666666667 1193 583 1193 c 0
 645 1193 699 1184.33333333 745 1167 c 0
 789 1149 826.166666667 1124.66666667 856.5 1094 c 128
 886.833333333 1063.33333333 911.666666667 1027.66666667 931 987 c 0
 949.666666667 946.333333333 964 903 974 857 c 0
 984 811.666666667 991 765 995 717 c 0
 998.333333333 669 1000 622 1000 576 c 0
 1000 498 994.333333333 423.333333333 983 352 c 0
 971.666666667 280 951 216.333333333 921 161 c 0
 890.333333333 105 848.666666667 60.3333333333 796 27 c 0
 742 -6.33333333333 671.166666667 -22.8333333333 583.5 -22.5 c 128
 495.833333333 -22.1666666667 424.666666667 -5.66666666667 370 27 c 0
 316.666666667 60.3333333333 275 105 245 161 c 0
 215 217 194 282 182 356 c 0
 170.666666667 429.333333333 165 506.666666667 165 588 c 0
 165 662.666666667 170.333333333 736 181 808 c 0
 191 880 210.666666667 944.333333333 240 1001 c 0
 268.666666667 1058.33333333 310 1104.66666667 364 1140 c 0
EndSplineSet
EndChar

StartChar: one
Encoding: 49 49 150
Width: 1040
VWidth: 1694
Flags: W
LayerCount: 2
Fore
SplineSet
597 11 m 1
 597 882 l 1
 297 882 l 1
 290 882 l 1
 290 889 l 1
 290 959 l 1
 290 965 l 1
 297 966 l 2
 341.666666667 969.333333333 382.333333333 973.666666667 419 979 c 0
 455 984.333333333 486 994.666666667 512 1010 c 0
 538.666666667 1024.66666667 561 1046 579 1074 c 0
 597 1102.66666667 610.333333333 1141.33333333 619 1190 c 2
 620 1196 l 1
 626 1196 l 1
 713 1196 l 1
 720 1196 l 1
 720 1189 l 1
 720 11 l 1
 720 4 l 1
 713 4 l 1
 604 4 l 1
 597 4 l 1
 597 11 l 1
EndSplineSet
EndChar

StartChar: two
Encoding: 50 50 151
Width: 1067
VWidth: 1694
Flags: W
LayerCount: 2
Fore
SplineSet
217 791 m 1
 217 798 l 2
 217 857.333333333 226.333333333 911.333333333 245 960 c 128
 263.666666667 1008.66666667 290.166666667 1050.66666667 324.5 1086 c 128
 358.833333333 1121.33333333 401 1148.33333333 451 1167 c 0
 501.666666667 1186.33333333 558 1196 620 1196 c 0
 683.333333333 1196 739 1187 787 1169 c 0
 833.666666667 1151 872.666666667 1127.33333333 904 1098 c 128
 935.333333333 1068.66666667 959.333333333 1033.66666667 976 993 c 0
 992 951.666666667 1000 908.333333333 1000 863 c 0
 1000 809.666666667 991 762.666666667 973 722 c 0
 955 681.333333333 931.666666667 645 903 613 c 0
 874.333333333 581.666666667 841 553.666666667 803 529 c 0
 766.333333333 504.333333333 727.833333333 481.166666667 687.5 459.5 c 128
 647.166666667 437.833333333 607.666666667 417 569 397 c 0
 530.333333333 377 496 356 466 334 c 0
 446 319.333333333 427 304 409 288 c 0
 391.666666667 272 375.333333333 255 360 237 c 0
 345.333333333 219 334 198.666666667 326 176 c 0
 318.666666667 156 314 134 312 110 c 1
 982 110 l 1
 989 110 l 1
 989 103 l 1
 989 11 l 1
 989 4 l 1
 982 4 l 1
 189 4 l 1
 182 4 l 1
 182 11 l 2
 183.333333333 67.6666666667 189.666666667 119.333333333 201 166 c 0
 212.333333333 212.666666667 237.666666667 258.333333333 277 303 c 0
 319 350.333333333 362.333333333 390.666666667 407 424 c 0
 453 457.333333333 498.666666667 487 544 513 c 0
 588.666666667 539 631 563 671 585 c 0
 710.333333333 606.333333333 745 629.666666667 775 655 c 0
 803.666666667 679.666666667 826.333333333 708 843 740 c 0
 859 771.333333333 867 809.666666667 867 855 c 0
 867 892.333333333 860.5 925.5 847.5 954.5 c 128
 834.5 983.5 816.5 1008.16666667 793.5 1028.5 c 128
 770.5 1048.83333333 743 1064 711 1074 c 0
 679 1084 644 1089.33333333 606 1090 c 0
 566 1090 529.666666667 1082 497 1066 c 0
 464.333333333 1050 436.666666667 1029 414 1003 c 0
 391.333333333 977 373.833333333 946.333333333 361.5 911 c 128
 349.166666667 875.666666667 344.333333333 838.333333333 347 799 c 2
 348 791 l 1
 340 791 l 1
 224 791 l 1
 217 791 l 1
EndSplineSet
EndChar

StartChar: three
Encoding: 51 51 152
Width: 1064
VWidth: 1691
Flags: W
LayerCount: 2
Fore
SplineSet
475 671 m 1
 483 671 l 2
 535.666666667 671 583.333333333 674 626 680 c 0
 668.666666667 686 705 697.333333333 735 714 c 0
 764.333333333 730.666666667 787 752.833333333 803 780.5 c 128
 819 808.166666667 827 844 827 888 c 0
 827 923.333333333 820.666666667 953.666666667 808 979 c 128
 795.333333333 1004.33333333 777.666666667 1025 755 1041 c 0
 731.666666667 1057 704.666666667 1068.66666667 674 1076 c 0
 642.666666667 1083.33333333 609.333333333 1087 574 1087 c 0
 534.666666667 1087 499.5 1081.16666667 468.5 1069.5 c 128
 437.5 1057.83333333 410.666666667 1041.33333333 388 1020 c 0
 366 998 349 972.5 337 943.5 c 128
 325 914.5 319 882 319 846 c 2
 319 839 l 1
 312 839 l 1
 204 839 l 1
 197 839 l 1
 197 846 l 2
 197 900 206.333333333 948.833333333 225 992.5 c 128
 243.666666667 1036.16666667 273.333333333 1076.66666667 314 1114 c 0
 352.666666667 1148 396.333333333 1169.66666667 445 1179 c 0
 494.333333333 1188.33333333 545 1193 597 1193 c 0
 647 1193 694 1187 738 1175 c 0
 780 1163 816.666666667 1144.83333333 848 1120.5 c 128
 879.333333333 1096.16666667 904.166666667 1065.16666667 922.5 1027.5 c 128
 940.833333333 989.833333333 950 945.666666667 950 895 c 0
 950 832.333333333 935.666666667 778.333333333 907 733 c 0
 881.666666667 691.666666667 844 658.666666667 794 634 c 1
 830 621.333333333 860 605.333333333 884 586 c 0
 912 564 934.166666667 539.5 950.5 512.5 c 128
 966.833333333 485.5 978 457 984 427 c 0
 990 397.666666667 993 369.666666667 993 343 c 0
 993 293 984.333333333 246.333333333 967 203 c 128
 949.666666667 159.666666667 924.166666667 121.5 890.5 88.5 c 128
 856.833333333 55.5 815.666666667 29 767 9 c 0
 717 -11 660 -21.3333333333 596 -22 c 0
 523.333333333 -22 460.333333333 -15.6666666667 407 -3 c 0
 355 9.66666666667 311.666666667 30.6666666667 277 60 c 128
 242.333333333 89.3333333333 215.333333333 128 196 176 c 0
 176.666666667 223.333333333 163.333333333 282.333333333 156 353 c 2
 156 361 l 1
 163 361 l 1
 272 361 l 1
 279 361 l 1
 279 354 l 2
 279 264.666666667 305.333333333 197.333333333 358 152 c 0
 412 106.666666667 484 84 574 84 c 0
 618 84 659 91 697 105 c 0
 734.333333333 119 765.833333333 137.833333333 791.5 161.5 c 128
 817.166666667 185.166666667 837 212.833333333 851 244.5 c 128
 865 276.166666667 871.333333333 308.666666667 870 342 c 0
 868 388.666666667 857.166666667 427.166666667 837.5 457.5 c 128
 817.833333333 487.833333333 791.333333333 512 758 530 c 0
 723.333333333 548 682.333333333 560 635 566 c 0
 587 572 536.333333333 573.333333333 483 570 c 2
 475 570 l 1
 475 577 l 1
 475 664 l 1
 475 671 l 1
EndSplineSet
EndChar

StartChar: four
Encoding: 52 52 153
Width: 1066
VWidth: 1692
Flags: W
LayerCount: 2
Fore
SplineSet
717 997 m 1
 288 396 l 1
 717 396 l 1
 717 997 l 1
717 10 m 1
 717 290 l 1
 168 290 l 1
 161 290 l 1
 161 297 l 1
 161 389 l 1
 161 391 l 1
 162 393 l 1
 729 1180 l 1
 731 1183 l 1
 735 1183 l 1
 834 1183 l 1
 841 1183 l 1
 841 1176 l 1
 841 396 l 1
 1000 396 l 1
 1007 396 l 1
 1007 388 l 1
 1007 297 l 1
 1007 290 l 1
 1000 290 l 1
 841 290 l 1
 841 10 l 1
 841 3 l 1
 834 3 l 1
 724 3 l 1
 717 3 l 1
 717 10 l 1
EndSplineSet
EndChar

StartChar: five
Encoding: 53 53 154
Width: 1063
VWidth: 1690
Flags: W
LayerCount: 2
Fore
SplineSet
278 324 m 1
 279 318 l 2
 289.666666667 239.333333333 321 180.333333333 373 141 c 0
 427 101.666666667 493.666666667 82.3333333333 573 83 c 0
 617.666666667 83 658.333333333 90.3333333333 695 105 c 0
 731 120.333333333 761 141.333333333 785 168 c 128
 809 194.666666667 827.166666667 225.666666667 839.5 261 c 128
 851.833333333 296.333333333 858 334.666666667 858 376 c 0
 858 418.666666667 851.166666667 458 837.5 494 c 128
 823.833333333 530 804.666666667 560.833333333 780 586.5 c 128
 755.333333333 612.166666667 724.666666667 632 688 646 c 0
 650.666666667 660 609 667 563 667 c 0
 507.666666667 667 458 657.333333333 414 638 c 0
 372 618.666666667 334.666666667 588.333333333 302 547 c 2
 300 544 l 1
 296 545 l 1
 207 556 l 1
 200 557 l 1
 201 564 l 1
 297 1174 l 1
 298 1180 l 1
 304 1180 l 1
 909 1180 l 1
 916 1180 l 1
 916 1173 l 1
 916 1082 l 1
 916 1074 l 1
 909 1074 l 1
 401 1074 l 1
 331 703 l 1
 349.666666667 714.333333333 367 724 383 732 c 0
 403.666666667 742 424.833333333 750.333333333 446.5 757 c 128
 468.166666667 763.666666667 490.333333333 768 513 770 c 0
 535.666666667 772 561.666666667 773 591 773 c 0
 648.333333333 773 701.333333333 764 750 746 c 0
 797.333333333 727.333333333 838.333333333 701 873 667 c 128
 907.666666667 633 934.333333333 591 953 541 c 0
 971.666666667 491.666666667 981 436.666666667 981 376 c 0
 981 312.666666667 970.5 256.333333333 949.5 207 c 128
 928.5 157.666666667 900.166666667 115.833333333 864.5 81.5 c 128
 828.833333333 47.1666666667 787.666666667 21 741 3 c 0
 692.333333333 -15 642.333333333 -23.6666666667 591 -23 c 0
 531.666666667 -23 476 -17.3333333333 424 -6 c 0
 373.333333333 5.33333333333 329 24.6666666667 291 52 c 128
 253 79.3333333333 222.333333333 114.5 199 157.5 c 128
 175.666666667 200.5 161.666666667 253.666666667 157 317 c 2
 156 324 l 1
 164 324 l 1
 272 324 l 1
 278 324 l 1
EndSplineSet
EndChar

StartChar: six
Encoding: 54 54 155
Width: 1066
VWidth: 1691
Flags: W
LayerCount: 2
Fore
SplineSet
809 578 m 0
 765.666666667 626 696.333333333 650.333333333 601 651 c 0
 558.333333333 651 520.166666667 643.333333333 486.5 628 c 128
 452.833333333 612.666666667 424.666666667 592 402 566 c 0
 379.333333333 540 362 509.833333333 350 475.5 c 128
 338 441.166666667 332 404.333333333 332 365 c 0
 332 332.333333333 336.666666667 299.333333333 346 266 c 0
 355.333333333 232.666666667 370.666666667 202.666666667 392 176 c 0
 413.333333333 148.666666667 441.333333333 126.333333333 476 109 c 0
 510 91.6666666667 552.333333333 83.3333333333 603 84 c 0
 655 84 698.333333333 92.3333333333 733 109 c 0
 767 125.666666667 794.333333333 147.666666667 815 175 c 0
 835.666666667 203 850.666666667 234 860 268 c 0
 869.333333333 302.666666667 874 337.333333333 874 372 c 0
 874 460.666666667 852.333333333 529.333333333 809 578 c 0
854 887 m 1
 852 892 l 2
 839.333333333 951.333333333 815.333333333 999 780 1035 c 0
 743.333333333 1069.66666667 692.666666667 1087 628 1087 c 0
 553.333333333 1087 494.666666667 1070.66666667 452 1038 c 0
 409.333333333 1004.66666667 377 962.333333333 355 911 c 0
 333 859 318 802.333333333 310 741 c 0
 303.333333333 687 297.666666667 635.666666667 293 587 c 1
 305.666666667 603 318.666666667 619 332 635 c 0
 350.666666667 658.333333333 372 678.666666667 396 696 c 0
 420.666666667 714 450 728.5 484 739.5 c 128
 518 750.5 558.333333333 756 605 756 c 0
 731.666666667 756 828.666666667 721.5 896 652.5 c 128
 963.333333333 583.5 997 488.666666667 997 368 c 0
 997 246.666666667 963 151.333333333 895 82 c 128
 827 12.6666666667 729 -22 601 -22 c 0
 537.666666667 -22 479 -12 425 8 c 0
 373 28 328 60.6666666667 290 106 c 0
 252 151.333333333 222.333333333 210.333333333 201 283 c 0
 179.666666667 355.666666667 169 444 169 548 c 0
 169 618.666666667 175 691.666666667 187 767 c 0
 199.666666667 843 222.333333333 912.333333333 255 975 c 0
 287.666666667 1038.33333333 332.333333333 1090.33333333 389 1131 c 0
 447.666666667 1172.33333333 523.666666667 1193 617 1193 c 0
 717 1193 799.333333333 1167.66666667 864 1117 c 0
 928.666666667 1066.33333333 966.666666667 992.333333333 978 895 c 2
 979 887 l 1
 971 887 l 1
 859 887 l 1
 854 887 l 1
EndSplineSet
EndChar

StartChar: seven
Encoding: 55 55 156
Width: 1068
VWidth: 1692
Flags: W
LayerCount: 2
Fore
SplineSet
201 1183 m 1
 209 1183 l 1
 981 1183 l 1
 988 1183 l 1
 988 1176 l 1
 988 1076 l 1
 988 1073 l 1
 986 1071 l 2
 900.666666667 975.666666667 828.333333333 877.666666667 769 777 c 0
 707.666666667 676.333333333 657 578.666666667 617 484 c 128
 577 389.333333333 547.333333333 301 528 219 c 128
 508.666666667 137 497.333333333 67.3333333333 494 10 c 2
 493 3 l 1
 486 3 l 1
 365 3 l 1
 358 3 l 1
 358 11 l 2
 363.333333333 96.3333333333 380.666666667 186.666666667 410 282 c 0
 439.333333333 377.333333333 476.5 471.666666667 521.5 565 c 128
 566.5 658.333333333 617.666666667 748.666666667 675 836 c 0
 728.333333333 918 782 992.666666667 836 1060 c 1
 209 1060 l 1
 201 1060 l 1
 201 1067 l 1
 201 1176 l 1
 201 1183 l 1
EndSplineSet
EndChar

StartChar: eight
Encoding: 56 56 157
Width: 1066
VWidth: 1691
Flags: W
LayerCount: 2
Fore
SplineSet
765 1040 m 0
 725.666666667 1071.33333333 664 1087 580 1087 c 0
 546 1087 513.666666667 1082.66666667 483 1074 c 0
 453 1065.33333333 427.333333333 1052.66666667 406 1036 c 0
 384.666666667 1019.33333333 368 998.166666667 356 972.5 c 128
 344 946.833333333 338 917.333333333 338 884 c 0
 338 848.666666667 345 818.333333333 359 793 c 128
 373 767.666666667 391.333333333 747.333333333 414 732 c 0
 438 716 465.333333333 703.666666667 496 695 c 0
 526.666666667 687 559 683 593 683 c 0
 626.333333333 683 657.333333333 687 686 695 c 0
 714 703 738 716.333333333 758 735 c 0
 777.333333333 753 792.833333333 775.833333333 804.5 803.5 c 128
 816.166666667 831.166666667 822 865.666666667 822 907 c 0
 821.333333333 964.333333333 802.333333333 1008.66666667 765 1040 c 0
700 563 m 0
 664 573 625.666666667 578 585 578 c 0
 542.333333333 578 503 573 467 563 c 0
 431.666666667 553 401.666666667 538 377 518 c 0
 351.666666667 498 331.833333333 472.666666667 317.5 442 c 128
 303.166666667 411.333333333 296 375 296 333 c 0
 296 297 302.833333333 264 316.5 234 c 128
 330.166666667 204 349.5 178 374.5 156 c 128
 399.5 134 430.333333333 116.333333333 467 103 c 0
 504.333333333 90.3333333333 546.333333333 84 593 84 c 0
 633.666666667 84 671 90 705 102 c 0
 739 114.666666667 768.333333333 132.333333333 793 155 c 128
 817.666666667 177.666666667 836.833333333 204.666666667 850.5 236 c 128
 864.166666667 267.333333333 871 302 871 340 c 0
 871 380 863.833333333 414.833333333 849.5 444.5 c 128
 835.166666667 474.166666667 815.5 498.833333333 790.5 518.5 c 128
 765.5 538.166666667 735.333333333 553 700 563 c 0
228 524 m 0
 262 576.666666667 310.333333333 616.333333333 373 643 c 1
 348.333333333 658.333333333 327 673 309 687 c 0
 287.666666667 703.666666667 270 721.666666667 256 741 c 128
 242 760.333333333 232 782.666666667 226 808 c 0
 219.333333333 832.666666667 216 863 216 899 c 0
 216 940.333333333 225.333333333 979.333333333 244 1016 c 0
 262.666666667 1052 287.5 1083.5 318.5 1110.5 c 128
 349.5 1137.5 386 1158.33333333 428 1173 c 0
 472 1187.66666667 519.333333333 1194.33333333 570 1193 c 0
 618 1193 664.666666667 1187.33333333 710 1176 c 0
 755.333333333 1164.66666667 795.333333333 1147 830 1123 c 0
 864.666666667 1099 892.333333333 1068.5 913 1031.5 c 128
 933.666666667 994.5 944 950.333333333 944 899 c 0
 944 836.333333333 931 782.666666667 905 738 c 0
 881 697.333333333 843.666666667 663.333333333 793 636 c 1
 853 612 900.666666667 575.666666667 936 527 c 0
 974.666666667 474.333333333 994 413 994 343 c 0
 994 284.333333333 983.833333333 232.166666667 963.5 186.5 c 128
 943.166666667 140.833333333 914.333333333 102.666666667 877 72 c 0
 839.666666667 41.3333333333 794.333333333 18 741 2 c 0
 685.666666667 -14 625 -22 559 -22 c 0
 513 -22 466.666666667 -14.6666666667 420 0 c 0
 374.666666667 14.6666666667 333.833333333 36.8333333333 297.5 66.5 c 128
 261.166666667 96.1666666667 231.333333333 133 208 177 c 0
 184.666666667 221.666666667 173.333333333 273.333333333 174 332 c 0
 174 403.333333333 192 467.333333333 228 524 c 0
EndSplineSet
EndChar

StartChar: nine
Encoding: 57 57 158
Width: 1066
VWidth: 1691
Flags: W
LayerCount: 2
Fore
SplineSet
765 1012 m 0
 717.666666667 1064.66666667 651.333333333 1092 566 1094 c 1
 473.333333333 1092 404.333333333 1065 359 1013 c 0
 313.666666667 960.333333333 291 888 291 796 c 0
 291 706.666666667 314.333333333 637.333333333 361 588 c 0
 407.666666667 538.666666667 476 514 566 514 c 0
 608.666666667 514 646.666666667 521.666666667 680 537 c 128
 713.333333333 552.333333333 741.666666667 573.333333333 765 600 c 0
 787.666666667 626 804.666666667 656.333333333 816 691 c 0
 827.333333333 725.666666667 833 763 833 803 c 0
 833.666666667 889 811 958.666666667 765 1012 c 0
312 278 m 1
 313 272 l 2
 325.666666667 209.333333333 350 162.333333333 386 131 c 0
 422.666666667 99.6666666667 475 84 543 84 c 0
 615 84 672.666666667 100.333333333 716 133 c 0
 758.666666667 166.333333333 791 208.666666667 813 260 c 0
 835.666666667 311.333333333 851.333333333 366.666666667 860 426 c 0
 867.333333333 480 872.333333333 531.666666667 875 581 c 1
 840.333333333 527.666666667 798.333333333 486.333333333 749 457 c 0
 691.666666667 425 625.333333333 409 550 409 c 0
 490.666666667 409 437.333333333 418 390 436 c 0
 344 454 304.5 480.166666667 271.5 514.5 c 128
 238.5 548.833333333 213 589.666666667 195 637 c 0
 177.666666667 684.333333333 169 737.333333333 169 796 c 0
 169 852.666666667 177 905 193 953 c 0
 209 1001.66666667 233.166666667 1043.83333333 265.5 1079.5 c 128
 297.833333333 1115.16666667 338.333333333 1143 387 1163 c 0
 437 1183 496.666666667 1193 566 1193 c 0
 650.666666667 1193 721.333333333 1177 778 1145 c 0
 832.666666667 1113 876.333333333 1070 909 1016 c 0
 941.666666667 962 964.666666667 898.333333333 978 825 c 0
 991.333333333 751.666666667 998.333333333 674 999 592 c 0
 999 491.333333333 988 403 966 327 c 0
 944 251 913.666666667 187 875 135 c 0
 835.666666667 83 788.666666667 43.6666666667 734 17 c 0
 677.333333333 -9 615.333333333 -22 548 -22 c 0
 499.333333333 -22 453.666666667 -16.3333333333 411 -5 c 0
 369.666666667 6.33333333333 333.333333333 24.1666666667 302 48.5 c 128
 270.666666667 72.8333333333 245.166666667 103.5 225.5 140.5 c 128
 205.833333333 177.5 194 220.666666667 190 270 c 2
 189 278 l 1
 197 278 l 1
 306 278 l 1
 312 278 l 1
EndSplineSet
EndChar

StartChar: uni0622
Encoding: 1570 1570 159
Width: 309
VWidth: 1600
Flags: HMW
AnchorPoint: "Anchor-5" 162 1480 basechar 0
AnchorPoint: "Anchor-3" 153 -149 basechar 0
LayerCount: 2
Fore
SplineSet
465 1317 m 1
 547 1217 l 1
 467 1133 386 1090 254 1090 c 0
 105 1090 81 1138 18 1138 c 0
 -33 1138 -84 1074 -129 1029 c 1
 -220 1120 l 1
 -156 1184 -89 1266 15 1266 c 0
 89 1266 154 1218 252 1218 c 0
 350 1218 407 1259 465 1317 c 1
90 946 m 1
 218 946 l 1
 218 0 l 1
 90 0 l 1
 90 946 l 1
EndSplineSet
Validated: 1
PairPos2: "'kern' Horizontal Kerning lookup 6 subtable 2" uniE008 dx=200 dy=0 dh=200 dv=0 dx=0 dy=0 dh=0 dv=0
PairPos2: "'kern' Horizontal Kerning lookup 6 subtable 2" uniE006 dx=200 dy=0 dh=200 dv=0 dx=0 dy=0 dh=0 dv=0
PairPos2: "'kern' Horizontal Kerning lookup 6 subtable 2" uniFEDB dx=200 dy=0 dh=200 dv=0 dx=0 dy=0 dh=0 dv=0
PairPos2: "'kern' Horizontal Kerning lookup 6 subtable 2" uni06AF dx=200 dy=0 dh=200 dv=0 dx=0 dy=0 dh=0 dv=0
PairPos2: "'kern' Horizontal Kerning lookup 6 subtable 2" uni06A9 dx=200 dy=0 dh=200 dv=0 dx=0 dy=0 dh=0 dv=0
PairPos2: "'kern' Horizontal Kerning lookup 6 subtable 2" uniFB94 dx=200 dy=0 dh=200 dv=0 dx=0 dy=0 dh=0 dv=0
PairPos2: "'kern' Horizontal Kerning lookup 6 subtable 2" uniFB90 dx=200 dy=0 dh=200 dv=0 dx=0 dy=0 dh=0 dv=0
PairPos2: "'kern' Horizontal Kerning lookup 6 subtable 3" uni063A dx=-211 dy=0 dh=-211 dv=0 dx=0 dy=0 dh=0 dv=0
PairPos2: "'kern' Horizontal Kerning lookup 6 subtable 3" uni0639 dx=-211 dy=0 dh=-211 dv=0 dx=0 dy=0 dh=0 dv=0
PairPos2: "'kern' Horizontal Kerning lookup 6 subtable 2" uniFEFB dx=240 dy=0 dh=240 dv=0 dx=0 dy=0 dh=0 dv=0
PairPos2: "'kern' Horizontal Kerning lookup 6 subtable 2" uniFEF9 dx=240 dy=0 dh=240 dv=0 dx=0 dy=0 dh=0 dv=0
PairPos2: "'kern' Horizontal Kerning lookup 6 subtable 2" uniFEF7 dx=240 dy=0 dh=240 dv=0 dx=0 dy=0 dh=0 dv=0
PairPos2: "'kern' Horizontal Kerning lookup 6 subtable 2" uniFEF5 dx=240 dy=0 dh=240 dv=0 dx=0 dy=0 dh=0 dv=0
PairPos2: "'kern' Horizontal Kerning lookup 6 subtable 2" uniFEDF dx=222 dy=0 dh=222 dv=0 dx=0 dy=0 dh=0 dv=0
PairPos2: "'kern' Horizontal Kerning lookup 6 subtable 2" uni0644 dx=242 dy=0 dh=242 dv=0 dx=0 dy=0 dh=0 dv=0
PairPos2: "'kern' Horizontal Kerning lookup 6 subtable 2" uni0625 dx=163 dy=0 dh=163 dv=0 dx=0 dy=0 dh=0 dv=0
PairPos2: "'kern' Horizontal Kerning lookup 6 subtable 2" uni0623 dx=132 dy=0 dh=132 dv=0 dx=0 dy=0 dh=0 dv=0
PairPos2: "'kern' Horizontal Kerning lookup 6 subtable 2" uni0622 dx=475 dy=0 dh=475 dv=0 dx=0 dy=0 dh=0 dv=0
LCarets2: 1 0
Ligature2: "'liga' Standard Ligatures in Arabic lookup 5 subtable" uni0627 uni0653
Substitution2: "'fina' Terminal Forms in Arabic lookup 1 subtable" uniFE82
EndChar

StartChar: uni0643
Encoding: 1603 1603 178
Width: 1627
VWidth: 1600
Flags: HMW
AnchorPoint: "Anchor-5" 673 1192 basechar 0
AnchorPoint: "Anchor-3" 774 -356 basechar 0
LayerCount: 2
Fore
SplineSet
1408 359 m 0
 1408 647 1359 814 1243 1015 c 1
 1355 1080 l 1
 1479 865 1537 663 1537 359 c 0
 1537 272 1511 181 1446 112 c 0
 1378 40 1290 0 885 0 c 0
 671 0 474 2 324 56 c 0
 163 113 90 206 90 346 c 0
 90 415 107 463 124 528 c 1
 248 495 l 1
 235 446 218 393 218 345 c 0
 218 253 278 209 365 179 c 0
 496 135 713 129 951 129 c 0
 1221 129 1314 159 1352 200 c 0
 1390 241 1408 297 1408 359 c 0
EndSplineSet
Refer: 28 1620 N 1 0 0 1 600 -769 2
Validated: 1
Substitution2: "'init' Initial Forms in Arabic lookup 1 subtable" uniFEDB
Substitution2: "'medi' Medial Forms in Arabic lookup 1 subtable" uniFEDC
Substitution2: "'fina' Terminal Forms in Arabic lookup 1 subtable" uniFEDA
EndChar

StartChar: uniFEEE
Encoding: 65262 65262 205
Width: 854
VWidth: 1600
Flags: HMW
AnchorPoint: "Anchor-5" 398 836 basechar 0
AnchorPoint: "Anchor-3" 395 -738 basechar 0
LayerCount: 2
Fore
SplineSet
707 129 m 1
 764 129 821 129 878 129 c 1
 878 0 l 21
 813 0 747 0 682 0 c 1
 632 -238 444 -409 180 -512 c 1
 134 -391 l 1
 331 -313 498 -190 550 0 c 1
 405 0 l 2
 215 0 90 109 90 278 c 0
 90 456 232 645 403 645 c 0
 592 645 697 362 707 129 c 1
403 516 m 0
 313 516 219 394 219 281 c 0
 219 169 304 130 409 130 c 2
 573 130 l 1
 573 141 573 152 573 163 c 0
 573 300 489 516 403 516 c 0
EndSplineSet
Validated: 1
PairPos2: "'kern' Horizontal Kerning lookup 6 subtable 3" uni063A dx=-299 dy=0 dh=-299 dv=0 dx=0 dy=0 dh=0 dv=0
PairPos2: "'kern' Horizontal Kerning lookup 6 subtable 3" uni0639 dx=-299 dy=0 dh=-299 dv=0 dx=0 dy=0 dh=0 dv=0
EndChar

StartChar: uniFEDA
Encoding: 65242 65242 243
Width: 1729
VWidth: 1600
Flags: HMW
AnchorPoint: "Anchor-5" 806 1249 basechar 0
AnchorPoint: "Anchor-5" 1064 1836 basechar 0
AnchorPoint: "Anchor-3" 822 -267 basechar 0
AnchorPoint: "Anchor-3" 848 189 basechar 0
LayerCount: 2
Fore
SplineSet
1485 163 m 1
 1424 63 1309 0 1149 0 c 2
 829 0 l 2
 637 0 460 8 324 56 c 0
 163 113 90 206 90 346 c 0
 90 415 107 463 124 528 c 1
 248 495 l 1
 235 446 218 393 218 345 c 0
 218 253 278 209 365 179 c 0
 473 142 640 129 829 129 c 2
 1149 129 l 2
 1254 129 1314 159 1352 200 c 0
 1390 241 1408 297 1408 359 c 0
 1408 647 1359 814 1243 1015 c 1
 1355 1080 l 1
 1479 865 1548 663 1548 360 c 0
 1548 259 1598 129 1737 129 c 0
 1738 129 1738 129 1739 129 c 2
 1753 129 l 1
 1753 0 l 1
 1739 0 l 2
 1604 0 1523 66 1485 163 c 1
EndSplineSet
Refer: 28 1620 N 1 0 0 1 600 -769 2
Validated: 1
EndChar

StartChar: uniFB8F
Encoding: 64399 64399 250
Width: 1729
VWidth: 1600
Flags: HMW
AnchorPoint: "Anchor-5" 1070 1639 basechar 0
AnchorPoint: "Anchor-3" 821 -374 basechar 0
LayerCount: 2
Fore
SplineSet
885 -0 m 0
 671 0 474 2 324 56 c 0
 163 113 90 206 90 346 c 0
 90 415 107 463 124 528 c 1
 248 495 l 1
 235 446 218 393 218 345 c 0
 218 253 278 209 365 179 c 0
 496 135 713 129 951 129 c 0
 1200 129 l 0
 1341 129 1409 186 1409 305 c 0
 1409 432 1200 525 1019 618 c 2
 823 714 l 1
 823 887 l 1
 1538 1348 l 1
 1538 1194 l 1
 936 805 l 1
 1074 734 l 2
 1175 682 1283 631 1370 569 c 1
 1621 390 1531 268 1640 156 c 0
 1657 138 1688 129 1739 129 c 2
 1750 129 l 1
 1750 64 l 1
 1750 0 l 1
 1739 0 l 2
 1676 0 1603 11 1548 67 c 0
 1525 90 1507 111 1493 131 c 1
 1437 43 1333 0 1200 0 c 0
 885 -0 l 0
EndSplineSet
Validated: 1
EndChar

StartChar: uniE006
Encoding: 57350 57350 262
Width: 638
VWidth: 1600
Flags: HW
HStem: 0 129<-14 363.654>
VStem: 419 129<183.024 404.669>
AnchorPoint: "Anchor-5" 112 1446 basechar 0
AnchorPoint: "Anchor-3" 197 -242 basechar 0
LayerCount: 2
Fore
SplineSet
548 1194 m 1
 -54 805 l 1
 84 734 l 2
 299 624 548 514 548 305 c 0
 548 99 413 0 210 0 c 0
 -14 0 l 1
 -14 129 l 1
 210 129 l 0
 351 129 419 186 419 305 c 0
 419 432 210 525 29 618 c 1
 -167 714 l 1
 -167 887 l 1
 548 1348 l 1
 548 1194 l 1
EndSplineSet
Validated: 1
EndChar

StartChar: uniE007
Encoding: 57351 57351 263
Width: 749
VWidth: 1600
Flags: W
HStem: 0 129<-14 366.319 635.928 760>
AnchorPoint: "Anchor-5" 110 1446 basechar 0
AnchorPoint: "Anchor-3" 165 -202 basechar 0
LayerCount: 2
Fore
SplineSet
760 64 m 1
 760 0 l 1
 749 0 l 2
 686 0 613 11 558 67 c 0
 535 90 517 111 503 131 c 1
 447 43 343 0 210 0 c 0
 -14 0 l 1
 -14 129 l 1
 210 129 l 0
 351 129 419 186 419 305 c 0
 419 432 210 525 29 618 c 2
 -167 714 l 1
 -167 887 l 1
 548 1348 l 1
 548 1194 l 1
 -54 805 l 1
 84 734 l 2
 185 682 293 631 380 569 c 1
 631 390 541 268 650 156 c 0
 667 138 698 129 749 129 c 2
 760 129 l 1
 760 64 l 1
EndSplineSet
Validated: 1
EndChar

StartChar: dollar
Encoding: 36 36 268
Width: 1066
VWidth: 1687
Flags: W
LayerCount: 2
Fore
SplineSet
536 673 m 1
 536 1091 l 1
 506.666666667 1090.33333333 479.333333333 1085.33333333 454 1076 c 0
 426 1066 402 1052 382 1034 c 0
 362 1016 346.166666667 994.666666667 334.5 970 c 128
 322.833333333 945.333333333 317 917.666666667 317 887 c 0
 317 851 322.666666667 821.166666667 334 797.5 c 128
 345.333333333 773.833333333 361 754 381 738 c 0
 401.666666667 722 426 709 454 699 c 0
 480 689.666666667 507.333333333 681 536 673 c 1
633 533 m 1
 633 65 l 1
 665.666666667 65.6666666667 696.666666667 71.6666666667 726 83 c 0
 757.333333333 95 784.5 111.333333333 807.5 132 c 128
 830.5 152.666666667 848.666666667 177.5 862 206.5 c 128
 875.333333333 235.5 882 267.666666667 882 303 c 0
 882 343.666666667 875.5 377.166666667 862.5 403.5 c 128
 849.5 429.833333333 831.666666667 451.333333333 809 468 c 0
 786.333333333 484.666666667 759.666666667 498 729 508 c 0
 699.666666667 517.333333333 667.666666667 525.666666667 633 533 c 1
633 -163 m 1
 626 -163 l 1
 545 -163 l 1
 538 -163 l 1
 538 -156 l 1
 538 -35 l 1
 440 -28.3333333333 360 -1.66666666667 298 45 c 0
 234 93 191.666666667 164.666666667 171 260 c 0
 171 260 l 2
 169 274.666666667 167.333333333 289 166 303 c 0
 164.666666667 316.333333333 163.666666667 329.666666667 163 343 c 2
 162 351 l 1
 170 351 l 1
 280 351 l 1
 287 351 l 1
 287 344 l 2
 287 306.666666667 293 271.833333333 305 239.5 c 128
 317 207.166666667 334.166666667 178.833333333 356.5 154.5 c 128
 378.833333333 130.166666667 406 110.333333333 438 95 c 0
 468 81 500.666666667 72.6666666667 536 70 c 1
 536 554 l 1
 489.333333333 564.666666667 445.666666667 577.333333333 405 592 c 0
 363 607.333333333 326.333333333 627.333333333 295 652 c 0
 263.666666667 676.666666667 239.166666667 707.333333333 221.5 744 c 128
 203.833333333 780.666666667 195 825.666666667 195 879 c 0
 195 927 204.166666667 970.333333333 222.5 1009 c 128
 240.833333333 1047.66666667 265.833333333 1080.83333333 297.5 1108.5 c 128
 329.166666667 1136.16666667 365.666666667 1157 407 1171 c 0
 447.666666667 1184.33333333 491.333333333 1191 538 1191 c 1
 538 1286 l 1
 538 1293 l 1
 545 1293 l 1
 626 1293 l 1
 633 1293 l 1
 633 1286 l 1
 633 1190 l 1
 679 1189.33333333 722 1183 762 1171 c 0
 802.666666667 1157.66666667 838 1138.16666667 868 1112.5 c 128
 898 1086.83333333 921.666666667 1055 939 1017 c 128
 956.333333333 979 966.333333333 936.333333333 969 889 c 2
 969 881 l 1
 961 881 l 1
 852 881 l 1
 845 881 l 1
 845 888 l 2
 845 916.666666667 839.166666667 943.333333333 827.5 968 c 128
 815.833333333 992.666666667 800.666666667 1013.66666667 782 1031 c 0
 762.666666667 1048.33333333 739.666666667 1061.66666667 713 1071 c 0
 689 1079.66666667 662.333333333 1084.66666667 633 1086 c 1
 633 653 l 1
 688.333333333 639.666666667 738.666666667 625.666666667 784 611 c 0
 830 595.666666667 869.333333333 574.666666667 902 548 c 0
 934 521.333333333 959 487.333333333 977 446 c 0
 995 404.666666667 1004 351.333333333 1004 286 c 0
 1004 236 993 191.333333333 971 152 c 0
 949 112.666666667 920.5 79.1666666667 885.5 51.5 c 128
 850.5 23.8333333333 810.666666667 2.66666666667 766 -12 c 0
 722.666666667 -26 678.333333333 -33.6666666667 633 -35 c 1
 633 -156 l 1
 633 -163 l 1
EndSplineSet
EndChar

StartChar: ampersand
Encoding: 38 38 269
Width: 1249
VWidth: 1693
Flags: W
LayerCount: 2
Fore
SplineSet
755 919 m 0
 764.333333333 940.333333333 768.333333333 963 767 987 c 256
 765.666666667 1011 758.666666667 1033 746 1053 c 256
 734 1073 717 1089.66666667 695 1103 c 256
 673.666666667 1115.66666667 648 1122 618 1122 c 0
 597.333333333 1122 578 1118.66666667 560 1112 c 256
 542 1105.33333333 525.333333333 1096 510 1084 c 0
 495.333333333 1072 483.666666667 1057.66666667 475 1041 c 256
 466.333333333 1024.33333333 462 1005.33333333 462 984 c 0
 462 966.666666667 466.333333333 947.666666667 475 927 c 0
 483.666666667 905.666666667 494.666666667 885.333333333 508 866 c 0
 520.666666667 846 534.333333333 826.666666667 549 808 c 0
 561.666666667 792 573.333333333 777.666666667 584 765 c 1
 616 784.333333333 648 805.333333333 680 828 c 0
 713.333333333 851.333333333 738.333333333 881.666666667 755 919 c 0
542 628 m 1
 510.666666667 612.666666667 481.333333333 595 454 575 c 0
 425.333333333 553.666666667 401 529.666666667 381 503 c 256
 360.333333333 476.333333333 344 448 332 418 c 256
 320 388 314 357 314 325 c 0
 314 285 320.666666667 249.666666667 334 219 c 256
 347.333333333 187.666666667 366 161 390 139 c 256
 413.333333333 117 441.333333333 100 474 88 c 256
 506.666666667 76 542.333333333 70 581 70 c 0
 645 70 701.333333333 84.6666666667 750 114 c 0
 798 142 841.666666667 179 881 225 c 1
 542 628 l 1
946 330 m 1
 964 363.333333333 976 397.666666667 982 433 c 0
 988 472.333333333 991 513 991 555 c 2
 991 562 l 1
 998 562 l 1
 1098 562 l 1
 1105 562 l 1
 1105 554 l 2
 1103 498.666666667 1096 443.666666667 1084 389 c 0
 1072.66666667 335.666666667 1052 285.333333333 1022 238 c 1
 1216 8 l 1
 1226 -4 l 1
 1211 -4 l 1
 1074 -4 l 1
 1071 -4 l 1
 1068 -1 l 1
 956 136 l 1
 904 75.3333333333 848 31.6666666667 788 5 c 0
 726 -22.3333333333 654 -36 572 -36 c 0
 518 -36 467.666666667 -27 421 -9 c 256
 373.666666667 9 332.666666667 34 298 66 c 256
 262.666666667 98 235 136.666666667 215 182 c 256
 195 227.333333333 185 277.666666667 185 333 c 0
 185 379 193 421.666666667 209 461 c 256
 225 500.333333333 246.666666667 536 274 568 c 256
 301.333333333 600 332.333333333 628 367 652 c 0
 399.666666667 674.666666667 434.333333333 694.666666667 471 712 c 1
 440.333333333 748.666666667 412.333333333 788 387 830 c 0
 359.666666667 875.333333333 346 926 346 982 c 0
 346 1021.33333333 353.333333333 1056.66666667 368 1088 c 256
 383.333333333 1118.66666667 403.666666667 1144.33333333 429 1165 c 256
 454.333333333 1185.66666667 484.333333333 1201.33333333 519 1212 c 0
 553 1222.66666667 588.666666667 1228 626 1228 c 0
 664 1228 699.333333333 1221.66666667 732 1209 c 256
 764.666666667 1196.33333333 792.333333333 1178.66666667 815 1156 c 256
 837.666666667 1134 855.666666667 1108.33333333 869 1079 c 256
 882.333333333 1049 889 1017.66666667 889 985 c 0
 889 943 882.333333333 907 869 877 c 0
 855.666666667 846.333333333 837.666666667 819.333333333 815 796 c 0
 793 772.666666667 767 751 737 731 c 0
 709.666666667 713 681.666666667 695.333333333 653 678 c 1
 946 330 l 1
EndSplineSet
EndChar

StartChar: quoteright
Encoding: 8217 8217 270
Width: 416
VWidth: 1785
Flags: W
LayerCount: 2
Fore
SplineSet
307 1113 m 2
 307 1061.66666667 295 1020.33333333 271 989 c 256
 247 957.666666667 216.333333333 936.333333333 179 925 c 2
 170 923 l 1
 170 932 l 1
 170 995 l 1
 170 999 l 1
 173 1001 l 2
 186.333333333 1009.66666667 198.666666667 1021.33333333 210 1036 c 256
 221.333333333 1050.66666667 227 1074 227 1106 c 2
 227 1156 l 1
 177 1156 l 1
 170 1156 l 1
 170 1163 l 1
 170 1313 l 1
 170 1320 l 1
 177 1320 l 1
 300 1320 l 1
 307 1320 l 1
 307 1313 l 1
 307 1113 l 2
EndSplineSet
EndChar

StartChar: plus
Encoding: 43 43 271
Width: 1232
VWidth: 1657
Flags: W
LayerCount: 2
Fore
SplineSet
625 820 m 1
 726 820 l 1
 733 820 l 1
 733 812 l 1
 733 447 l 1
 1098 447 l 1
 1106 447 l 1
 1106 440 l 1
 1106 340 l 1
 1106 333 l 1
 1098 333 l 1
 733 333 l 1
 733 -32 l 1
 733 -40 l 1
 726 -40 l 1
 625 -40 l 1
 618 -40 l 1
 618 -32 l 1
 618 333 l 1
 254 333 l 1
 246 333 l 1
 246 340 l 1
 246 440 l 1
 246 447 l 1
 254 447 l 1
 618 447 l 1
 618 812 l 1
 618 820 l 1
 625 820 l 1
EndSplineSet
EndChar

StartChar: comma
Encoding: 44 44 272
Width: 519
VWidth: 1558
Flags: W
LayerCount: 2
Fore
SplineSet
352 -181 m 2
 352 -232.333333333 340 -273.666666667 316 -305 c 256
 292 -336.333333333 261.333333333 -357.666666667 224 -369 c 2
 215 -373 l 1
 215 -363 l 1
 215 -300 l 1
 215 -296 l 1
 218 -294 l 2
 231.333333333 -285.333333333 244 -273.333333333 256 -258 c 0
 267.333333333 -243.333333333 273 -220.333333333 273 -189 c 2
 273 -138 l 1
 222 -138 l 1
 215 -138 l 1
 215 -131 l 1
 215 18 l 1
 215 25 l 1
 222 25 l 1
 345 25 l 1
 352 25 l 1
 352 18 l 1
 352 -181 l 2
EndSplineSet
EndChar

StartChar: semicolon
Encoding: 59 59 273
Width: 519
VWidth: 1631
Flags: W
LayerCount: 2
Fore
SplineSet
215 624 m 1
 215 773 l 1
 215 780 l 1
 222 780 l 1
 345 780 l 1
 352 780 l 1
 352 773 l 1
 352 624 l 1
 352 617 l 1
 345 617 l 1
 222 617 l 1
 215 617 l 1
 215 624 l 1
352 -109 m 2
 352 -160.333333333 340 -201.333333333 316 -232 c 256
 292 -263.333333333 261.333333333 -285 224 -297 c 2
 215 -300 l 1
 215 -290 l 1
 215 -228 l 1
 215 -224 l 1
 218 -222 l 2
 231.333333333 -213.333333333 244 -201.333333333 256 -186 c 0
 267.333333333 -171.333333333 273 -148 273 -116 c 2
 273 -66 l 1
 222 -66 l 1
 215 -66 l 1
 215 -58 l 1
 215 90 l 1
 215 97 l 1
 222 97 l 1
 345 97 l 1
 352 97 l 1
 352 90 l 1
 352 -109 l 2
EndSplineSet
EndChar

StartChar: question
Encoding: 63 63 274
Width: 936
VWidth: 1700
Flags: W
LayerCount: 2
Fore
SplineSet
439 10 m 1
 439 159 l 1
 439 166 l 1
 446 166 l 1
 570 166 l 1
 577 166 l 1
 577 159 l 1
 577 10 l 1
 577 3 l 1
 570 3 l 1
 446 3 l 1
 439 3 l 1
 439 10 l 1
449 318 m 2
 447.666666667 380.666666667 452 437.666666667 462 489 c 0
 472 541 499.333333333 590.333333333 544 637 c 0
 568.666666667 663 594.666666667 688.666666667 622 714 c 0
 648.666666667 738.666666667 673.333333333 763.333333333 696 788 c 0
 718 812.666666667 736.666666667 838.333333333 752 865 c 0
 766.666666667 891 774 919.333333333 774 950 c 0
 774 979.333333333 768.333333333 1006.66666667 757 1032 c 256
 745.666666667 1057.33333333 729 1079.66666667 707 1099 c 256
 685 1118.33333333 658 1133.33333333 626 1144 c 0
 594 1155.33333333 557.666666667 1161 517 1161 c 256
 476.333333333 1161 440.333333333 1154 409 1140 c 256
 377.666666667 1126 351 1106 329 1080 c 256
 307.666666667 1054.66666667 291.666666667 1025.33333333 281 992 c 256
 269.666666667 958.666666667 264.666666667 922.333333333 266 883 c 2
 266 875 l 1
 259 875 l 1
 156 875 l 1
 149 875 l 1
 148 882 l 2
 143.333333333 939.333333333 149.666666667 991.333333333 167 1038 c 256
 184.333333333 1085.33333333 210 1126 244 1160 c 256
 278 1194 318.666666667 1220.33333333 366 1239 c 256
 413.333333333 1257 464.666666667 1266 520 1266 c 0
 578 1266 630.333333333 1258.33333333 677 1243 c 256
 723.666666667 1227.66666667 763.333333333 1205.66666667 796 1177 c 256
 828 1149 852.666666667 1114.66666667 870 1074 c 256
 887.333333333 1033.33333333 896 989 896 941 c 0
 896 890.333333333 884.666666667 846.666666667 862 810 c 0
 840 774 813 740.666666667 781 710 c 0
 749.666666667 680 716.666666667 649.333333333 682 618 c 0
 648.666666667 587.333333333 620 553 596 515 c 0
 577.333333333 487 567 455.666666667 565 421 c 0
 563 385.666666667 561.666666667 351.333333333 561 318 c 2
 561 311 l 1
 554 311 l 1
 456 311 l 1
 449 311 l 1
 449 318 l 2
EndSplineSet
EndChar

StartChar: at
Encoding: 64 64 275
Width: 1494
VWidth: 1696
Flags: W
LayerCount: 2
Fore
SplineSet
713 345 m 0
 749.666666667 345 784 360 816 390 c 0
 849.333333333 421.333333333 878.666666667 459 904 503 c 256
 929.333333333 547 949 593.666666667 963 643 c 256
 977.666666667 692.333333333 984.666666667 736 984 774 c 0
 984 804.666666667 974 831.666666667 954 855 c 256
 934 878.333333333 907.666666667 890 875 890 c 0
 831.666666667 890 792.666666667 876.666666667 758 850 c 0
 722.666666667 823.333333333 692.666666667 789.666666667 668 749 c 256
 643.333333333 708.333333333 623.666666667 665 609 619 c 256
 595 573 588 531.333333333 588 494 c 0
 588 454.666666667 598.666666667 419.666666667 620 389 c 0
 641.333333333 359.666666667 672.333333333 345 713 345 c 0
1405 286 m 2
 1377.66666667 236 1344 191.333333333 1304 152 c 256
 1264 112.666666667 1220 79 1172 51 c 256
 1123.33333333 23.6666666667 1071.66666667 3 1017 -11 c 256
 962.333333333 -25 907 -32 851 -32 c 0
 759.666666667 -32 674.666666667 -15 596 19 c 256
 517.333333333 53 448.666666667 99.6666666667 390 159 c 256
 332 218.333333333 286.333333333 287.666666667 253 367 c 256
 219.666666667 446.333333333 203.333333333 530.666666667 204 620 c 0
 204 709.333333333 221 793 255 871 c 256
 289 949 335.333333333 1017 394 1075 c 256
 452.666666667 1133 520.666666667 1178.66666667 598 1212 c 256
 675.333333333 1245.33333333 757.666666667 1262 845 1262 c 0
 927 1262 1003.66666667 1248.66666667 1075 1222 c 256
 1147 1195.33333333 1209.33333333 1158 1262 1110 c 256
 1315.33333333 1062 1357.33333333 1005 1388 939 c 256
 1418.66666667 873 1434 800.333333333 1434 721 c 0
 1434 653.666666667 1421.66666667 589.666666667 1397 529 c 256
 1372.33333333 468.333333333 1341 415.666666667 1303 371 c 256
 1265 325.666666667 1222.33333333 289.333333333 1175 262 c 0
 1127 234.666666667 1080 221 1034 221 c 0
 1004 221 974 228.333333333 944 243 c 0
 917.333333333 256.333333333 897.666666667 276.666666667 885 304 c 1
 860.333333333 281.333333333 831.333333333 262.666666667 798 248 c 0
 761.333333333 232 724.333333333 224 687 224 c 256
 649.666666667 224 616 231 586 245 c 256
 556 259 530.666666667 278.333333333 510 303 c 256
 489.333333333 327 473.333333333 354.333333333 462 385 c 256
 450.666666667 416.333333333 445.333333333 449.666666667 446 485 c 0
 446 541.666666667 456 600.666666667 476 662 c 256
 496.666666667 722.666666667 525.666666667 778.666666667 563 830 c 0
 600.333333333 880.666666667 644.666666667 922.333333333 696 955 c 0
 748 987.666666667 806.666666667 1004 872 1004 c 0
 912.666666667 1004 951 994 987 974 c 0
 1017.66666667 956.666666667 1041.66666667 933.333333333 1059 904 c 1
 1080 965 l 1
 1081 970 l 1
 1086 970 l 1
 1199 970 l 1
 1209 970 l 1
 1206 961 l 1
 1035 451 l 2
 1028.33333333 431.666666667 1023.33333333 414 1020 398 c 0
 1016 382 1014.66666667 368.333333333 1016 357 c 0
 1016.66666667 346.333333333 1020 338 1026 332 c 256
 1032 326 1042.33333333 323 1057 323 c 0
 1089.66666667 323 1122 335.666666667 1154 361 c 256
 1186 386.333333333 1214.33333333 418.333333333 1239 457 c 0
 1263.66666667 496.333333333 1283 540.333333333 1297 589 c 256
 1311.66666667 637 1319 682.666666667 1319 726 c 0
 1319 794 1306.33333333 855 1281 909 c 256
 1255 963.666666667 1220.66666667 1009.66666667 1178 1047 c 256
 1134.66666667 1084.33333333 1084.66666667 1113.33333333 1028 1134 c 256
 971.333333333 1154 911.333333333 1164 848 1164 c 0
 771.333333333 1164 700.333333333 1149.33333333 635 1120 c 256
 569.666666667 1090.66666667 514 1050.66666667 468 1000 c 256
 421.333333333 949.333333333 385 890.333333333 359 823 c 256
 333 755.666666667 320 684 320 608 c 256
 320 532.666666667 333.333333333 462.333333333 360 397 c 256
 387.333333333 331 425 273.666666667 473 225 c 256
 521 176.333333333 577 137.666666667 641 109 c 256
 705.666666667 80.3333333333 775.666666667 66 851 66 c 0
 894.333333333 66 937 71 979 81 c 256
 1021 91 1061 106 1099 126 c 256
 1137 145.333333333 1172.66666667 169 1206 197 c 256
 1238.66666667 225 1267.66666667 257 1293 293 c 2
 1296 296 l 1
 1299 296 l 1
 1399 296 l 1
 1411 296 l 1
 1405 286 l 2
EndSplineSet
EndChar

StartChar: A
Encoding: 65 65 276
Width: 1274
VWidth: 1696
Flags: W
LayerCount: 2
Fore
SplineSet
701 1105 m 1
 468 494 l 1
 935 494 l 1
 701 1105 l 1
145 0 m 1
 149 10 l 1
 632 1219 l 1
 634 1224 l 1
 639 1224 l 1
 772 1224 l 1
 777 1224 l 1
 779 1219 l 1
 1251 10 l 1
 1254 0 l 1
 1244 0 l 1
 1126 0 l 1
 1121 0 l 1
 1119 5 l 1
 980 382 l 1
 423 382 l 1
 280 4 l 1
 278 0 l 1
 273 0 l 1
 155 0 l 1
 145 0 l 1
EndSplineSet
EndChar

StartChar: B
Encoding: 66 66 277
Width: 1278
VWidth: 1696
Flags: W
LayerCount: 2
Fore
SplineSet
390 1111 m 1
 390 693 l 1
 679 693 l 2
 740.333333333 693 791.666666667 698 833 708 c 0
 873.666666667 718 906.333333333 732.333333333 931 751 c 0
 955 769.666666667 972.333333333 792.333333333 983 819 c 0
 993 846.333333333 998 878 998 914 c 0
 998 950.666666667 992 981.666666667 980 1007 c 0
 968 1031.66666667 949 1051.66666667 923 1067 c 0
 895.666666667 1082.33333333 860.333333333 1093.66666667 817 1101 c 0
 772.333333333 1108.33333333 717.666666667 1111.66666667 653 1111 c 2
 390 1111 l 1
390 582 m 1
 390 112 l 1
 680 112 l 2
 745.333333333 112 802 115 850 121 c 0
 897.333333333 126.333333333 936 137.333333333 966 154 c 0
 995.333333333 170.666666667 1017.33333333 194.333333333 1032 225 c 0
 1046.66666667 255.666666667 1054 297.333333333 1054 350 c 0
 1054 399.333333333 1046 439 1030 469 c 0
 1014 499 990.666666667 522 960 538 c 0
 928.666666667 554.666666667 890.666666667 566 846 572 c 0
 800.666666667 578 750.333333333 581.333333333 695 582 c 2
 390 582 l 1
261 -7 m 1
 261 0 l 1
 261 1217 l 1
 261 1224 l 1
 268 1224 l 1
 714 1224 l 2
 788 1224 851.666666667 1216.33333333 905 1201 c 0
 957.666666667 1185.66666667 1000.33333333 1164.33333333 1033 1137 c 0
 1065.66666667 1109 1089.66666667 1076 1105 1038 c 0
 1120.33333333 999.333333333 1128 957 1128 911 c 0
 1128 867 1122.16666667 829 1110.5 797 c 128
 1098.83333333 765 1083.66666667 738.5 1065 717.5 c 128
 1046.33333333 696.5 1025 679.666666667 1001 667 c 0
 985.666666667 659 969.333333333 652.666666667 952 648 c 1
 1026 632.666666667 1082 600 1120 550 c 0
 1162 494.666666667 1183 425.666666667 1183 343 c 0
 1183 279 1173 224.333333333 1153 179 c 0
 1133 133.666666667 1105 97.3333333333 1069 70 c 0
 1033 42.6666666667 990 23 940 11 c 0
 888.666666667 -1 833 -7 773 -7 c 2
 268 -7 l 1
 261 -7 l 1
EndSplineSet
EndChar

StartChar: C
Encoding: 67 67 278
Width: 1376
VWidth: 1696
Flags: W
LayerCount: 2
Fore
SplineSet
1144 856 m 1
 1143 862 l 2
 1119.66666667 963.333333333 1076.66666667 1035.66666667 1014 1079 c 0
 949.333333333 1122.33333333 864.666666667 1144 760 1144 c 0
 686 1144 622.5 1129.5 569.5 1100.5 c 128
 516.5 1071.5 472.666666667 1032.66666667 438 984 c 0
 404 935.333333333 379 879 363 815 c 0
 347 750.333333333 339 682.333333333 339 611 c 0
 339 543.666666667 346 477.666666667 360 413 c 0
 374 348.333333333 397 291 429 241 c 0
 461.666666667 191 505.666666667 150.5 561 119.5 c 128
 616.333333333 88.5 686 73 770 73 c 0
 822 73 869.666666667 81.1666666667 913 97.5 c 128
 956.333333333 113.833333333 994 136.666666667 1026 166 c 0
 1057.33333333 195.333333333 1083.83333333 230 1105.5 270 c 128
 1127.16666667 310 1143.66666667 354 1155 402 c 2
 1157 407 l 1
 1162 407 l 1
 1282 407 l 1
 1291 407 l 1
 1289 398 l 2
 1275 339.333333333 1255 283.666666667 1229 231 c 0
 1203 177.666666667 1168.5 131 1125.5 91 c 128
 1082.5 51 1030 19.3333333333 968 -4 c 0
 905.333333333 -27.3333333333 832 -39.3333333333 748 -40 c 0
 650.666666667 -40 567.666666667 -22.3333333333 499 13 c 0
 431 47.6666666667 375.333333333 94.6666666667 332 154 c 0
 289.333333333 213.333333333 258.333333333 282.333333333 239 361 c 0
 219.666666667 439 209.666666667 521.333333333 209 608 c 0
 209 724.666666667 223.666666667 824 253 906 c 0
 282.333333333 988 322.666666667 1055.16666667 374 1107.5 c 128
 425.333333333 1159.83333333 486.666666667 1197.66666667 558 1221 c 0
 629.333333333 1244.33333333 707 1255.66666667 791 1255 c 0
 855.666666667 1255 915.666666667 1246.83333333 971 1230.5 c 128
 1026.33333333 1214.16666667 1075 1189.33333333 1117 1156 c 128
 1159 1122.66666667 1193.33333333 1081.66666667 1220 1033 c 128
 1246.66666667 984.333333333 1265.33333333 928.333333333 1276 865 c 2
 1277 856 l 1
 1269 856 l 1
 1150 856 l 1
 1144 856 l 1
EndSplineSet
EndChar

StartChar: D
Encoding: 68 68 279
Width: 1381
VWidth: 1696
Flags: W
LayerCount: 2
Fore
SplineSet
400 1111 m 1
 400 105 l 1
 673 105 l 2
 725.666666667 105 775.333333333 108 822 114 c 0
 868 120 915 135.333333333 963 160 c 0
 1003.66666667 180 1037 206.666666667 1063 240 c 0
 1088.33333333 274.666666667 1108.33333333 312.333333333 1123 353 c 0
 1137.66666667 393.666666667 1148.33333333 436.333333333 1155 481 c 0
 1161 525.666666667 1164 568.666666667 1164 610 c 0
 1164 654 1161.33333333 698.333333333 1156 743 c 0
 1150 788.333333333 1139.33333333 831.333333333 1124 872 c 0
 1108.66666667 912.666666667 1087.66666667 949.666666667 1061 983 c 0
 1034.33333333 1016.33333333 999.333333333 1044 956 1066 c 0
 919.333333333 1084.66666667 876 1097 826 1103 c 0
 775.333333333 1109 724.333333333 1111.66666667 673 1111 c 2
 400 1111 l 1
271 -7 m 1
 271 0 l 1
 271 1217 l 1
 271 1224 l 1
 278 1224 l 1
 699 1224 l 2
 733.666666667 1224 768 1223 802 1221 c 0
 836 1219 869.333333333 1215 902 1209 c 0
 935.333333333 1203 967.5 1193.66666667 998.5 1181 c 128
 1029.5 1168.33333333 1059 1151.66666667 1087 1131 c 0
 1128.33333333 1101 1162.33333333 1064.66666667 1189 1022 c 0
 1215 979.333333333 1235.83333333 934.333333333 1251.5 887 c 128
 1267.16666667 839.666666667 1278 791.666666667 1284 743 c 0
 1290 695 1293 650.5 1293 609.5 c 128
 1293 568.5 1290.5 527.166666667 1285.5 485.5 c 128
 1280.5 443.833333333 1272.33333333 402.833333333 1261 362.5 c 128
 1249.66666667 322.166666667 1234.66666667 283.333333333 1216 246 c 0
 1197.33333333 208.666666667 1173.66666667 174.666666667 1145 144 c 0
 1116.33333333 112 1085 86 1051 66 c 0
 1016.33333333 46.6666666667 980 31.5 942 20.5 c 128
 904 9.5 864.333333333 2 823 -2 c 0
 782.333333333 -6 741 -7.66666666667 699 -7 c 2
 278 -7 l 1
 271 -7 l 1
EndSplineSet
EndChar

StartChar: E
Encoding: 69 69 280
Width: 1176
VWidth: 1696
Flags: W
LayerCount: 2
Fore
SplineSet
254 0 m 1
 254 7 l 1
 254 1217 l 1
 254 1224 l 1
 261 1224 l 1
 1084 1224 l 1
 1092 1224 l 1
 1092 1217 l 1
 1092 1119 l 1
 1092 1111 l 1
 1084 1111 l 1
 383 1111 l 1
 383 693 l 1
 1017 693 l 1
 1024 693 l 1
 1024 686 l 1
 1024 589 l 1
 1024 582 l 1
 1017 582 l 1
 383 582 l 1
 383 112 l 1
 1101 112 l 1
 1108 112 l 1
 1108 105 l 1
 1108 7 l 1
 1108 0 l 1
 1101 0 l 1
 261 0 l 1
 254 0 l 1
EndSplineSet
EndChar

StartChar: F
Encoding: 70 70 281
Width: 1076
VWidth: 1696
Flags: W
LayerCount: 2
Fore
SplineSet
235 0 m 1
 235 7 l 1
 235 1217 l 1
 235 1224 l 1
 242 1224 l 1
 1040 1224 l 1
 1048 1224 l 1
 1048 1217 l 1
 1048 1119 l 1
 1048 1111 l 1
 1040 1111 l 1
 364 1111 l 1
 364 693 l 1
 979 693 l 1
 986 693 l 1
 986 686 l 1
 986 589 l 1
 986 582 l 1
 979 582 l 1
 364 582 l 1
 364 7 l 1
 364 0 l 1
 357 0 l 1
 242 0 l 1
 235 0 l 1
EndSplineSet
EndChar

StartChar: G
Encoding: 71 71 282
Width: 1476
VWidth: 1696
Flags: W
LayerCount: 2
Fore
SplineSet
796 530 m 1
 796 537 l 1
 796 636 l 1
 796 643 l 1
 803 643 l 1
 1330 643 l 1
 1337 643 l 1
 1337 636 l 1
 1337 7 l 1
 1337 0 l 1
 1330 0 l 1
 1232 0 l 1
 1225 0 l 1
 1225 7 l 1
 1225 190 l 1
 1206.33333333 161.333333333 1186 135 1164 111 c 0
 1136 81 1103.33333333 55.3333333333 1066 34 c 0
 1028.66666667 12.6666666667 985.333333333 -3.66666666667 936 -15 c 0
 887.333333333 -26.3333333333 832 -32 770 -32 c 0
 690.666666667 -32 617 -18.3333333333 549 9 c 0
 481 36.3333333333 423.166666667 77.1666666667 375.5 131.5 c 128
 327.833333333 185.833333333 290.666666667 254 264 336 c 0
 237.333333333 418 224 513.333333333 224 622 c 0
 224 710.666666667 235.333333333 793.666666667 258 871 c 0
 280.666666667 948.333333333 315.666666667 1015.5 363 1072.5 c 128
 410.333333333 1129.5 470 1174 542 1206 c 0
 615.333333333 1238.66666667 701.666666667 1255 801 1255 c 0
 867.666666667 1255 930 1247 988 1231 c 0
 1046 1215 1097.33333333 1191 1142 1159 c 0
 1187.33333333 1126.33333333 1225.33333333 1085.66666667 1256 1037 c 128
 1286.66666667 988.333333333 1309 931 1323 865 c 2
 1325 856 l 1
 1316 856 l 1
 1198 856 l 1
 1193 856 l 1
 1191 862 l 2
 1181 906 1164.16666667 945.666666667 1140.5 981 c 128
 1116.83333333 1016.33333333 1088 1046 1054 1070 c 0
 1020 1094 982.166666667 1112.33333333 940.5 1125 c 128
 898.833333333 1137.66666667 855.333333333 1144 810 1144 c 0
 729.333333333 1144 660 1130.16666667 602 1102.5 c 128
 544 1074.83333333 496.333333333 1036.33333333 459 987 c 0
 422.333333333 937 395.666666667 877 379 807 c 0
 361.666666667 737 353 660 353 576 c 0
 353 509.333333333 362.666666667 446 382 386 c 128
 401.333333333 326 429.666666667 273.333333333 467 228 c 0
 505 182.666666667 551.333333333 146.666666667 606 120 c 128
 660.666666667 93.3333333333 723.333333333 80 794 80 c 0
 826.666666667 80 860.666666667 83.6666666667 896 91 c 0
 931.333333333 98.3333333333 965.333333333 110.166666667 998 126.5 c 128
 1030.66666667 142.833333333 1061.33333333 164.333333333 1090 191 c 0
 1118 217.666666667 1141.66666667 250.333333333 1161 289 c 0
 1179.66666667 327 1192.66666667 366.333333333 1200 407 c 0
 1206.66666667 445.666666667 1210.66666667 486.666666667 1212 530 c 1
 803 530 l 1
 796 530 l 1
EndSplineSet
EndChar

StartChar: H
Encoding: 72 72 283
Width: 1376
VWidth: 1696
Flags: W
LayerCount: 2
Fore
SplineSet
265 0 m 1
 265 7 l 1
 265 1217 l 1
 265 1224 l 1
 272 1224 l 1
 387 1224 l 1
 394 1224 l 1
 394 1217 l 1
 394 709 l 1
 1114 709 l 1
 1114 1217 l 1
 1114 1224 l 1
 1121 1224 l 1
 1236 1224 l 1
 1243 1224 l 1
 1243 1217 l 1
 1243 7 l 1
 1243 0 l 1
 1236 0 l 1
 1121 0 l 1
 1114 0 l 1
 1114 7 l 1
 1114 596 l 1
 394 596 l 1
 394 7 l 1
 394 0 l 1
 387 0 l 1
 272 0 l 1
 265 0 l 1
EndSplineSet
EndChar

StartChar: I
Encoding: 73 73 284
Width: 533
VWidth: 1696
Flags: W
LayerCount: 2
Fore
SplineSet
227 -7 m 1
 227 0 l 1
 227 1217 l 1
 227 1224 l 1
 234 1224 l 1
 349 1224 l 1
 356 1224 l 1
 356 1217 l 1
 356 0 l 1
 356 -7 l 1
 349 -7 l 1
 234 -7 l 1
 227 -7 l 1
EndSplineSet
EndChar

StartChar: J
Encoding: 74 74 285
Width: 951
VWidth: 1693
Flags: W
LayerCount: 2
Fore
SplineSet
244 389 m 1
 244 382 l 2
 244 344 245.666666667 306.333333333 249 269 c 0
 251.666666667 233 260 200.333333333 274 171 c 0
 287.333333333 142.333333333 308.333333333 119.333333333 337 102 c 0
 366.333333333 84.6666666667 409 76 465 76 c 0
 545.666666667 76 601.333333333 97.6666666667 632 141 c 0
 663.333333333 185 679 249 679 333 c 2
 679 1213 l 1
 679 1221 l 1
 686 1221 l 1
 801 1221 l 1
 808 1221 l 1
 808 1213 l 1
 808 329 l 2
 808 209 780 117 724 53 c 0
 667.333333333 -11 576 -43 450 -43 c 0
 376 -43 317.666666667 -31.1666666667 275 -7.5 c 128
 232.333333333 16.1666666667 199 48 175 88 c 0
 151.666666667 127.333333333 135.666666667 172.666666667 127 224 c 0
 119 274.666666667 115 327.333333333 115 382 c 2
 115 389 l 1
 123 389 l 1
 237 389 l 1
 244 389 l 1
EndSplineSet
EndChar

StartChar: K
Encoding: 75 75 286
Width: 1286
VWidth: 1696
Flags: W
LayerCount: 2
Fore
SplineSet
275 -7 m 1
 275 0 l 1
 275 1217 l 1
 275 1224 l 1
 282 1224 l 1
 397 1224 l 1
 404 1224 l 1
 404 1217 l 1
 404 604 l 1
 1030 1222 l 1
 1032 1224 l 1
 1035 1224 l 1
 1165 1224 l 1
 1182 1224 l 1
 1170 1212 l 1
 685 731 l 1
 1255 4 l 1
 1264 -7 l 1
 1249 -7 l 1
 1109 -7 l 1
 1106 -7 l 1
 1104 -5 l 1
 590 650 l 1
 404 466 l 1
 404 0 l 1
 404 -7 l 1
 397 -7 l 1
 282 -7 l 1
 275 -7 l 1
EndSplineSet
EndChar

StartChar: L
Encoding: 76 76 287
Width: 1077
VWidth: 1696
Flags: W
LayerCount: 2
Fore
SplineSet
247 -7 m 1
 247 0 l 1
 247 1217 l 1
 247 1224 l 1
 254 1224 l 1
 369 1224 l 1
 376 1224 l 1
 376 1217 l 1
 376 105 l 1
 1036 105 l 1
 1043 105 l 1
 1043 98 l 1
 1043 0 l 1
 1043 -7 l 1
 1036 -7 l 1
 254 -7 l 1
 247 -7 l 1
EndSplineSet
EndChar

StartChar: M
Encoding: 77 77 288
Width: 1583
VWidth: 1696
Flags: W
LayerCount: 2
Fore
SplineSet
281 -7 m 1
 281 0 l 1
 281 1217 l 1
 281 1224 l 1
 288 1224 l 1
 464 1224 l 1
 469 1224 l 1
 471 1219 l 1
 871 160 l 1
 1265 1219 l 1
 1267 1224 l 1
 1272 1224 l 1
 1446 1224 l 1
 1453 1224 l 1
 1453 1217 l 1
 1453 0 l 1
 1453 -7 l 1
 1446 -7 l 1
 1332 -7 l 1
 1324 -7 l 1
 1324 0 l 1
 1324 1054 l 1
 931 -3 l 1
 929 -7 l 1
 924 -7 l 1
 813 -7 l 1
 807 -7 l 1
 806 -3 l 1
 410 1054 l 1
 410 0 l 1
 410 -7 l 1
 403 -7 l 1
 288 -7 l 1
 281 -7 l 1
EndSplineSet
EndChar

StartChar: N
Encoding: 78 78 289
Width: 1376
VWidth: 1696
Flags: W
LayerCount: 2
Fore
SplineSet
1096 -4 m 1
 392 1042 l 1
 392 0 l 1
 392 -7 l 1
 385 -7 l 1
 270 -7 l 1
 263 -7 l 1
 263 0 l 1
 263 1217 l 1
 263 1224 l 1
 270 1224 l 1
 400 1224 l 1
 403 1224 l 1
 406 1221 l 1
 1114 171 l 1
 1114 1217 l 1
 1114 1224 l 1
 1121 1224 l 1
 1236 1224 l 1
 1243 1224 l 1
 1243 1217 l 1
 1243 0 l 1
 1243 -7 l 1
 1236 -7 l 1
 1102 -7 l 1
 1098 -7 l 1
 1096 -4 l 1
EndSplineSet
EndChar

StartChar: O
Encoding: 79 79 290
Width: 1481
VWidth: 1696
Flags: W
LayerCount: 2
Fore
SplineSet
604.5 116 m 128
 662.166666667 87.3333333333 731 73 811 73 c 0
 890.333333333 73 958.5 87.5 1015.5 116.5 c 128
 1072.5 145.5 1119.33333333 184.666666667 1156 234 c 0
 1192 283.333333333 1218.66666667 340 1236 404 c 0
 1253.33333333 468.666666667 1262 536 1262 606 c 0
 1262 690 1251.66666667 765.333333333 1231 832 c 0
 1210.33333333 898 1180.66666667 954.333333333 1142 1001 c 0
 1102 1047.66666667 1053.83333333 1083.16666667 997.5 1107.5 c 128
 941.166666667 1131.83333333 878 1144 808 1144 c 0
 730 1144 662.166666667 1129 604.5 1099 c 128
 546.833333333 1069 500 1029.33333333 464 980 c 0
 428 930.666666667 401.333333333 873.666666667 384 809 c 0
 366.666666667 744.333333333 358 676.666666667 358 606 c 0
 358 534.666666667 366.666666667 466.666666667 384 402 c 0
 401.333333333 338 428 281.333333333 464 232 c 0
 500 183.333333333 546.833333333 144.666666667 604.5 116 c 128
265 357 m 0
 241 435 229 518 229 606 c 0
 229 696 241.333333333 780.333333333 266 859 c 0
 290.666666667 937.666666667 326.833333333 1006.33333333 374.5 1065 c 128
 422.166666667 1123.66666667 482 1170 554 1204 c 0
 626.666666667 1238 710 1255 804 1255 c 0
 902 1255 988 1238.33333333 1062 1205 c 0
 1136 1171.66666667 1197.16666667 1125.5 1245.5 1066.5 c 128
 1293.83333333 1007.5 1330.33333333 938.666666667 1355 860 c 0
 1379.66666667 780.666666667 1391.66666667 696 1391 606 c 0
 1391 517.333333333 1379 434.333333333 1355 357 c 0
 1330.33333333 279 1294 210.5 1246 151.5 c 128
 1198 92.5 1137.66666667 46 1065 12 c 0
 991.666666667 -22 906.5 -39.1666666667 809.5 -39.5 c 128
 712.5 -39.8333333333 627.333333333 -22.6666666667 554 12 c 0
 480.666666667 46 420.166666667 92.5 372.5 151.5 c 128
 324.833333333 210.5 289 279 265 357 c 0
EndSplineSet
EndChar

StartChar: P
Encoding: 80 80 291
Width: 1177
VWidth: 1696
Flags: W
LayerCount: 2
Fore
SplineSet
378 649 m 1
 640 649 l 2
 695.333333333 649 745 652.666666667 789 660 c 0
 832.333333333 666.666666667 869 678.666666667 899 696 c 0
 927.666666667 713.333333333 950 737.333333333 966 768 c 0
 982 798.666666667 990 839 990 889 c 0
 990 962.333333333 965.666666667 1017.66666667 917 1055 c 0
 867.666666667 1093 787 1111.66666667 675 1111 c 2
 378 1111 l 1
 378 649 l 1
249 0 m 1
 249 7 l 1
 249 1217 l 1
 249 1224 l 1
 256 1224 l 1
 708 1224 l 2
 790.666666667 1224 858.666666667 1215 912 1197 c 0
 964.666666667 1178.33333333 1006.33333333 1153 1037 1121 c 128
 1067.66666667 1089 1089 1052 1101 1010 c 0
 1113 968.666666667 1119 925.333333333 1119 880 c 0
 1119 812 1105 755.666666667 1077 711 c 0
 1048.33333333 666.333333333 1011.66666667 631.333333333 967 606 c 0
 922.333333333 580.666666667 871 562.666666667 813 552 c 0
 754.333333333 542 695.333333333 537 636 537 c 2
 378 537 l 1
 378 7 l 1
 378 0 l 1
 371 0 l 1
 256 0 l 1
 249 0 l 1
EndSplineSet
EndChar

StartChar: Q
Encoding: 81 81 292
Width: 1479
VWidth: 1690
Flags: W
LayerCount: 2
Fore
SplineSet
943 306 m 1
 1106 184 l 1
 1155.33333333 232 1191.66666667 292 1215 364 c 0
 1239.66666667 438.666666667 1252 517.333333333 1252 600 c 0
 1252 690.666666667 1240.33333333 769.333333333 1217 836 c 0
 1194.33333333 902.666666667 1163 958.666666667 1123 1004 c 0
 1082.33333333 1048.66666667 1034.33333333 1082 979 1104 c 0
 923.666666667 1126 863 1137.33333333 797 1138 c 0
 719 1138 651.333333333 1123 594 1093 c 128
 536.666666667 1063 490 1023 454 973 c 0
 418 923 391.333333333 865.666666667 374 801 c 0
 356.666666667 736.333333333 348 669.333333333 348 600 c 0
 348 528.666666667 356.666666667 460.666666667 374 396 c 0
 391.333333333 332 418 275.333333333 454 226 c 0
 490.666666667 177.333333333 537.5 138.666666667 594.5 110 c 128
 651.5 81.3333333333 720 67 800 67 c 0
 843.333333333 67 882.666666667 71.6666666667 918 81 c 0
 949.333333333 89.6666666667 978 101 1004 115 c 1
 872 214 l 1
 867 219 l 1
 871 224 l 1
 933 304 l 1
 937 310 l 1
 943 306 l 1
1364 -15 m 1
 1359 -21 l 1
 1295 -98 l 1
 1290 -103 l 1
 1285 -99 l 1
 1109 36 l 1
 1066.33333333 10.6666666667 1020.33333333 -9 971 -23 c 0
 919 -37.6666666667 861.666666667 -45 799 -45 c 0
 702.333333333 -45 617 -28 543 6 c 0
 469.666666667 40 409.166666667 86.5 361.5 145.5 c 128
 313.833333333 204.5 278 273 254 351 c 0
 230 429 218 512 218 600 c 0
 218 685.333333333 229.666666667 767 253 845 c 0
 276.333333333 923 311.333333333 992 358 1052 c 0
 404.666666667 1112 464.333333333 1159.66666667 537 1195 c 0
 609.666666667 1231 695 1249 793 1249 c 0
 881.666666667 1249 962.5 1234.83333333 1035.5 1206.5 c 128
 1108.5 1178.16666667 1170.33333333 1136.5 1221 1081.5 c 128
 1271.66666667 1026.5 1311 958.666666667 1339 878 c 0
 1367 797.333333333 1381 704.666666667 1381 600 c 0
 1381 500 1365.66666667 407.666666667 1335 323 c 0
 1305 240.333333333 1260.66666667 169 1202 109 c 1
 1358 -10 l 1
 1364 -15 l 1
EndSplineSet
EndChar

StartChar: R
Encoding: 82 82 293
Width: 1278
VWidth: 1696
Flags: W
LayerCount: 2
Fore
SplineSet
388 664 m 1
 747 664 l 2
 791 664 831.666666667 668.666666667 869 678 c 0
 905.666666667 686.666666667 937.333333333 700.333333333 964 719 c 0
 990 737.666666667 1010.66666667 761.5 1026 790.5 c 128
 1041.33333333 819.5 1049 854.333333333 1049 895 c 0
 1049 938.333333333 1041 974 1025 1002 c 128
 1009 1030 988 1051.66666667 962 1067 c 0
 934.666666667 1083 903 1094.33333333 867 1101 c 128
 831 1107.66666667 793.333333333 1111 754 1111 c 2
 388 1111 l 1
 388 664 l 1
751 553 m 2
 388 553 l 1
 388 7 l 1
 388 0 l 1
 381 0 l 1
 266 0 l 1
 259 0 l 1
 259 7 l 1
 259 1217 l 1
 259 1224 l 1
 266 1224 l 1
 751 1224 l 2
 891 1224 997 1198.66666667 1069 1148 c 0
 1141.66666667 1096.66666667 1178 1014 1178 900 c 0
 1178 822.666666667 1162 761.333333333 1130 716 c 0
 1100.66666667 674 1054.66666667 637.666666667 992 607 c 1
 1022 594.333333333 1046 577.666666667 1064 557 c 0
 1084.66666667 532.333333333 1100.33333333 504.666666667 1111 474 c 128
 1121.66666667 443.333333333 1128 410.666666667 1130 376 c 0
 1132.66666667 342 1134.66666667 309.333333333 1136 278 c 0
 1137.33333333 232 1139.33333333 193.833333333 1142 163.5 c 128
 1144.66666667 133.166666667 1148 108.333333333 1152 89 c 0
 1156 70.3333333333 1160.66666667 56.3333333333 1166 47 c 128
 1171.33333333 37.6666666667 1177.33333333 30 1184 24 c 2
 1186 22 l 1
 1186 19 l 1
 1186 7 l 1
 1186 0 l 1
 1179 0 l 1
 1053 0 l 1
 1049 0 l 1
 1047 3 l 2
 1033.66666667 24.3333333333 1024.33333333 53.6666666667 1019 91 c 0
 1014.33333333 127 1010.66666667 164.666666667 1008 204 c 128
 1005.33333333 243.333333333 1003 281.666666667 1001 319 c 0
 999 355.666666667 996 385.666666667 992 409 c 0
 985.333333333 440.333333333 974.833333333 465.666666667 960.5 485 c 128
 946.166666667 504.333333333 928.333333333 518.666666667 907 528 c 128
 885.666666667 537.333333333 861.666666667 543.666666667 835 547 c 0
 808.333333333 551 780.333333333 553 751 553 c 2
EndSplineSet
EndChar

StartChar: S
Encoding: 83 83 294
Width: 1169
VWidth: 1696
Flags: W
LayerCount: 2
Fore
SplineSet
307 370 m 1
 308 363 l 2
 312 310.333333333 323.666666667 265.666666667 343 229 c 128
 362.333333333 192.333333333 387 162.333333333 417 139 c 0
 448.333333333 115.666666667 484.333333333 99 525 89 c 0
 566.333333333 78.3333333333 610.666666667 73 658 73 c 0
 712.666666667 73 760.333333333 79.6666666667 801 93 c 0
 841 106.333333333 872.833333333 124.166666667 896.5 146.5 c 128
 920.166666667 168.833333333 938 194.666666667 950 224 c 0
 961.333333333 254 967 285 967 317 c 0
 967 363 956.666666667 400 936 428 c 0
 915.333333333 456.666666667 888.333333333 480 855 498 c 0
 820.333333333 516 780 530.666666667 734 542 c 0
 688 553.333333333 640.666666667 564.333333333 592 575 c 0
 543.333333333 585.666666667 496 598.333333333 450 613 c 0
 404.666666667 627.666666667 364.666666667 647.666666667 330 673 c 0
 294.666666667 698.333333333 266 731 244 771 c 128
 222 811 211 861.333333333 211 922 c 0
 211 964.666666667 219.833333333 1006.16666667 237.5 1046.5 c 128
 255.166666667 1086.83333333 281.5 1122.66666667 316.5 1154 c 128
 351.5 1185.33333333 395.666666667 1210 449 1228 c 0
 503.666666667 1246 566.666666667 1255 638 1255 c 0
 710 1255 772.666666667 1245.33333333 826 1226 c 0
 878.666666667 1206.66666667 922.333333333 1180 957 1146 c 128
 991.666666667 1112 1017.66666667 1072.66666667 1035 1028 c 0
 1052.33333333 983.333333333 1060.66666667 935.666666667 1060 885 c 2
 1060 878 l 1
 1053 878 l 1
 943 878 l 1
 936 878 l 1
 936 885 l 2
 936 930.333333333 928.166666667 969.333333333 912.5 1002 c 128
 896.833333333 1034.66666667 875.333333333 1061.33333333 848 1082 c 0
 819.333333333 1102.66666667 786.666666667 1118.33333333 750 1129 c 0
 713.333333333 1139 676 1144 638 1144 c 0
 578.666666667 1144 528.333333333 1135.66666667 487 1119 c 0
 446.333333333 1103 414.666666667 1082.5 392 1057.5 c 128
 369.333333333 1032.5 353.666666667 1004.66666667 345 974 c 128
 336.333333333 943.333333333 334.666666667 913 340 883 c 0
 346.666666667 845 361.666666667 814.666666667 385 792 c 0
 409.666666667 768.666666667 440 749.666666667 476 735 c 0
 512.666666667 720.333333333 553.333333333 708.333333333 598 699 c 0
 642.666666667 689.666666667 688.333333333 679.333333333 735 668 c 0
 781.666666667 657.333333333 827 644.666666667 871 630 c 0
 914.333333333 615.333333333 952.333333333 595.333333333 985 570 c 0
 1018.33333333 544.666666667 1045.16666667 512 1065.5 472 c 128
 1085.83333333 432 1096 382 1096 322 c 0
 1096 206.666666667 1056.33333333 117.666666667 977 55 c 0
 898.333333333 -7.66666666667 785.333333333 -39.3333333333 638 -40 c 0
 572 -40 510.333333333 -31.6666666667 453 -15 c 0
 397 1.66666666667 349 27 309 61 c 128
 269 95 237.833333333 136.833333333 215.5 186.5 c 128
 193.166666667 236.166666667 182 295 182 363 c 2
 182 370 l 1
 189 370 l 1
 300 370 l 1
 307 370 l 1
EndSplineSet
EndChar

StartChar: T
Encoding: 84 84 295
Width: 1066
VWidth: 1696
Flags: W
LayerCount: 2
Fore
SplineSet
127 1224 m 1
 134 1224 l 1
 1034 1224 l 1
 1041 1224 l 1
 1041 1217 l 1
 1041 1119 l 1
 1041 1111 l 1
 1034 1111 l 1
 651 1111 l 1
 651 0 l 1
 651 -7 l 1
 643 -7 l 1
 524 -7 l 1
 517 -7 l 1
 517 0 l 1
 517 1111 l 1
 134 1111 l 1
 127 1111 l 1
 127 1119 l 1
 127 1217 l 1
 127 1224 l 1
EndSplineSet
EndChar

StartChar: U
Encoding: 85 85 296
Width: 1376
VWidth: 1693
Flags: W
LayerCount: 2
Fore
SplineSet
268 1221 m 1
 275 1221 l 1
 390 1221 l 1
 397 1221 l 1
 397 1213 l 1
 397 488 l 2
 397 339.333333333 424.666666667 232.333333333 480 167 c 0
 536 102.333333333 627 70 753 70 c 0
 819.666666667 70 876.333333333 78.3333333333 923 95 c 0
 969 111.666666667 1005.33333333 137.333333333 1032 172 c 0
 1059.33333333 206.666666667 1079 250 1091 302 c 0
 1103 354.666666667 1109.33333333 416.666666667 1110 488 c 2
 1110 1213 l 1
 1110 1221 l 1
 1117 1221 l 1
 1233 1221 l 1
 1240 1221 l 1
 1240 1213 l 1
 1240 454 l 2
 1240 293.333333333 1200 170.333333333 1120 85 c 0
 1040 -0.333333333333 917.666666667 -43 753 -43 c 0
 587 -43 464.666666667 0.666666666667 386 88 c 0
 307.333333333 174.666666667 268 296.666666667 268 454 c 2
 268 1213 l 1
 268 1221 l 1
EndSplineSet
EndChar

StartChar: V
Encoding: 86 86 297
Width: 1169
VWidth: 1696
Flags: W
LayerCount: 2
Fore
SplineSet
140 1224 m 1
 150 1224 l 1
 270 1224 l 1
 275 1224 l 1
 276 1219 l 1
 644 157 l 1
 1009 1219 l 1
 1011 1224 l 1
 1016 1224 l 1
 1135 1224 l 1
 1145 1224 l 1
 1142 1214 l 1
 715 -3 l 1
 713 -7 l 1
 708 -7 l 1
 578 -7 l 1
 573 -7 l 1
 571 -3 l 1
 143 1214 l 1
 140 1224 l 1
EndSplineSet
EndChar

StartChar: W
Encoding: 87 87 298
Width: 1688
VWidth: 1696
Flags: W
LayerCount: 2
Fore
SplineSet
998 1219 m 1
 1274 185 l 1
 1536 1219 l 1
 1538 1224 l 1
 1543 1224 l 1
 1661 1224 l 1
 1671 1224 l 1
 1668 1215 l 1
 1348 -2 l 1
 1346 -7 l 1
 1341 -7 l 1
 1212 -7 l 1
 1206 -7 l 1
 1205 -2 l 1
 924 1053 l 1
 643 -2 l 1
 642 -7 l 1
 636 -7 l 1
 508 -7 l 1
 502 -7 l 1
 501 -2 l 1
 186 1215 l 1
 183 1224 l 1
 192 1224 l 1
 307 1224 l 1
 313 1224 l 1
 314 1219 l 1
 573 185 l 1
 853 1219 l 1
 855 1224 l 1
 860 1224 l 1
 991 1224 l 1
 997 1224 l 1
 998 1219 l 1
EndSplineSet
EndChar

StartChar: X
Encoding: 88 88 299
Width: 1169
VWidth: 1696
Flags: W
LayerCount: 2
Fore
SplineSet
1000 -4 m 1
 644 524 l 1
 290 -4 l 1
 287 -7 l 1
 284 -7 l 1
 153 -7 l 1
 140 -7 l 1
 147 4 l 1
 569 625 l 1
 164 1213 l 1
 156 1224 l 1
 170 1224 l 1
 303 1224 l 1
 307 1224 l 1
 309 1221 l 1
 644 718 l 1
 979 1221 l 1
 981 1224 l 1
 985 1224 l 1
 1119 1224 l 1
 1132 1224 l 1
 1125 1213 l 1
 724 625 l 1
 1143 4 l 1
 1150 -7 l 1
 1137 -7 l 1
 1006 -7 l 1
 1002 -7 l 1
 1000 -4 l 1
EndSplineSet
EndChar

StartChar: Y
Encoding: 89 89 300
Width: 1169
VWidth: 1696
Flags: W
LayerCount: 2
Fore
SplineSet
280 1221 m 1
 639 644 l 1
 1008 1221 l 1
 1010 1224 l 1
 1014 1224 l 1
 1147 1224 l 1
 1160 1224 l 1
 1153 1213 l 1
 708 528 l 1
 708 0 l 1
 708 -7 l 1
 700 -7 l 1
 582 -7 l 1
 575 -7 l 1
 575 0 l 1
 575 520 l 1
 137 1213 l 1
 130 1224 l 1
 143 1224 l 1
 274 1224 l 1
 278 1224 l 1
 280 1221 l 1
EndSplineSet
EndChar

StartChar: Z
Encoding: 90 90 301
Width: 1169
VWidth: 1696
Flags: W
LayerCount: 2
Fore
SplineSet
161 -7 m 1
 161 0 l 1
 161 96 l 1
 161 99 l 1
 163 101 l 1
 948 1111 l 1
 234 1111 l 1
 227 1111 l 1
 227 1119 l 1
 227 1217 l 1
 227 1224 l 1
 234 1224 l 1
 1104 1224 l 1
 1111 1224 l 1
 1111 1217 l 1
 1111 1120 l 1
 1111 1118 l 1
 1110 1116 l 1
 326 105 l 1
 1109 105 l 1
 1116 105 l 1
 1116 98 l 1
 1116 0 l 1
 1116 -7 l 1
 1109 -7 l 1
 168 -7 l 1
 161 -7 l 1
EndSplineSet
EndChar

StartChar: bracketleft
Encoding: 91 91 302
Width: 628
VWidth: 1665
Flags: W
LayerCount: 2
Fore
SplineSet
213 -346 m 1
 213 1224 l 1
 213 1232 l 1
 220 1232 l 1
 544 1232 l 1
 551 1232 l 1
 551 1224 l 1
 551 1140 l 1
 551 1133 l 1
 544 1133 l 1
 336 1133 l 1
 336 -255 l 1
 540 -255 l 1
 547 -255 l 1
 547 -262 l 1
 547 -346 l 1
 547 -354 l 1
 540 -354 l 1
 220 -354 l 1
 213 -354 l 1
 213 -346 l 1
EndSplineSet
EndChar

StartChar: backslash
Encoding: 92 92 303
Width: 518
VWidth: 1683
Flags: W
LayerCount: 2
Fore
SplineSet
32 1250 m 1
 126 1250 l 1
 132 1250 l 1
 133 1245 l 1
 530 -156 l 1
 532 -165 l 1
 523 -165 l 1
 429 -165 l 1
 423 -165 l 1
 422 -160 l 1
 25 1241 l 1
 23 1250 l 1
 32 1250 l 1
EndSplineSet
EndChar

StartChar: bracketright
Encoding: 93 93 304
Width: 614
VWidth: 1665
Flags: W
LayerCount: 2
Fore
SplineSet
462 -354 m 1
 138 -354 l 1
 131 -354 l 1
 131 -346 l 1
 131 -262 l 1
 131 -255 l 1
 138 -255 l 1
 346 -255 l 1
 346 1133 l 1
 142 1133 l 1
 135 1133 l 1
 135 1140 l 1
 135 1224 l 1
 135 1232 l 1
 142 1232 l 1
 462 1232 l 1
 469 1232 l 1
 469 1224 l 1
 469 -346 l 1
 469 -354 l 1
 462 -354 l 1
EndSplineSet
EndChar

StartChar: asciicircum
Encoding: 94 94 305
Width: 1232
VWidth: 1736
Flags: W
LayerCount: 2
Fore
SplineSet
235 464 m 1
 624 1230 l 1
 626 1234 l 1
 630 1234 l 1
 718 1234 l 1
 722 1234 l 1
 724 1230 l 1
 1115 464 l 1
 1120 454 l 1
 1108 454 l 1
 1012 454 l 1
 1007 454 l 1
 1005 458 l 1
 673 1108 l 1
 346 458 l 1
 344 454 l 1
 339 454 l 1
 242 454 l 1
 230 454 l 1
 235 464 l 1
EndSplineSet
EndChar

StartChar: quoteleft
Encoding: 8216 8216 306
Width: 412
VWidth: 1785
Flags: W
LayerCount: 2
Fore
SplineSet
147 1131 m 2
 147 1182.33333333 159 1223.66666667 183 1255 c 256
 207 1286.33333333 238 1308 276 1320 c 2
 285 1322 l 1
 285 1313 l 1
 285 1250 l 1
 285 1246 l 1
 282 1244 l 2
 268.666666667 1235.33333333 256 1223.33333333 244 1208 c 0
 232.666666667 1193.33333333 227 1170.33333333 227 1139 c 2
 227 1088 l 1
 278 1088 l 1
 285 1088 l 1
 285 1081 l 1
 285 932 l 1
 285 925 l 1
 278 925 l 1
 154 925 l 1
 147 925 l 1
 147 932 l 1
 147 1131 l 2
EndSplineSet
EndChar

StartChar: a
Encoding: 97 97 307
Width: 1070
VWidth: 1660
Flags: W
LayerCount: 2
Fore
SplineSet
813 293 m 2
 813 420 l 1
 771.666666667 404 729.666666667 393.333333333 687 388 c 0
 641 382.666666667 595 378.333333333 549 375 c 0
 469.666666667 369.666666667 408.666666667 352.333333333 366 323 c 0
 324.666666667 295 304 252.333333333 304 195 c 0
 304 169 309 147 319 129 c 0
 329 110.333333333 342.5 94.6666666667 359.5 82 c 128
 376.5 69.3333333333 396 60 418 54 c 0
 441.333333333 48 465 45.3333333333 489 46 c 0
 531 46 571.333333333 51 610 61 c 0
 648.666666667 71 683.333333333 86 714 106 c 0
 744 126 768.333333333 151.666666667 787 183 c 0
 804.333333333 213.666666667 813 250.333333333 813 293 c 2
497 465 m 2
 643 483 l 2
 663 485 686.666666667 488.333333333 714 493 c 0
 740.666666667 497.666666667 762.666666667 503.666666667 780 511 c 0
 795.333333333 517.666666667 804.333333333 529 807 545 c 0
 811 563 813 579.666666667 813 595 c 0
 813 644.333333333 796.666666667 685 764 717 c 0
 730.666666667 748.333333333 674.333333333 764 595 764 c 0
 559.666666667 764 526.666666667 761 496 755 c 0
 466 749 440.333333333 738.666666667 419 724 c 0
 397.666666667 709.333333333 380.166666667 689.833333333 366.5 665.5 c 128
 352.833333333 641.166666667 343.666666667 610.333333333 339 573 c 2
 339 566 l 1
 332 566 l 1
 229 566 l 1
 221 566 l 1
 222 574 l 2
 225.333333333 626.666666667 237.5 671.833333333 258.5 709.5 c 128
 279.5 747.166666667 306.333333333 778 339 802 c 0
 371.666666667 825.333333333 410 842.666666667 454 854 c 0
 498.666666667 864.666666667 546 870 596 870 c 0
 642.666666667 870 686.333333333 865 727 855 c 0
 768.333333333 845 803.666666667 829.666666667 833 809 c 0
 862.333333333 787.666666667 885.666666667 759 903 723 c 128
 920.333333333 687 929 643.333333333 929 592 c 2
 929 119 l 2
 929 82.3333333333 935 59.6666666667 947 51 c 0
 959 42.3333333333 985.333333333 45 1026 59 c 2
 1035 62 l 1
 1035 52 l 1
 1035 -26 l 1
 1035 -32 l 1
 1030 -33 l 1
 995 -43 l 2
 979 -47.6666666667 963.333333333 -50 948 -50 c 0
 932 -50 916.333333333 -48.3333333333 901 -45 c 0
 882.333333333 -42.3333333333 867.666666667 -36.5 857 -27.5 c 128
 846.333333333 -18.5 837.666666667 -7.66666666667 831 5 c 0
 824.333333333 17.6666666667 820 31.3333333333 818 46 c 0
 816.666666667 54.6666666667 815.666666667 63.6666666667 815 73 c 1
 773 31.6666666667 725.666666667 -0.333333333333 673 -23 c 0
 614.333333333 -47.6666666667 551.333333333 -60 484 -60 c 0
 443.333333333 -60 405 -55 369 -45 c 0
 332.333333333 -34.3333333333 300.166666667 -18.1666666667 272.5 3.5 c 128
 244.833333333 25.1666666667 222.666666667 52 206 84 c 128
 189.333333333 116 181 153.333333333 181 196 c 0
 181.666666667 347.333333333 287 437 497 465 c 2
EndSplineSet
EndChar

StartChar: b
Encoding: 98 98 308
Width: 1173
VWidth: 1694
Flags: W
LayerCount: 2
Fore
SplineSet
383 579 m 0
 369.666666667 535.666666667 363 490 363 442 c 0
 363 390.666666667 369.333333333 342.666666667 382 298 c 0
 394.666666667 253.333333333 413.333333333 215 438 183 c 0
 462 151 492.333333333 125.666666667 529 107 c 0
 567 88.3333333333 610 79 658 79 c 0
 702 79 742.333333333 86.3333333333 779 101 c 128
 815.666666667 115.666666667 847.166666667 137.166666667 873.5 165.5 c 128
 899.833333333 193.833333333 920.5 228.5 935.5 269.5 c 128
 950.5 310.5 958 358 958 412 c 0
 960 466 955.666666667 516.333333333 945 563 c 0
 933.666666667 609.666666667 916 650.333333333 892 685 c 0
 868 719.666666667 836.333333333 747.333333333 797 768 c 0
 757.666666667 788 711.333333333 798 658 798 c 0
 611.333333333 798 569.333333333 788.333333333 532 769 c 0
 495.333333333 749.666666667 464.666666667 724 440 692 c 0
 415.333333333 660 396.333333333 622.333333333 383 579 c 0
363 -3 m 1
 356 -3 l 1
 254 -3 l 1
 247 -3 l 1
 247 4 l 1
 247 1214 l 1
 247 1221 l 1
 254 1221 l 1
 356 1221 l 1
 363 1221 l 1
 363 1214 l 1
 363 757 l 1
 395 802.333333333 436.333333333 837 487 861 c 0
 547 889 610 903.333333333 676 904 c 0
 746.666666667 904 808 891 860 865 c 0
 910 839 951 804.666666667 983 762 c 0
 1015.66666667 719.333333333 1040 669.666666667 1056 613 c 0
 1072 556.333333333 1080 497.333333333 1080 436 c 0
 1080 371.333333333 1072.66666667 311 1058 255 c 0
 1042.66666667 198.333333333 1018.66666667 149.333333333 986 108 c 0
 953.333333333 66 911.666666667 33 861 9 c 0
 809 -15 745.333333333 -27 670 -27 c 0
 640 -27 609.5 -22.8333333333 578.5 -14.5 c 128
 547.5 -6.16666666667 517.333333333 5.33333333333 488 20 c 0
 459.333333333 34.6666666667 433.333333333 53 410 75 c 0
 392 92.3333333333 376.333333333 112.333333333 363 135 c 1
 363 4 l 1
 363 -3 l 1
EndSplineSet
EndChar

StartChar: c
Encoding: 99 99 309
Width: 1066
VWidth: 1660
Flags: W
LayerCount: 2
Fore
SplineSet
857 556 m 1
 856 562 l 2
 838 626 807.666666667 675.666666667 765 711 c 0
 721.666666667 746.333333333 665.333333333 764 596 764 c 0
 543.333333333 764 498 753.666666667 460 733 c 0
 422.666666667 712.333333333 392.333333333 685 369 651 c 0
 345.666666667 616.333333333 328.666666667 577.333333333 318 534 c 0
 306.666666667 490.666666667 301 447 301 403 c 0
 301 357.666666667 306.333333333 313.666666667 317 271 c 0
 327.666666667 228.333333333 344.333333333 190 367 156 c 0
 390.333333333 122.666666667 420.666666667 96 458 76 c 0
 496 56 542 46 596 46 c 0
 672.666666667 46 733.666666667 66 779 106 c 0
 823.666666667 146.666666667 852 203 864 275 c 2
 865 281 l 1
 871 281 l 1
 979 281 l 1
 987 281 l 1
 986 272 l 2
 977.333333333 222.666666667 962.666666667 178 942 138 c 0
 922 97.3333333333 896.333333333 62.3333333333 865 33 c 128
 833.666666667 3.66666666667 796 -19.3333333333 752 -36 c 0
 706.666666667 -52 654.666666667 -60 596 -60 c 0
 522 -60 458 -48 404 -24 c 0
 352 0 309.666666667 32.6666666667 277 74 c 0
 243.666666667 115.333333333 219 164.666666667 203 222 c 0
 187 278.666666667 179 339 179 403 c 0
 179 464.333333333 187.666666667 523 205 579 c 0
 223 635 249.166666667 684.5 283.5 727.5 c 128
 317.833333333 770.5 360.666666667 805 412 831 c 0
 465.333333333 857 526.666666667 870 596 870 c 0
 703.333333333 870 789 845.333333333 853 796 c 0
 917 746 957 669 973 565 c 2
 974 556 l 1
 966 556 l 1
 863 556 l 1
 857 556 l 1
EndSplineSet
EndChar

StartChar: d
Encoding: 100 100 310
Width: 1165
VWidth: 1694
Flags: W
LayerCount: 2
Fore
SplineSet
898 298 m 0
 910.666666667 342.666666667 917.333333333 390.666666667 918 442 c 0
 918 490 911.333333333 535.666666667 898 579 c 0
 884.666666667 622.333333333 865.5 660.166666667 840.5 692.5 c 128
 815.5 724.833333333 784.666666667 750.333333333 748 769 c 0
 710.666666667 788.333333333 668.666666667 798 622 798 c 0
 568 798 521.666666667 788 483 768 c 0
 445 748 413.666666667 720.333333333 389 685 c 0
 365 650.333333333 347.333333333 609.666666667 336 563 c 0
 324.666666667 516.333333333 320.333333333 466 323 412 c 0
 323 358 330.333333333 310.5 345 269.5 c 128
 359.666666667 228.5 380.166666667 193.833333333 406.5 165.5 c 128
 432.833333333 137.166666667 464.333333333 115.666666667 501 101 c 128
 537.666666667 86.3333333333 578 79 622 79 c 0
 670 79 712.666666667 88.3333333333 750 107 c 0
 787.333333333 125.666666667 818.333333333 151 843 183 c 0
 867 215 885.333333333 253.333333333 898 298 c 0
918 1221 m 1
 925 1221 l 1
 1026 1221 l 1
 1033 1221 l 1
 1033 1214 l 1
 1033 4 l 1
 1033 -3 l 1
 1026 -3 l 1
 925 -3 l 1
 918 -3 l 1
 918 4 l 1
 918 135 l 1
 904.666666667 112.333333333 888.333333333 92.3333333333 869 75 c 0
 845.666666667 53 820 34.6666666667 792 20 c 0
 762.666666667 5.33333333333 732.333333333 -6.16666666667 701 -14.5 c 128
 669.666666667 -22.8333333333 639 -27 609 -27 c 0
 533.666666667 -27 470.333333333 -15 419 9 c 0
 368.333333333 33 326.666666667 65.8333333333 294 107.5 c 128
 261.333333333 149.166666667 237.333333333 198.666666667 222 256 c 0
 207.333333333 312.666666667 200 372.666666667 200 436 c 0
 200 497.333333333 208 556.333333333 224 613 c 0
 240 669.666666667 264.333333333 719.333333333 297 762 c 128
 329.666666667 804.666666667 371 839 421 865 c 0
 472.333333333 891 533.333333333 904 604 904 c 0
 670 904 733 889.666666667 793 861 c 0
 843.666666667 836.333333333 885.333333333 801.333333333 918 756 c 1
 918 1214 l 1
 918 1221 l 1
EndSplineSet
EndChar

StartChar: e
Encoding: 101 101 311
Width: 1066
VWidth: 1660
Flags: W
LayerCount: 2
Fore
SplineSet
299 476 m 1
 869 476 l 1
 868.333333333 514.666666667 862.333333333 551 851 585 c 0
 839.666666667 621 822.833333333 652.166666667 800.5 678.5 c 128
 778.166666667 704.833333333 749.666666667 725.666666667 715 741 c 0
 679.666666667 756.333333333 639 764 593 764 c 128
 547 764 506.5 756 471.5 740 c 128
 436.5 724 407.333333333 702.666666667 384 676 c 0
 360 648.666666667 340.666666667 617.333333333 326 582 c 0
 312.666666667 548.666666667 303.666666667 513.333333333 299 476 c 1
985 378 m 1
 298 378 l 1
 298.666666667 334 304.666666667 292.333333333 316 253 c 0
 328 211.666666667 345.833333333 175.833333333 369.5 145.5 c 128
 393.166666667 115.166666667 424 91 462 73 c 0
 500 55 543.666666667 46 593 46 c 0
 661 46 718.666666667 63 766 97 c 0
 811.333333333 131 842 179 858 241 c 2
 859 247 l 1
 864 247 l 1
 978 247 l 1
 987 247 l 1
 984 238 l 2
 971.333333333 196 955 156.666666667 935 120 c 0
 914.333333333 84 888.333333333 52.5 857 25.5 c 128
 825.666666667 -1.5 789 -22.6666666667 747 -38 c 0
 703 -53.3333333333 651.666666667 -60.6666666667 593 -60 c 0
 519 -60 455 -48 401 -24 c 0
 349 0 306.666666667 32.6666666667 274 74 c 0
 240.666666667 115.333333333 216 164.333333333 200 221 c 0
 184 277 176 337 176 401 c 0
 176 465.666666667 185.333333333 526.333333333 204 583 c 128
 222.666666667 639.666666667 249.5 689.333333333 284.5 732 c 128
 319.5 774.666666667 362.333333333 808.333333333 413 833 c 0
 465.666666667 857.666666667 525.666666667 870 593 870 c 0
 720.333333333 870 819 828.333333333 889 745 c 0
 959 661.666666667 993.333333333 541.666666667 992 385 c 2
 992 378 l 1
 985 378 l 1
EndSplineSet
EndChar

StartChar: f
Encoding: 102 102 312
Width: 533
VWidth: 1699
Flags: W
LayerCount: 2
Fore
SplineSet
83 786 m 1
 83 793 l 1
 83 878 l 1
 83 885 l 1
 91 885 l 1
 214 885 l 1
 214 1016 l 2
 214 1087.33333333 228.333333333 1144 257 1186 c 0
 286.333333333 1228.66666667 336.333333333 1250 407 1250 c 0
 423 1250 437.833333333 1249.33333333 451.5 1248 c 128
 465.166666667 1246.66666667 478.666666667 1245 492 1243 c 2
 498 1242 l 1
 498 1236 l 1
 498 1143 l 1
 498 1133 l 1
 489 1136 l 2
 467 1141.33333333 447.333333333 1144 430 1144 c 0
 405.333333333 1144 386.333333333 1139.66666667 373 1131 c 128
 359.666666667 1122.33333333 350 1110.66666667 344 1096 c 0
 338 1080.66666667 334 1063.66666667 332 1045 c 0
 330.666666667 1025.66666667 330 1006 330 986 c 2
 330 885 l 1
 491 885 l 1
 498 885 l 1
 498 878 l 1
 498 793 l 1
 498 786 l 1
 491 786 l 1
 330 786 l 1
 330 2 l 1
 330 -5 l 1
 322 -5 l 1
 221 -5 l 1
 214 -5 l 1
 214 2 l 1
 214 786 l 1
 91 786 l 1
 83 786 l 1
EndSplineSet
EndChar

StartChar: g
Encoding: 103 103 313
Width: 1165
VWidth: 1625
Flags: W
LayerCount: 2
Fore
SplineSet
898 228 m 0
 911.333333333 271.333333333 918 317.333333333 918 366 c 0
 918 417.333333333 911.333333333 465.333333333 898 510 c 0
 885.333333333 554.666666667 867 593 843 625 c 0
 818.333333333 657 787.333333333 682.333333333 750 701 c 0
 712 719.666666667 669.333333333 729 622 729 c 0
 578 729 537.666666667 721.666666667 501 707 c 128
 464.333333333 692.333333333 432.833333333 670.833333333 406.5 642.5 c 128
 380.166666667 614.166666667 359.666666667 579.5 345 538.5 c 128
 330.333333333 497.5 323 450 323 396 c 0
 321 342 325.333333333 291.666666667 336 245 c 0
 347.333333333 198.333333333 365 157.666666667 389 123 c 0
 413 88.3333333333 444.333333333 60.6666666667 483 40 c 0
 521.666666667 20 568 10 622 10 c 0
 668.666666667 10 710.666666667 19.6666666667 748 39 c 0
 784.666666667 58.3333333333 815.5 83.8333333333 840.5 115.5 c 128
 865.5 147.166666667 884.666666667 184.666666667 898 228 c 0
918 811 m 1
 925 811 l 1
 1026 811 l 1
 1033 811 l 1
 1033 804 l 1
 1033 19 l 2
 1033 -39.6666666667 1027 -96 1015 -150 c 0
 1003 -204.666666667 981.666666667 -252.666666667 951 -294 c 0
 919.666666667 -335.333333333 876.666666667 -368.333333333 822 -393 c 0
 794.666666667 -405.666666667 763 -415 727 -421 c 128
 691 -427 651.333333333 -430 608 -430 c 0
 540 -430 481.666666667 -421.666666667 433 -405 c 0
 385.666666667 -388.333333333 347.166666667 -367.333333333 317.5 -342 c 128
 287.833333333 -316.666666667 265 -288.666666667 249 -258 c 128
 233 -227.333333333 224.333333333 -198.333333333 223 -171 c 2
 223 -164 l 1
 231 -164 l 1
 339 -164 l 1
 344 -164 l 1
 346 -169 l 2
 353.333333333 -200.333333333 365.166666667 -226.166666667 381.5 -246.5 c 128
 397.833333333 -266.833333333 417 -282.666666667 439 -294 c 0
 462.333333333 -305.333333333 488.333333333 -313.333333333 517 -318 c 0
 546.333333333 -322.666666667 576.666666667 -325 608 -325 c 0
 678.666666667 -325 735 -313.333333333 777 -290 c 0
 817.666666667 -267.333333333 848.333333333 -237.333333333 869 -200 c 0
 890.333333333 -162.666666667 904 -120 910 -72 c 0
 915.333333333 -32 918 9 918 51 c 1
 886 5.66666666667 844.333333333 -29.3333333333 793 -54 c 0
 732.333333333 -82 669.333333333 -96 604 -96 c 0
 533.333333333 -96 472.333333333 -83 421 -57 c 0
 371 -31.6666666667 329.666666667 2.5 297 45.5 c 128
 264.333333333 88.5 240 138.333333333 224 195 c 0
 208 251.666666667 200 310.333333333 200 371 c 0
 200 435.666666667 207.333333333 496 222 552 c 0
 236.666666667 608.666666667 260.5 658 293.5 700 c 128
 326.5 742 368.333333333 775 419 799 c 0
 471 823 534.333333333 835 609 835 c 0
 639 835 669.666666667 830.833333333 701 822.5 c 128
 732.333333333 814.166666667 762.666666667 802.666666667 792 788 c 0
 820 773.333333333 845.666666667 754.333333333 869 731 c 0
 887.666666667 713 904 693 918 671 c 1
 918 804 l 1
 918 811 l 1
EndSplineSet
EndChar

StartChar: h
Encoding: 104 104 314
Width: 1066
VWidth: 1696
Flags: W
LayerCount: 2
Fore
SplineSet
221 0 m 1
 221 7 l 1
 221 1217 l 1
 221 1224 l 1
 228 1224 l 1
 329 1224 l 1
 336 1224 l 1
 336 1217 l 1
 336 771 l 1
 373.333333333 809 412 840 452 864 c 0
 498.666666667 892 555 906 621 906 c 0
 679 906 731.666666667 896.666666667 779 878 c 0
 827 858.666666667 867 825.666666667 899 779 c 0
 921 747 934 713.666666667 938 679 c 0
 942 645.666666667 944 611 944 575 c 2
 944 7 l 1
 944 0 l 1
 937 0 l 1
 835 0 l 1
 828 0 l 1
 828 7 l 1
 828 573 l 2
 828 649 811.333333333 706 778 744 c 0
 744.666666667 781.333333333 686.333333333 800 603 800 c 0
 570.333333333 800 540.666666667 795.666666667 514 787 c 0
 486.666666667 777.666666667 463 765.333333333 443 750 c 0
 423 734.666666667 405.833333333 717.166666667 391.5 697.5 c 128
 377.166666667 677.833333333 366 657.333333333 358 636 c 0
 348 608.666666667 342 582.333333333 340 557 c 0
 337.333333333 531.666666667 336 504 336 474 c 2
 336 7 l 1
 336 0 l 1
 329 0 l 1
 228 0 l 1
 221 0 l 1
EndSplineSet
EndChar

StartChar: i
Encoding: 105 105 315
Width: 428
VWidth: 1696
Flags: W
LayerCount: 2
Fore
SplineSet
172 1059 m 1
 172 1066 l 1
 172 1217 l 1
 172 1224 l 1
 179 1224 l 1
 290 1224 l 1
 298 1224 l 1
 298 1217 l 1
 298 1066 l 1
 298 1059 l 1
 290 1059 l 1
 179 1059 l 1
 172 1059 l 1
177 0 m 1
 177 7 l 1
 177 875 l 1
 177 882 l 1
 184 882 l 1
 285 882 l 1
 293 882 l 1
 293 875 l 1
 293 7 l 1
 293 0 l 1
 285 0 l 1
 184 0 l 1
 177 0 l 1
EndSplineSet
EndChar

StartChar: j
Encoding: 106 106 316
Width: 416
VWidth: 1660
Flags: W
LayerCount: 2
Fore
SplineSet
297 1022 m 1
 290 1022 l 1
 179 1022 l 1
 171 1022 l 1
 171 1029 l 1
 171 1180 l 1
 171 1187 l 1
 179 1187 l 1
 290 1187 l 1
 297 1187 l 1
 297 1180 l 1
 297 1029 l 1
 297 1022 l 1
292 846 m 1
 292 839 l 1
 292 -153 l 2
 292 -191 290.333333333 -224 287 -252 c 0
 283.666666667 -281.333333333 276 -306.333333333 264 -327 c 0
 251.333333333 -348.333333333 232.666666667 -364 208 -374 c 0
 184 -384 151 -389 109 -389 c 0
 83.6666666667 -389 61.3333333333 -386.666666667 42 -382 c 2
 36 -381 l 1
 36 -375 l 1
 36 -285 l 1
 36 -277 l 1
 44 -278 l 2
 72.6666666667 -281.333333333 95.6666666667 -281.666666667 113 -279 c 0
 129.666666667 -276.333333333 142.666666667 -270.333333333 152 -261 c 0
 161.333333333 -251.666666667 167.666666667 -239.333333333 171 -224 c 0
 175 -208 176.666666667 -189 176 -167 c 2
 176 839 l 1
 176 846 l 1
 184 846 l 1
 285 846 l 1
 292 846 l 1
EndSplineSet
EndChar

StartChar: k
Encoding: 107 107 317
Width: 972
VWidth: 1696
Flags: W
LayerCount: 2
Fore
SplineSet
214 0 m 1
 214 7 l 1
 214 1217 l 1
 214 1224 l 1
 221 1224 l 1
 323 1224 l 1
 330 1224 l 1
 330 1217 l 1
 330 476 l 1
 761 880 l 1
 763 882 l 1
 766 882 l 1
 905 882 l 1
 922 882 l 1
 910 870 l 1
 579 561 l 1
 949 11 l 1
 957 0 l 1
 943 0 l 1
 830 0 l 1
 827 0 l 1
 824 3 l 1
 489 484 l 1
 330 335 l 1
 330 7 l 1
 330 0 l 1
 323 0 l 1
 221 0 l 1
 214 0 l 1
EndSplineSet
EndChar

StartChar: l
Encoding: 108 108 318
Width: 428
VWidth: 1696
Flags: W
LayerCount: 2
Fore
SplineSet
177 0 m 1
 177 7 l 1
 177 1217 l 1
 177 1224 l 1
 184 1224 l 1
 285 1224 l 1
 293 1224 l 1
 293 1217 l 1
 293 7 l 1
 293 0 l 1
 285 0 l 1
 184 0 l 1
 177 0 l 1
EndSplineSet
EndChar

StartChar: m
Encoding: 109 109 319
Width: 1583
VWidth: 1663
Flags: W
LayerCount: 2
Fore
SplineSet
373 -41 m 1
 366 -41 l 1
 264 -41 l 1
 257 -41 l 1
 257 -34 l 1
 257 842 l 1
 257 849 l 1
 264 849 l 1
 366 849 l 1
 373 849 l 1
 373 842 l 1
 373 731 l 1
 399 774.333333333 433.666666667 808 477 832 c 0
 527 859.333333333 582 873 642 873 c 0
 684 873 719.833333333 868.333333333 749.5 859 c 128
 779.166666667 849.666666667 804.5 837 825.5 821 c 128
 846.5 805 863.666666667 786.666666667 877 766 c 0
 887.666666667 750 897 732.333333333 905 713 c 1
 935 765 973.333333333 804 1020 830 c 0
 1071.33333333 858.666666667 1129.66666667 873 1195 873 c 0
 1256.33333333 873 1305.5 862.666666667 1342.5 842 c 128
 1379.5 821.333333333 1407.66666667 794.333333333 1427 761 c 0
 1446.33333333 728.333333333 1459.33333333 690.666666667 1466 648 c 0
 1472.66666667 606 1476 563 1476 519 c 2
 1476 -34 l 1
 1476 -41 l 1
 1468 -41 l 1
 1367 -41 l 1
 1360 -41 l 1
 1360 -34 l 1
 1360 571 l 2
 1360 633 1347 681.333333333 1321 716 c 0
 1296.33333333 750 1249 767 1179 767 c 0
 1141.66666667 767 1106 759.166666667 1072 743.5 c 128
 1038 727.833333333 1008 703.333333333 982 670 c 0
 971.333333333 656 962.333333333 639.333333333 955 620 c 0
 947.666666667 600.666666667 941.833333333 580.5 937.5 559.5 c 128
 933.166666667 538.5 930 517.333333333 928 496 c 128
 926 474.666666667 925 455 925 437 c 2
 925 -34 l 1
 925 -41 l 1
 918 -41 l 1
 815 -41 l 1
 808 -41 l 1
 808 -34 l 1
 808 571 l 2
 808 633 794.666666667 681.333333333 768 716 c 0
 742 750 693.666666667 767 623 767 c 0
 585.666666667 767 550.333333333 759 517 743 c 0
 483.666666667 727 454.333333333 702.666666667 429 670 c 0
 418.333333333 656 409.333333333 639.333333333 402 620 c 0
 394.666666667 600.666666667 388.833333333 580.5 384.5 559.5 c 128
 380.166666667 538.5 377.166666667 517.333333333 375.5 496 c 128
 373.833333333 474.666666667 373 455 373 437 c 2
 373 -34 l 1
 373 -41 l 1
EndSplineSet
EndChar

StartChar: n
Encoding: 110 110 320
Width: 1066
VWidth: 1663
Flags: W
LayerCount: 2
Fore
SplineSet
336 -41 m 1
 329 -41 l 1
 228 -41 l 1
 221 -41 l 1
 221 -34 l 1
 221 842 l 1
 221 849 l 1
 228 849 l 1
 329 849 l 1
 336 849 l 1
 336 842 l 1
 336 737 l 1
 373.333333333 775 412 806.333333333 452 831 c 0
 498.666666667 859 555 873 621 873 c 0
 679 873 731.666666667 863.333333333 779 844 c 0
 827 824.666666667 867 791.333333333 899 744 c 0
 921 712 934 678.666666667 938 644 c 0
 942 610.666666667 944 575.666666667 944 539 c 2
 944 -34 l 1
 944 -41 l 1
 937 -41 l 1
 835 -41 l 1
 828 -41 l 1
 828 -34 l 1
 828 537 l 2
 828 613.666666667 811.333333333 671.333333333 778 710 c 0
 744.666666667 748 686.333333333 767 603 767 c 0
 570.333333333 767 540.666666667 762.333333333 514 753 c 0
 486.666666667 743.666666667 463 731.333333333 443 716 c 0
 423 700.666666667 405.833333333 683.166666667 391.5 663.5 c 128
 377.166666667 643.833333333 366 623 358 601 c 0
 348 573.666666667 342 547.333333333 340 522 c 0
 337.333333333 496.666666667 336 468.333333333 336 437 c 2
 336 -34 l 1
 336 -41 l 1
EndSplineSet
EndChar

StartChar: o
Encoding: 111 111 321
Width: 1066
VWidth: 1660
Flags: W
LayerCount: 2
Fore
SplineSet
865 271 m 0
 876.333333333 313.666666667 881.666666667 358.333333333 881 405 c 0
 881 455.666666667 875.666666667 503 865 547 c 0
 853.666666667 591 836.333333333 629 813 661 c 0
 790.333333333 693 760.333333333 718 723 736 c 0
 685.666666667 754.666666667 639 764 583 764 c 0
 529 764 483 754 445 734 c 0
 407 714 376.666666667 687.333333333 354 654 c 0
 330.666666667 620.666666667 313.666666667 582.333333333 303 539 c 0
 291.666666667 495.666666667 286 451 286 405 c 0
 286 352.333333333 292.333333333 303.666666667 305 259 c 0
 317.666666667 214.333333333 336.333333333 176.333333333 361 145 c 0
 385 113.666666667 415.666666667 89 453 71 c 0
 491 53.6666666667 534.333333333 45.3333333333 583 46 c 0
 637 46 683.333333333 56 722 76 c 0
 760 96 790.333333333 122.666666667 813 156 c 0
 836.333333333 190 853.666666667 228.333333333 865 271 c 0
760 -27 m 0
 706.666666667 -49 647.666666667 -60 583 -60 c 0
 523.666666667 -58.6666666667 468 -48.6666666667 416 -30 c 0
 366 -10.6666666667 322.333333333 18.5 285 57.5 c 128
 247.666666667 96.5 218.166666667 144.833333333 196.5 202.5 c 128
 174.833333333 260.166666667 164 327.333333333 164 404 c 0
 164 468.666666667 172.333333333 529 189 585 c 0
 206.333333333 641 232.166666667 690.166666667 266.5 732.5 c 128
 300.833333333 774.833333333 344 808.333333333 396 833 c 0
 449.333333333 857.666666667 511.666666667 870 583 870 c 0
 655.666666667 870 719 857.666666667 773 833 c 0
 825 808.333333333 868 775.166666667 902 733.5 c 128
 936 691.833333333 961.666666667 642.666666667 979 586 c 0
 995.666666667 529.333333333 1004 468.666666667 1004 404 c 0
 1004 334 994.166666667 270.833333333 974.5 214.5 c 128
 954.833333333 158.166666667 927 109.333333333 891 68 c 128
 855 26.6666666667 811.333333333 -5 760 -27 c 0
EndSplineSet
EndChar

StartChar: p
Encoding: 112 112 322
Width: 1173
VWidth: 1626
Flags: W
LayerCount: 2
Fore
SplineSet
382 512 m 0
 369.333333333 467.333333333 363 419 363 367 c 0
 363 319 369.666666667 273.333333333 383 230 c 0
 396.333333333 186.666666667 415.333333333 149 440 117 c 128
 464.666666667 85 495.333333333 59.3333333333 532 40 c 0
 569.333333333 20.6666666667 611.333333333 11.3333333333 658 12 c 0
 710.666666667 12 757 22 797 42 c 0
 836.333333333 62 868 89.3333333333 892 124 c 0
 916 158.666666667 933.666666667 199.333333333 945 246 c 0
 956.333333333 292.666666667 960.666666667 343 958 397 c 0
 958 451 950.5 498.5 935.5 539.5 c 128
 920.5 580.5 899.833333333 615.166666667 873.5 643.5 c 128
 847.166666667 671.833333333 815.666666667 693.333333333 779 708 c 128
 742.333333333 722.666666667 702 730 658 730 c 0
 610 730 567 720.666666667 529 702 c 0
 491.666666667 683.333333333 461.333333333 658 438 626 c 0
 413.333333333 594.666666667 394.666666667 556.666666667 382 512 c 0
363 -415 m 1
 356 -415 l 1
 254 -415 l 1
 247 -415 l 1
 247 -408 l 1
 247 805 l 1
 247 812 l 1
 254 812 l 1
 356 812 l 1
 363 812 l 1
 363 805 l 1
 363 672 l 1
 376.333333333 694 392.333333333 714 411 732 c 0
 434.333333333 755.333333333 460 774.333333333 488 789 c 0
 517.333333333 803.666666667 547.5 815.166666667 578.5 823.5 c 128
 609.5 831.833333333 640 836 670 836 c 0
 745.333333333 836 809 824 861 800 c 0
 911.666666667 776 953.333333333 743.333333333 986 702 c 0
 1018.66666667 660 1042.66666667 610.666666667 1058 554 c 0
 1073.33333333 497.333333333 1080.66666667 436.666666667 1080 372 c 0
 1080 310.666666667 1072 252 1056 196 c 0
 1040 139.333333333 1015.66666667 89.6666666667 983 47 c 0
 950.333333333 4.33333333333 909 -30 859 -56 c 0
 807 -81.3333333333 746 -94 676 -94 c 0
 610 -94 547 -80 487 -52 c 0
 436.333333333 -27.3333333333 395 7.33333333333 363 52 c 1
 363 -408 l 1
 363 -415 l 1
EndSplineSet
EndChar

StartChar: q
Encoding: 113 113 323
Width: 1165
VWidth: 1626
Flags: W
LayerCount: 2
Fore
SplineSet
898 230 m 0
 910.666666667 274.666666667 917.333333333 323 918 375 c 0
 918 423 911.333333333 468.666666667 898 512 c 0
 884.666666667 555.333333333 865.5 593 840.5 625 c 128
 815.5 657 784.666666667 682.666666667 748 702 c 0
 710.666666667 721.333333333 668.666666667 730.666666667 622 730 c 0
 568 730 521.666666667 720 483 700 c 0
 445 680 413.666666667 652.666666667 389 618 c 0
 365 583.333333333 347.333333333 542.333333333 336 495 c 0
 324.666666667 448.333333333 320.333333333 398 323 344 c 0
 323 290 330.333333333 242.666666667 345 202 c 128
 359.666666667 161.333333333 380.166666667 126.666666667 406.5 98 c 128
 432.833333333 69.3333333333 464.333333333 47.8333333333 501 33.5 c 128
 537.666666667 19.1666666667 578 12 622 12 c 0
 670 12 712.666666667 21 750 39 c 0
 787.333333333 57.6666666667 818.333333333 83 843 115 c 0
 867 147 885.333333333 185.333333333 898 230 c 0
918 812 m 1
 925 812 l 1
 1026 812 l 1
 1033 812 l 1
 1033 805 l 1
 1033 -408 l 1
 1033 -415 l 1
 1026 -415 l 1
 925 -415 l 1
 918 -415 l 1
 918 -408 l 1
 918 52 l 1
 886 7.33333333333 844.333333333 -27.3333333333 793 -52 c 0
 732.333333333 -80 669.333333333 -94 604 -94 c 0
 533.333333333 -94 472.333333333 -81.3333333333 421 -56 c 0
 371 -30.6666666667 329.666666667 3.5 297 46.5 c 128
 264.333333333 89.5 240 139.333333333 224 196 c 0
 208 252.666666667 200 311.333333333 200 372 c 0
 200 436.666666667 207.333333333 497.333333333 222 554 c 0
 236.666666667 610.666666667 260.5 659.833333333 293.5 701.5 c 128
 326.5 743.166666667 368.333333333 776 419 800 c 0
 471 824 534.333333333 836 609 836 c 0
 639 836 669.666666667 832 701 824 c 128
 732.333333333 816 762.666666667 804.333333333 792 789 c 0
 820 774.333333333 845.666666667 755.666666667 869 733 c 0
 887.666666667 715 904 694.666666667 918 672 c 1
 918 805 l 1
 918 812 l 1
EndSplineSet
EndChar

StartChar: r
Encoding: 114 114 324
Width: 644
VWidth: 1663
Flags: W
LayerCount: 2
Fore
SplineSet
310 -41 m 1
 303 -41 l 1
 203 -41 l 1
 195 -41 l 1
 195 -34 l 1
 195 842 l 1
 195 849 l 1
 203 849 l 1
 303 849 l 1
 310 849 l 1
 310 842 l 1
 310 703 l 1
 337.333333333 762.333333333 371.333333333 804.666666667 412 830 c 0
 458 858.666666667 518.333333333 873 593 873 c 2
 600 873 l 1
 600 866 l 1
 600 755 l 1
 600 748 l 1
 593 748 l 2
 537 749.333333333 490.833333333 740.666666667 454.5 722 c 128
 418.166666667 703.333333333 389.333333333 678.333333333 368 647 c 0
 346.666666667 615 331.666666667 577 323 533 c 0
 314.333333333 489 310 443 310 395 c 2
 310 -34 l 1
 310 -41 l 1
EndSplineSet
EndChar

StartChar: s
Encoding: 115 115 325
Width: 962
VWidth: 1660
Flags: W
LayerCount: 2
Fore
SplineSet
284 252 m 1
 285 246 l 2
 300.333333333 172.666666667 328 121 368 91 c 0
 408.666666667 61 469 46 549 46 c 0
 588.333333333 46 621.333333333 50.3333333333 648 59 c 0
 674 67.6666666667 695.5 79.1666666667 712.5 93.5 c 128
 729.5 107.833333333 742.166666667 124 750.5 142 c 128
 758.833333333 160 763 179.333333333 763 200 c 0
 763 240 750.333333333 269.333333333 725 288 c 0
 697.666666667 308 663.333333333 324 622 336 c 0
 578 347.333333333 530.333333333 357.333333333 479 366 c 0
 427.666666667 374.666666667 380.666666667 387.333333333 338 404 c 0
 295.333333333 421.333333333 259.666666667 446 231 478 c 0
 202.333333333 510.666666667 188 556 188 614 c 0
 188 688.666666667 215.666666667 750 271 798 c 0
 325.666666667 846 405 870 509 870 c 0
 610.333333333 870 691.333333333 848.333333333 752 805 c 0
 812.666666667 761.666666667 849.333333333 689.333333333 862 588 c 2
 863 580 l 1
 855 580 l 1
 752 580 l 1
 745 580 l 1
 745 586 l 2
 736.333333333 651.333333333 711.666666667 697.333333333 671 724 c 0
 628.333333333 750.666666667 573.333333333 764 506 764 c 0
 439.333333333 764 390 751 358 725 c 0
 326 699 310.333333333 664.666666667 311 622 c 0
 311 585.333333333 323.666666667 557.333333333 349 538 c 0
 375.666666667 518 410.333333333 501.666666667 453 489 c 0
 497.666666667 476.333333333 545.666666667 465 597 455 c 0
 647.666666667 445 694 430.666666667 736 412 c 0
 778.666666667 393.333333333 814 368 842 336 c 0
 870.666666667 303.333333333 885.333333333 258 886 200 c 0
 886 157.333333333 876.666666667 119.666666667 858 87 c 128
 839.333333333 54.3333333333 813.666666667 27 781 5 c 0
 749 -17 711 -33.3333333333 667 -44 c 0
 621 -54.6666666667 570 -60 514 -60 c 0
 458 -60 409.333333333 -52.3333333333 368 -37 c 0
 326.666666667 -21 291.666666667 0.833333333333 263 28.5 c 128
 234.333333333 56.1666666667 211.833333333 88.3333333333 195.5 125 c 128
 179.166666667 161.666666667 170 201.333333333 168 244 c 2
 167 252 l 1
 175 252 l 1
 278 252 l 1
 284 252 l 1
EndSplineSet
EndChar

StartChar: t
Encoding: 116 116 326
Width: 532
VWidth: 1683
Flags: W
LayerCount: 2
Fore
SplineSet
492 -15 m 1
 486 -16 l 2
 473.333333333 -18 457.333333333 -22 438 -28 c 0
 417.333333333 -34 394.333333333 -37 369 -37 c 0
 316.333333333 -37 276 -23.8333333333 248 2.5 c 128
 220 28.8333333333 206 75.6666666667 206 143 c 2
 206 770 l 1
 90 770 l 1
 83 770 l 1
 83 777 l 1
 83 862 l 1
 83 869 l 1
 90 869 l 1
 206 869 l 1
 206 1106 l 1
 206 1113 l 1
 213 1113 l 1
 314 1113 l 1
 322 1113 l 1
 322 1106 l 1
 322 869 l 1
 479 869 l 1
 486 869 l 1
 486 862 l 1
 486 777 l 1
 486 770 l 1
 479 770 l 1
 322 770 l 1
 322 183 l 2
 322 161.666666667 322.333333333 143.666666667 323 129 c 0
 324.333333333 114.333333333 327.666666667 102.333333333 333 93 c 0
 337.666666667 84.3333333333 345 78.3333333333 355 75 c 0
 366.333333333 71 382.333333333 69 403 69 c 0
 416.333333333 69 429.666666667 70 443 72 c 0
 457 74 470.666666667 76.6666666667 484 80 c 2
 492 82 l 1
 492 73 l 1
 492 -9 l 1
 492 -15 l 1
EndSplineSet
EndChar

StartChar: u
Encoding: 117 117 327
Width: 1066
VWidth: 1658
Flags: W
LayerCount: 2
Fore
SplineSet
828 844 m 1
 835 844 l 1
 937 844 l 1
 944 844 l 1
 944 837 l 1
 944 -32 l 1
 944 -39 l 1
 937 -39 l 1
 835 -39 l 1
 828 -39 l 1
 828 -32 l 1
 828 70 l 1
 817.333333333 58.6666666667 806.333333333 47 795 35 c 0
 777.666666667 17.6666666667 757.666666667 1.83333333333 735 -12.5 c 128
 712.333333333 -26.8333333333 685.333333333 -38.6666666667 654 -48 c 0
 622 -58 585.333333333 -63 544 -63 c 0
 481.333333333 -63 429.666666667 -54.6666666667 389 -38 c 0
 348.333333333 -21.3333333333 315.5 2 290.5 32 c 128
 265.5 62 247.666666667 96.6666666667 237 136 c 0
 226.333333333 175.333333333 221 218 221 264 c 2
 221 837 l 1
 221 844 l 1
 228 844 l 1
 329 844 l 1
 336 844 l 1
 336 837 l 1
 336 267 l 2
 336 194.333333333 353 138.666666667 387 100 c 0
 420.333333333 62 478 43 560 43 c 0
 603.333333333 43 642.333333333 50.6666666667 677 66 c 0
 709.666666667 81.3333333333 737 103.333333333 759 132 c 0
 781 160.666666667 798 194.666666667 810 234 c 0
 822 273.333333333 828 316.666666667 828 364 c 2
 828 837 l 1
 828 844 l 1
EndSplineSet
EndChar

StartChar: v
Encoding: 118 118 328
Width: 962
VWidth: 1660
Flags: W
LayerCount: 2
Fore
SplineSet
118 846 m 1
 129 846 l 1
 239 846 l 1
 244 846 l 1
 245 842 l 1
 530 109 l 1
 814 842 l 1
 816 846 l 1
 821 846 l 1
 930 846 l 1
 941 846 l 1
 937 836 l 1
 593 -39 l 1
 592 -44 l 1
 586 -44 l 1
 467 -44 l 1
 462 -44 l 1
 460 -39 l 1
 122 836 l 1
 118 846 l 1
EndSplineSet
EndChar

StartChar: w
Encoding: 119 119 329
Width: 1376
VWidth: 1660
Flags: W
LayerCount: 2
Fore
SplineSet
824 841 m 1
 1013 125 l 1
 1238 841 l 1
 1240 846 l 1
 1245 846 l 1
 1348 846 l 1
 1358 846 l 1
 1355 837 l 1
 1070 -39 l 1
 1069 -44 l 1
 1063 -44 l 1
 953 -44 l 1
 947 -44 l 1
 946 -38 l 1
 756 677 l 1
 563 -38 l 1
 562 -44 l 1
 556 -44 l 1
 432 -44 l 1
 426 -44 l 1
 425 -38 l 1
 158 837 l 1
 155 846 l 1
 165 846 l 1
 266 846 l 1
 271 846 l 1
 273 841 l 1
 494 118 l 1
 694 841 l 1
 696 846 l 1
 701 846 l 1
 817 846 l 1
 822 846 l 1
 824 841 l 1
EndSplineSet
EndChar

StartChar: x
Encoding: 120 120 330
Width: 962
VWidth: 1660
Flags: W
LayerCount: 2
Fore
SplineSet
803 -40 m 1
 537 330 l 1
 263 -41 l 1
 261 -44 l 1
 257 -44 l 1
 134 -44 l 1
 120 -44 l 1
 128 -32 l 1
 465 417 l 1
 156 835 l 1
 147 846 l 1
 161 846 l 1
 286 846 l 1
 290 846 l 1
 292 843 l 1
 535 503 l 1
 785 843 l 1
 787 846 l 1
 790 846 l 1
 919 846 l 1
 933 846 l 1
 925 835 l 1
 608 417 l 1
 936 -32 l 1
 945 -44 l 1
 931 -44 l 1
 809 -44 l 1
 806 -44 l 1
 803 -40 l 1
EndSplineSet
EndChar

StartChar: y
Encoding: 121 121 331
Width: 962
VWidth: 1624
Flags: W
LayerCount: 2
Fore
SplineSet
208 -303 m 1
 216 -304 l 2
 230 -306 243.666666667 -308.333333333 257 -311 c 0
 270.333333333 -313 284.666666667 -314 300 -314 c 0
 326 -314 347 -305.666666667 363 -289 c 0
 381 -271.666666667 396 -250.666666667 408 -226 c 0
 420 -200.666666667 430.333333333 -174.666666667 439 -148 c 0
 447 -121.333333333 456.333333333 -98.3333333333 467 -79 c 1
 124 800 l 1
 120 810 l 1
 131 810 l 1
 244 810 l 1
 249 810 l 1
 250 805 l 1
 531 71 l 1
 812 805 l 1
 814 810 l 1
 819 810 l 1
 929 810 l 1
 939 810 l 1
 935 800 l 1
 606 -64 l 2
 584.666666667 -119.333333333 564 -169 544 -213 c 0
 524 -257.666666667 503.333333333 -295.333333333 482 -326 c 0
 460 -357.333333333 435 -381.666666667 407 -399 c 0
 379 -416.333333333 347 -425 311 -425 c 0
 292.333333333 -425 274.833333333 -423.833333333 258.5 -421.5 c 128
 242.166666667 -419.166666667 227 -416 213 -412 c 2
 208 -411 l 1
 208 -405 l 1
 208 -311 l 1
 208 -303 l 1
EndSplineSet
EndChar

StartChar: z
Encoding: 122 122 332
Width: 962
VWidth: 1660
Flags: W
LayerCount: 2
Fore
SplineSet
146 -36 m 1
 146 -29 l 1
 146 60 l 1
 146 62 l 1
 147 64 l 1
 733 747 l 1
 192 747 l 1
 184 747 l 1
 184 754 l 1
 184 839 l 1
 184 846 l 1
 192 846 l 1
 878 846 l 1
 886 846 l 1
 886 839 l 1
 886 750 l 1
 886 747 l 1
 884 745 l 1
 298 62 l 1
 900 62 l 1
 907 62 l 1
 907 55 l 1
 907 -29 l 1
 907 -36 l 1
 900 -36 l 1
 153 -36 l 1
 146 -36 l 1
EndSplineSet
EndChar

StartChar: bar
Encoding: 124 124 333
Width: 414
VWidth: 1657
Flags: W
LayerCount: 2
Fore
SplineSet
285 1235 m 1
 285 -455 l 1
 285 -462 l 1
 278 -462 l 1
 177 -462 l 1
 170 -462 l 1
 170 -455 l 1
 170 1235 l 1
 170 1242 l 1
 177 1242 l 1
 278 1242 l 1
 285 1242 l 1
 285 1235 l 1
EndSplineSet
EndChar

StartChar: asciitilde
Encoding: 126 126 334
Width: 1232
VWidth: 1659
Flags: W
LayerCount: 2
Fore
SplineSet
492 525 m 256
 523.333333333 525 556.333333333 518.333333333 591 505 c 0
 625.666666667 492.333333333 659.333333333 478.333333333 692 463 c 0
 725.333333333 447 757 433 787 421 c 0
 816.333333333 409 841.666666667 403 863 403 c 0
 881 403 898 407.333333333 914 416 c 0
 930 425.333333333 945 437 959 451 c 256
 973 465 985.333333333 480.666666667 996 498 c 0
 1007.33333333 514.666666667 1016.66666667 530.666666667 1024 546 c 2
 1028 554 l 1
 1035 548 l 1
 1103 491 l 1
 1108 487 l 1
 1105 482 l 2
 1092.33333333 459.333333333 1078.33333333 437 1063 415 c 0
 1047.66666667 392.333333333 1029.66666667 372 1009 354 c 256
 988.333333333 336 966 321.333333333 942 310 c 0
 917.333333333 298.666666667 890.666666667 293.333333333 862 294 c 0
 845.333333333 294 826.666666667 296.666666667 806 302 c 0
 786 307.333333333 765.333333333 313.333333333 744 320 c 256
 722.666666667 327.333333333 702 335.333333333 682 344 c 256
 662 352.666666667 645 359.666666667 631 365 c 0
 608.333333333 373.666666667 585 384.666666667 561 398 c 0
 538.333333333 410 515.333333333 416 492 416 c 0
 470.666666667 416 451.333333333 411 434 401 c 256
 416.666666667 391 401 378.666666667 387 364 c 0
 373 348.666666667 360 331.666666667 348 313 c 256
 336 294.333333333 325 276.666666667 315 260 c 2
 309 250 l 1
 303 259 l 1
 248 340 l 1
 245 344 l 1
 248 348 l 2
 260.666666667 366 274.666666667 385 290 405 c 0
 305.333333333 425.666666667 322.666666667 445 342 463 c 256
 361.333333333 481 383.333333333 495.666666667 408 507 c 0
 432.666666667 519 460.666666667 525 492 525 c 256
EndSplineSet
EndChar

StartChar: exclamdown
Encoding: 161 161 335
Width: 621
VWidth: 1629
Flags: W
LayerCount: 2
Fore
SplineSet
272 691 m 1
 272 839 l 1
 272 846 l 1
 279 846 l 1
 403 846 l 1
 410 846 l 1
 410 839 l 1
 410 691 l 1
 410 684 l 1
 403 684 l 1
 279 684 l 1
 272 684 l 1
 272 691 l 1
386 535 m 1
 410 3 l 1
 410 3 l 1
 410 -376 l 1
 410 -383 l 1
 403 -383 l 1
 279 -383 l 1
 272 -383 l 1
 272 -376 l 1
 272 3 l 1
 272 3 l 1
 296 535 l 1
 296 542 l 1
 303 542 l 1
 379 542 l 1
 386 542 l 1
 386 535 l 1
EndSplineSet
EndChar

StartChar: cent
Encoding: 162 162 336
Width: 1037
VWidth: 1658
Flags: W
LayerCount: 2
Fore
SplineSet
637 763 m 1
 628.333333333 765 620 766.666666667 612 768 c 0
 600.666666667 769.333333333 589 769.666666667 577 769 c 0
 526.333333333 769 483 758.666666667 447 738 c 256
 410.333333333 717.333333333 380.666666667 689.666666667 358 655 c 0
 334.666666667 620.333333333 317.333333333 581 306 537 c 256
 294.666666667 493 289.333333333 448.666666667 290 404 c 0
 290 340.666666667 300.666666667 280 322 222 c 0
 342 168 373.666666667 125.666666667 417 95 c 1
 637 763 l 1
500 53 m 1
 511.333333333 50.3333333333 522.333333333 48.3333333333 533 47 c 0
 546.333333333 45 561 43.6666666667 577 43 c 0
 650.333333333 43 709.333333333 63.3333333333 754 104 c 256
 798.666666667 144.666666667 826.666666667 201 838 273 c 2
 839 279 l 1
 845 279 l 1
 953 279 l 1
 962 279 l 1
 961 270 l 2
 954.333333333 225.333333333 941 183 921 143 c 256
 901.666666667 102.333333333 876 67 844 37 c 256
 812 7 773.333333333 -17.3333333333 728 -36 c 256
 683.333333333 -54 633 -62.6666666667 577 -62 c 0
 555 -62 534.666666667 -61 516 -59 c 0
 499.333333333 -57 482.666666667 -54 466 -50 c 1
 393 -272 l 1
 391 -277 l 1
 386 -277 l 1
 307 -277 l 1
 297 -277 l 1
 300 -268 l 1
 380 -20 l 1
 306.666666667 17.3333333333 253.333333333 72.6666666667 220 146 c 0
 185.333333333 221.333333333 167.666666667 307.333333333 167 404 c 0
 167 479.333333333 177.333333333 546 198 604 c 0
 218.666666667 662.666666667 247.333333333 712 284 752 c 256
 320.666666667 792.666666667 364 823.333333333 414 844 c 256
 464 864.666666667 518.333333333 875 577 875 c 0
 595.666666667 875 613.333333333 874 630 872 c 0
 644 870 657.666666667 868.333333333 671 867 c 1
 737 1064 l 1
 739 1069 l 1
 744 1069 l 1
 826 1069 l 1
 835 1069 l 1
 832 1060 l 1
 760 840 l 1
 864.666666667 793.333333333 927 703 947 569 c 2
 949 561 l 1
 940 561 l 1
 837 561 l 1
 832 561 l 1
 830 567 l 2
 811.333333333 639 775.666666667 692.666666667 723 728 c 1
 500 53 l 1
EndSplineSet
EndChar

StartChar: sterling
Encoding: 163 163 337
Width: 1038
VWidth: 1691
Flags: W
LayerCount: 2
Fore
SplineSet
698 619 m 1
 698 548 l 1
 698 541 l 1
 691 541 l 1
 446 541 l 1
 450.666666667 525 454 508.666666667 456 492 c 0
 459.333333333 472 461 452 461 432 c 0
 461 400 456.333333333 369 447 339 c 256
 437.666666667 309 425.333333333 280.666666667 410 254 c 256
 394.666666667 227.333333333 377 202 357 178 c 0
 343 161.333333333 328.666666667 144.666666667 314 128 c 1
 330 135.333333333 346.666666667 142.333333333 364 149 c 0
 390.666666667 159 418 164 446 164 c 0
 485.333333333 164 518 160.333333333 544 153 c 256
 570 145.666666667 594.666666667 137.333333333 618 128 c 0
 640.666666667 119.333333333 662.333333333 111.333333333 683 104 c 256
 703.666666667 96.6666666667 727.666666667 93 755 93 c 0
 793 93 825.666666667 102.333333333 853 121 c 0
 881 140.333333333 907.666666667 162.666666667 933 188 c 2
 939 194 l 1
 944 186 l 1
 1001 101 l 1
 1004 95 l 1
 999 91 l 2
 974.333333333 68.3333333333 951.333333333 49.3333333333 930 34 c 0
 908.666666667 18 886.666666667 5.66666666667 864 -3 c 256
 841.333333333 -11.6666666667 817 -18.3333333333 791 -23 c 0
 765 -27 735 -29 701 -29 c 0
 679.666666667 -29 657.666666667 -25 635 -17 c 0
 613 -9 589.666666667 -0.666666666667 565 8 c 256
 540.333333333 16.6666666667 514.666666667 25 488 33 c 0
 462 41 433.333333333 45 402 45 c 256
 370.666666667 45 341 39 313 27 c 0
 284.333333333 14.3333333333 256 2 228 -10 c 2
 222 -12 l 1
 219 -7 l 1
 159 91 l 1
 156 97 l 1
 161 101 l 2
 209.666666667 137 251.333333333 180.333333333 286 231 c 0
 320 281.666666667 337 337.666666667 337 399 c 0
 337 447.666666667 326 495 304 541 c 1
 141 541 l 1
 134 541 l 1
 134 548 l 1
 134 619 l 1
 134 626 l 1
 141 626 l 1
 267 626 l 1
 261 638.666666667 254 651.333333333 246 664 c 0
 235.333333333 681.333333333 225.333333333 700.333333333 216 721 c 256
 206.666666667 741.666666667 198.666666667 765.333333333 192 792 c 256
 185.333333333 818.666666667 182 849.333333333 182 884 c 0
 182 928.666666667 190 970.333333333 206 1009 c 256
 222 1047.66666667 246.333333333 1081 279 1109 c 256
 311.666666667 1137 351.666666667 1159.33333333 399 1176 c 0
 446.333333333 1192 502 1200 566 1200 c 0
 622 1200 674 1191.33333333 722 1174 c 256
 770.666666667 1156.66666667 812.333333333 1132 847 1100 c 256
 882.333333333 1068 909.666666667 1028.66666667 929 982 c 256
 948.333333333 935.333333333 957.333333333 883.333333333 956 826 c 2
 956 819 l 1
 949 819 l 1
 838 819 l 1
 831 819 l 1
 831 826 l 2
 827.666666667 913.333333333 802.666666667 980 756 1026 c 256
 709.333333333 1072 646.333333333 1094.66666667 567 1094 c 0
 534.333333333 1094 502 1089.66666667 470 1081 c 256
 438 1072.33333333 409.666666667 1059 385 1041 c 256
 360.333333333 1023 340.666666667 1000.33333333 326 973 c 256
 311.333333333 945.666666667 304.333333333 914.333333333 305 879 c 0
 305 853.666666667 308.333333333 830.333333333 315 809 c 0
 322.333333333 787.666666667 331.333333333 766.666666667 342 746 c 0
 353.333333333 725.333333333 365.666666667 705 379 685 c 0
 391.666666667 665.666666667 403.666666667 646 415 626 c 1
 691 626 l 1
 698 626 l 1
 698 619 l 1
EndSplineSet
EndChar

StartChar: fraction
Encoding: 8260 8260 338
AltUni2: 002215.ffffffff.0
Width: 312
VWidth: 1691
Flags: W
LayerCount: 2
Fore
SplineSet
-247 -7 m 1
 494 1194 l 1
 497 1197 l 1
 499 1200 l 1
 503 1200 l 1
 508 1200 l 1
 576 1200 l 1
 589 1200 l 1
 602 1200 l 1
 595 1189 l 1
 589 1178 l 1
 -154 -25 l 1
 -155 -26 l 1
 -157 -29 l 1
 -161 -29 l 1
 -166 -29 l 1
 -234 -29 l 1
 -247 -29 l 1
 -260 -29 l 1
 -253 -18 l 1
 -247 -7 l 1
EndSplineSet
EndChar

StartChar: yen
Encoding: 165 165 339
Width: 1038
VWidth: 1696
Flags: W
LayerCount: 2
Fore
SplineSet
567 652 m 1
 903 1228 l 1
 905 1231 l 1
 909 1231 l 1
 1032 1231 l 1
 1044 1231 l 1
 1038 1220 l 1
 756 748 l 1
 931 748 l 1
 938 748 l 1
 938 741 l 1
 938 649 l 1
 938 642 l 1
 931 642 l 1
 692 642 l 1
 631 536 l 1
 631 474 l 1
 931 474 l 1
 938 474 l 1
 938 467 l 1
 938 375 l 1
 938 368 l 1
 931 368 l 1
 631 368 l 1
 631 7 l 1
 631 0 l 1
 623 0 l 1
 515 0 l 1
 508 0 l 1
 508 7 l 1
 508 368 l 1
 208 368 l 1
 200 368 l 1
 200 375 l 1
 200 467 l 1
 200 474 l 1
 208 474 l 1
 508 474 l 1
 508 536 l 1
 447 642 l 1
 208 642 l 1
 200 642 l 1
 200 649 l 1
 200 741 l 1
 200 748 l 1
 208 748 l 1
 382 748 l 1
 100 1220 l 1
 94 1231 l 1
 106 1231 l 1
 235 1231 l 1
 239 1231 l 1
 241 1228 l 1
 567 652 l 1
EndSplineSet
EndChar

StartChar: florin
Encoding: 402 402 340
Width: 1065
VWidth: 1664
Flags: W
LayerCount: 2
Fore
SplineSet
1003 1081 m 1
 996 1085 l 2
 978.666666667 1094.33333333 960.333333333 1101.33333333 941 1106 c 0
 933 1108 923 1109 911 1109 c 128
 899 1109 885.666666667 1107.33333333 871 1104 c 0
 870 1104 l 2
 839.333333333 1098.66666667 815.333333333 1083.33333333 798 1058 c 0
 779.333333333 1031.33333333 764.333333333 1000 753 964 c 0
 741.666666667 927.333333333 732 887.333333333 724 844 c 0
 717.333333333 804 709 766.666666667 699 732 c 1
 888 732 l 1
 895 732 l 1
 895 725 l 1
 895 643 l 1
 895 636 l 1
 888 636 l 1
 682 636 l 1
 571 74 l 2
 557.666666667 14 543 -42.6666666667 527 -96 c 0
 510.333333333 -149.333333333 489 -196.333333333 463 -237 c 0
 436.333333333 -277.666666667 403.333333333 -310 364 -334 c 0
 326 -358.666666667 279 -371 223 -371 c 0
 206.333333333 -371 190 -369.333333333 174 -366 c 128
 158 -362.666666667 142.666666667 -358 128 -352 c 2
 121 -350 l 1
 123 -343 l 1
 156 -247 l 1
 158 -238 l 1
 166 -243 l 2
 182.666666667 -252.333333333 196 -258.333333333 206 -261 c 0
 216.666666667 -263.666666667 231.333333333 -264.666666667 250 -264 c 0
 281.333333333 -264 308 -250.333333333 330 -223 c 0
 353.333333333 -195 375 -154 395 -100 c 0
 415.666666667 -45.3333333333 434.333333333 21.3333333333 451 100 c 0
 468.333333333 178.666666667 486 268.666666667 504 370 c 2
 554 636 l 1
 364 636 l 1
 357 636 l 1
 357 643 l 1
 357 725 l 1
 357 732 l 1
 364 732 l 1
 570 732 l 1
 581.333333333 778 593.333333333 827.666666667 606 881 c 0
 619.333333333 937 637.666666667 989.666666667 661 1039 c 0
 685 1089 717 1130.66666667 757 1164 c 0
 797.666666667 1198 850.333333333 1214.66666667 915 1214 c 0
 938.333333333 1214 959.5 1211.16666667 978.5 1205.5 c 128
 997.5 1199.83333333 1017 1191.33333333 1037 1180 c 2
 1042 1176 l 1
 1040 1171 l 1
 1006 1088 l 1
 1003 1081 l 1
EndSplineSet
EndChar

StartChar: section
Encoding: 167 167 341
Width: 1038
VWidth: 1667
Flags: W
LayerCount: 2
Fore
SplineSet
420 725 m 1
 377.333333333 706.333333333 343.333333333 683.666666667 318 657 c 256
 292.666666667 630.333333333 279.666666667 597 279 557 c 0
 279 537 283.333333333 518.333333333 292 501 c 256
 300.666666667 483.666666667 311.666666667 467.666666667 325 453 c 256
 338.333333333 438.333333333 353 424.666666667 369 412 c 0
 385.666666667 399.333333333 402.333333333 387.333333333 419 376 c 2
 717 184 l 1
 733.666666667 193.333333333 750.333333333 203.666666667 767 215 c 0
 784.333333333 227 800 240.666666667 814 256 c 256
 828 271.333333333 839.333333333 288 848 306 c 0
 856 324 860 344 860 366 c 0
 860 387.333333333 855.333333333 407 846 425 c 256
 836.666666667 443 824.666666667 459.333333333 810 474 c 256
 795.333333333 488.666666667 779 502 761 514 c 256
 743 526 725.666666667 537.333333333 709 548 c 2
 420 725 l 1
349 283 m 2
 294.333333333 317 251.666666667 354 221 394 c 0
 189.666666667 434.666666667 173.666666667 484.666666667 173 544 c 256
 173 602.666666667 191 653.666666667 227 697 c 0
 260.333333333 737 301 768 349 790 c 1
 325.666666667 817.333333333 306.333333333 844.666666667 291 872 c 0
 273.666666667 902.666666667 265 939.333333333 265 982 c 0
 265 1015.33333333 271.666666667 1047.33333333 285 1078 c 256
 298.333333333 1108.66666667 318.333333333 1135.66666667 345 1159 c 256
 371.666666667 1182.33333333 404.333333333 1200.66666667 443 1214 c 256
 481.666666667 1227.33333333 526.666666667 1233.66666667 578 1233 c 0
 674.666666667 1233 749 1205.33333333 801 1150 c 256
 853 1094.66666667 878.333333333 1019.33333333 877 924 c 2
 877 917 l 1
 870 917 l 1
 779 917 l 1
 772 917 l 1
 771 924 l 2
 769 993.333333333 752.333333333 1044.66666667 721 1078 c 256
 689.666666667 1111.33333333 639 1128 569 1128 c 0
 516.333333333 1128 472.666666667 1115.33333333 438 1090 c 0
 404 1065.33333333 387 1025.66666667 387 971 c 0
 387 934.333333333 400.666666667 901.666666667 428 873 c 0
 456 843 491.333333333 814.666666667 534 788 c 0
 576.666666667 760.666666667 622.666666667 733.666666667 672 707 c 0
 722 680.333333333 768.666666667 651.666666667 812 621 c 256
 855.333333333 590.333333333 891.333333333 555.666666667 920 517 c 0
 949.333333333 478.333333333 964.333333333 434 965 384 c 0
 965 350.666666667 959.666666667 320.666666667 949 294 c 256
 939 268 925.333333333 244.333333333 908 223 c 256
 890.666666667 201.666666667 870.333333333 182.333333333 847 165 c 0
 827 149.666666667 805.666666667 134.333333333 783 119 c 1
 788.333333333 113.666666667 794.666666667 107.666666667 802 101 c 0
 813.333333333 89.6666666667 824.666666667 76.3333333333 836 61 c 256
 847.333333333 45.6666666667 857 27 865 5 c 256
 873 -17 877 -40.6666666667 877 -66 c 0
 877 -110 869 -148.666666667 853 -182 c 256
 837 -216 815 -244.333333333 787 -267 c 256
 759 -289.666666667 726.666666667 -306.666666667 690 -318 c 256
 653.333333333 -329.333333333 614 -335 572 -335 c 0
 474 -335 397.333333333 -306.666666667 342 -250 c 256
 286 -193.333333333 256 -117 252 -21 c 2
 251 -13 l 1
 259 -13 l 1
 361 -13 l 1
 368 -13 l 1
 368 -20 l 2
 368 -88 385 -140 419 -176 c 256
 453 -211.333333333 504.666666667 -229 574 -229 c 0
 596.666666667 -229 619 -226 641 -220 c 0
 663 -213.333333333 682.333333333 -203.666666667 699 -191 c 256
 715.666666667 -177.666666667 729.333333333 -161.666666667 740 -143 c 0
 750 -124.333333333 755 -102.666666667 755 -78 c 0
 755 -52 749.333333333 -28.6666666667 738 -8 c 0
 726.666666667 13.3333333333 711.666666667 33 693 51 c 0
 674.333333333 69.6666666667 654.333333333 86.3333333333 633 101 c 0
 611 116.333333333 590 130.666666667 570 144 c 2
 349 283 l 2
EndSplineSet
EndChar

StartChar: currency
Encoding: 164 164 342
Width: 1038
VWidth: 1675
Flags: W
LayerCount: 2
Fore
SplineSet
576 792 m 0
 532.666666667 793.333333333 492.333333333 786.333333333 455 771 c 256
 417.666666667 756.333333333 385.666666667 735.333333333 359 708 c 256
 332.333333333 680.666666667 311 648.666666667 295 612 c 256
 279.666666667 575.333333333 272.666666667 535.666666667 274 493 c 0
 274 492 l 2
 272.666666667 452.666666667 279.666666667 415.333333333 295 380 c 256
 310.333333333 344.666666667 331.666666667 313.333333333 359 286 c 256
 385.666666667 258.666666667 417 237.333333333 453 222 c 256
 489 206 526.666666667 198 566 198 c 0
 606.666666667 198 645.333333333 205.666666667 682 221 c 256
 718.666666667 236.333333333 750.666666667 257.333333333 778 284 c 256
 805.333333333 311.333333333 827 343.333333333 843 380 c 256
 859 416.666666667 866.666666667 456 866 498 c 0
 866 538 858.333333333 575.666666667 843 611 c 256
 827.666666667 646.333333333 806.666666667 677.666666667 780 705 c 256
 753.333333333 732.333333333 722.666666667 754 688 770 c 256
 653.333333333 786 616.333333333 793.333333333 577 792 c 2
 576 792 l 0
217 244 m 1
 191 282.666666667 171.666666667 321 159 359 c 0
 145 399 138 443.666666667 138 493 c 0
 138 544.333333333 144.333333333 590 157 630 c 0
 169 668.666666667 189 708 217 748 c 1
 149 816 l 1
 144 821 l 1
 149 826 l 1
 236 915 l 1
 241 920 l 1
 246 915 l 1
 316 847 l 1
 354 875 394.333333333 895.333333333 437 908 c 0
 481.666666667 921.333333333 528 928 576 928 c 256
 624 928 668.333333333 920.333333333 709 905 c 0
 747 890.333333333 784.666666667 871 822 847 c 1
 892 915 l 1
 897 920 l 1
 902 915 l 1
 990 826 l 1
 995 821 l 1
 990 816 l 1
 922 748 l 1
 950 707.333333333 969.666666667 666.666666667 981 626 c 0
 993.666666667 584 1000 536.666666667 1000 484 c 0
 1000 436 993 393 979 355 c 0
 965.666666667 319 946.333333333 282 921 244 c 1
 990 177 l 1
 995 172 l 1
 990 167 l 1
 902 78 l 1
 897 72 l 1
 892 77 l 1
 822 146 l 1
 745.333333333 91.3333333333 658.333333333 63.6666666667 561 63 c 0
 513 63 468.666666667 71 428 87 c 0
 390 101.666666667 353 121.333333333 317 146 c 1
 246 77 l 1
 241 72 l 1
 236 78 l 1
 149 167 l 1
 144 172 l 1
 149 177 l 1
 217 244 l 1
EndSplineSet
EndChar

StartChar: quotesingle
Encoding: 39 39 343
Width: 414
VWidth: 1785
Flags: W
LayerCount: 2
Fore
SplineSet
183 1320 m 1
 272 1320 l 1
 279 1320 l 1
 279 1313 l 1
 279 930 l 1
 279 923 l 1
 272 923 l 1
 183 923 l 1
 176 923 l 1
 176 930 l 1
 176 1313 l 1
 176 1320 l 1
 183 1320 l 1
EndSplineSet
EndChar

StartChar: quotedblleft
Encoding: 8220 8220 344
Width: 727
VWidth: 1785
Flags: W
LayerCount: 2
Fore
SplineSet
209 1131 m 2
 209 1182.33333333 221 1223.66666667 245 1255 c 256
 269 1286.33333333 300 1308 338 1320 c 2
 347 1322 l 1
 347 1313 l 1
 347 1250 l 1
 347 1246 l 1
 344 1244 l 2
 330.666666667 1235.33333333 318 1223.33333333 306 1208 c 0
 294.666666667 1193.33333333 289 1170.33333333 289 1139 c 2
 289 1088 l 1
 340 1088 l 1
 347 1088 l 1
 347 1081 l 1
 347 932 l 1
 347 925 l 1
 340 925 l 1
 216 925 l 1
 209 925 l 1
 209 932 l 1
 209 1131 l 2
464 1131 m 2
 464 1182.33333333 476 1223.66666667 500 1255 c 256
 524 1286.33333333 555 1308 593 1320 c 2
 602 1322 l 1
 602 1313 l 1
 602 1250 l 1
 602 1246 l 1
 599 1244 l 2
 585.666666667 1235.33333333 573 1223.33333333 561 1208 c 0
 549.666666667 1193.33333333 544 1170.33333333 544 1139 c 2
 544 1088 l 1
 595 1088 l 1
 602 1088 l 1
 602 1081 l 1
 602 932 l 1
 602 925 l 1
 595 925 l 1
 471 925 l 1
 464 925 l 1
 464 932 l 1
 464 1131 l 2
EndSplineSet
EndChar

StartChar: guilsinglleft
Encoding: 8249 8249 345
Width: 726
VWidth: 1661
Flags: W
LayerCount: 2
Fore
SplineSet
270 469 m 1
 516 659 l 1
 528 668 l 1
 528 654 l 1
 528 547 l 1
 528 544 l 1
 525 542 l 1
 357 409 l 1
 525 280 l 1
 528 278 l 1
 528 274 l 1
 528 169 l 1
 528 155 l 1
 517 164 l 1
 270 351 l 1
 267 353 l 1
 267 357 l 1
 267 463 l 1
 267 467 l 1
 270 469 l 1
EndSplineSet
EndChar

StartChar: guilsinglright
Encoding: 8250 8250 346
Width: 726
VWidth: 1661
Flags: W
LayerCount: 2
Fore
SplineSet
527 354 m 1
 281 164 l 1
 269 155 l 1
 269 169 l 1
 269 276 l 1
 269 279 l 1
 272 281 l 1
 440 414 l 1
 272 543 l 1
 269 545 l 1
 269 549 l 1
 269 654 l 1
 269 668 l 1
 280 659 l 1
 527 472 l 1
 530 470 l 1
 530 466 l 1
 530 360 l 1
 530 356 l 1
 527 354 l 1
EndSplineSet
EndChar

StartChar: fi
Encoding: 64257 64257 347
Width: 953
VWidth: 1699
Flags: W
LayerCount: 2
Fore
SplineSet
844 1061 m 1
 837 1061 l 1
 726 1061 l 1
 718 1061 l 1
 718 1068 l 1
 718 1219 l 1
 718 1226 l 1
 726 1226 l 1
 837 1226 l 1
 844 1226 l 1
 844 1219 l 1
 844 1068 l 1
 844 1061 l 1
723 -5 m 1
 723 2 l 1
 723 878 l 1
 723 885 l 1
 730 885 l 1
 832 885 l 1
 839 885 l 1
 839 878 l 1
 839 2 l 1
 839 -5 l 1
 832 -5 l 1
 730 -5 l 1
 723 -5 l 1
103 786 m 1
 103 793 l 1
 103 878 l 1
 103 885 l 1
 110 885 l 1
 235 885 l 1
 235 1016 l 2
 235 1087.33333333 249.666666667 1144 279 1186 c 0
 309 1228.66666667 360.666666667 1250 434 1250 c 0
 451.333333333 1250 467.166666667 1249.33333333 481.5 1248 c 128
 495.833333333 1246.66666667 510 1245 524 1243 c 2
 531 1242 l 1
 531 1236 l 1
 531 1143 l 1
 531 1133 l 1
 521 1136 l 2
 497.666666667 1141.33333333 476.666666667 1144 458 1144 c 0
 432 1144 412 1139.66666667 398 1131 c 128
 384 1122.33333333 373.666666667 1110.66666667 367 1096 c 0
 360.333333333 1080.66666667 356 1063.66666667 354 1045 c 0
 352 1025.66666667 351 1006 351 986 c 2
 351 885 l 1
 520 885 l 1
 527 885 l 1
 527 878 l 1
 527 793 l 1
 527 786 l 1
 520 786 l 1
 351 786 l 1
 351 2 l 1
 351 -5 l 1
 344 -5 l 1
 243 -5 l 1
 235 -5 l 1
 235 2 l 1
 235 786 l 1
 110 786 l 1
 103 786 l 1
EndSplineSet
EndChar

StartChar: fl
Encoding: 64258 64258 348
Width: 952
VWidth: 1699
Flags: W
LayerCount: 2
Fore
SplineSet
723 -5 m 1
 723 2 l 1
 723 1219 l 1
 723 1226 l 1
 730 1226 l 1
 831 1226 l 1
 839 1226 l 1
 839 1219 l 1
 839 2 l 1
 839 -5 l 1
 831 -5 l 1
 730 -5 l 1
 723 -5 l 1
102 786 m 1
 102 793 l 1
 102 878 l 1
 102 885 l 1
 109 885 l 1
 235 885 l 1
 235 1016 l 2
 235 1087.33333333 249.666666667 1144 279 1186 c 0
 309 1228.66666667 360.666666667 1250 434 1250 c 0
 451.333333333 1250 467.166666667 1249.33333333 481.5 1248 c 128
 495.833333333 1246.66666667 510 1245 524 1243 c 2
 530 1242 l 1
 530 1236 l 1
 530 1143 l 1
 530 1133 l 1
 521 1136 l 2
 497.666666667 1141.33333333 476.666666667 1144 458 1144 c 0
 432 1144 412 1139.66666667 398 1131 c 128
 384 1122.33333333 373.333333333 1110.66666667 366 1096 c 0
 359.333333333 1080.66666667 355 1063.66666667 353 1045 c 0
 351 1025.66666667 350.333333333 1006 351 986 c 2
 351 885 l 1
 519 885 l 1
 527 885 l 1
 527 878 l 1
 527 793 l 1
 527 786 l 1
 519 786 l 1
 351 786 l 1
 351 2 l 1
 351 -5 l 1
 344 -5 l 1
 242 -5 l 1
 235 -5 l 1
 235 2 l 1
 235 786 l 1
 109 786 l 1
 102 786 l 1
EndSplineSet
EndChar

StartChar: endash
Encoding: 8211 8211 349
Width: 934
VWidth: 1660
Flags: W
LayerCount: 2
Fore
SplineSet
934 366 m 1
 90 366 l 1
 82 366 l 1
 82 373 l 1
 82 448 l 1
 82 455 l 1
 90 455 l 1
 934 455 l 1
 942 455 l 1
 942 448 l 1
 942 373 l 1
 942 366 l 1
 934 366 l 1
EndSplineSet
EndChar

StartChar: dagger
Encoding: 8224 8224 350
Width: 1038
VWidth: 1667
Flags: W
LayerCount: 2
Fore
SplineSet
512 707 m 1
 162 707 l 1
 155 707 l 1
 155 714 l 1
 155 806 l 1
 155 813 l 1
 162 813 l 1
 512 813 l 1
 512 1194 l 1
 512 1201 l 1
 519 1201 l 1
 620 1201 l 1
 627 1201 l 1
 627 1194 l 1
 627 813 l 1
 977 813 l 1
 984 813 l 1
 984 806 l 1
 984 714 l 1
 984 707 l 1
 977 707 l 1
 627 707 l 1
 627 -303 l 1
 627 -310 l 1
 620 -310 l 1
 519 -310 l 1
 512 -310 l 1
 512 -303 l 1
 512 707 l 1
EndSplineSet
EndChar

StartChar: daggerdbl
Encoding: 8225 8225 351
Width: 1038
VWidth: 1667
Flags: W
LayerCount: 2
Fore
SplineSet
512 718 m 1
 162 718 l 1
 155 718 l 1
 155 726 l 1
 155 817 l 1
 155 824 l 1
 162 824 l 1
 512 824 l 1
 512 1194 l 1
 512 1201 l 1
 519 1201 l 1
 620 1201 l 1
 627 1201 l 1
 627 1194 l 1
 627 824 l 1
 977 824 l 1
 984 824 l 1
 984 817 l 1
 984 726 l 1
 984 718 l 1
 977 718 l 1
 627 718 l 1
 627 168 l 1
 977 168 l 1
 984 168 l 1
 984 161 l 1
 984 71 l 1
 984 63 l 1
 977 63 l 1
 627 63 l 1
 627 -303 l 1
 627 -310 l 1
 620 -310 l 1
 519 -310 l 1
 512 -310 l 1
 512 -303 l 1
 512 63 l 1
 162 63 l 1
 155 63 l 1
 155 71 l 1
 155 161 l 1
 155 168 l 1
 162 168 l 1
 512 168 l 1
 512 718 l 1
EndSplineSet
EndChar

StartChar: periodcentered
Encoding: 183 183 352
AltUni2: 002219.ffffffff.0
Width: 519
VWidth: 1692
Flags: W
LayerCount: 2
Fore
SplineSet
285 683 m 0
 309.666666667 683 330.333333333 674.333333333 347 657 c 0
 364.333333333 639.666666667 373 619 373 595 c 0
 373 570.333333333 364.333333333 549 347 531 c 0
 329.666666667 513 309 504 285 504 c 0
 260.333333333 504 239 513 221 531 c 0
 203 549 194 570.333333333 194 595 c 0
 194 619.666666667 203.333333333 640.333333333 222 657 c 0
 240.666666667 674.333333333 261.666666667 683 285 683 c 0
EndSplineSet
EndChar

StartChar: paragraph
Encoding: 182 182 353
Width: 1200
VWidth: 1670
Flags: W
LayerCount: 2
Fore
SplineSet
531 541 m 1
 489.666666667 541.666666667 450 550.666666667 412 568 c 0
 372 585.333333333 336.666666667 608.666666667 306 638 c 256
 275.333333333 668 251.333333333 702.666666667 234 742 c 256
 216 782 207 824.333333333 207 869 c 0
 207 977.666666667 240.666666667 1061 308 1119 c 0
 375.333333333 1176.33333333 469.666666667 1205 591 1205 c 2
 957 1205 l 1
 964 1205 l 1
 964 1198 l 1
 964 -266 l 1
 964 -273 l 1
 957 -273 l 1
 856 -273 l 1
 849 -273 l 1
 849 -266 l 1
 849 1077 l 1
 647 1077 l 1
 647 -266 l 1
 647 -273 l 1
 640 -273 l 1
 538 -273 l 1
 531 -273 l 1
 531 -266 l 1
 531 541 l 1
EndSplineSet
EndChar

